GeoramaExtraCondensed-ThinItalic.ufo
<glyph name="dollar" format="2">
  <advance width="250"/>
  <unicode hex="0024"/>
  <outline>
    <contour>
      <point x="259" y="696" type="line"/>
      <point x="247" y="703"/>
      <point x="230" y="709"/>
      <point x="208" y="710" type="curve"/>
      <point x="223" y="805" type="line"/>
      <point x="205" y="805" type="line"/>
      <point x="189" y="709" type="line"/>
      <point x="98" y="702"/>
      <point x="76" y="596"/>
      <point x="76" y="530" type="curve" smooth="yes"/>
      <point x="76" y="398"/>
      <point x="171" y="294"/>
      <point x="171" y="167" type="curve" smooth="yes"/>
      <point x="171" y="94"/>
      <point x="137" y="10"/>
      <point x="58" y="10" type="curve" smooth="yes"/>
      <point x="33" y="10"/>
      <point x="12" y="13"/>
      <point x="-7" y="24" type="curve"/>
      <point x="-18" y="6" type="line"/>
      <point x="-5" y="-2"/>
      <point x="19" y="-9"/>
      <point x="47" y="-10" type="curve"/>
      <point x="32" y="-105" type="line"/>
      <point x="50" y="-105" type="line"/>
      <point x="65" y="-9" type="line"/>
      <point x="161" y="-2"/>
      <point x="191" y="98"/>
      <point x="191" y="172" type="curve" smooth="yes"/>
      <point x="191" y="303"/>
      <point x="96" y="405"/>
      <point x="96" y="532" type="curve" smooth="yes"/>
      <point x="96" y="597"/>
      <point x="122" y="692"/>
      <point x="197" y="692" type="curve" smooth="yes"/>
      <point x="223" y="692"/>
      <point x="234" y="688"/>
      <point x="249" y="680" type="curve"/>
    </contour>
  </outline>
</glyph>
<glyph name="ampersand" format="2">
  <advance width="317"/>
  <unicode hex="0026"/>
  <outline>
    <contour>
      <point x="103" y="-10" type="curve" smooth="yes"/>
      <point x="195" y="-10"/>
      <point x="278" y="158"/>
      <point x="256" y="294" type="curve"/>
      <point x="238" y="298" type="line"/>
      <point x="261" y="177"/>
      <point x="184" y="8"/>
      <point x="105" y="8" type="curve" smooth="yes"/>
      <point x="57" y="8"/>
      <point x="32" y="48"/>
      <point x="32" y="123" type="curve" smooth="yes"/>
      <point x="32" y="279"/>
      <point x="123" y="400"/>
      <point x="241" y="400" type="curve" smooth="yes"/>
      <point x="251" y="400" type="line"/>
      <point x="254" y="418" type="line"/>
      <point x="246" y="418" type="line" smooth="yes"/>
      <point x="189" y="418"/>
      <point x="159" y="463"/>
      <point x="159" y="546" type="curve" smooth="yes"/>
      <point x="159" y="628"/>
      <point x="204" y="692"/>
      <point x="261" y="692" type="curve" smooth="yes"/>
      <point x="287" y="692"/>
      <point x="305" y="685"/>
      <point x="329" y="665" type="curve"/>
      <point x="338" y="681" type="line"/>
      <point x="317" y="700"/>
      <point x="292" y="710"/>
      <point x="264" y="710" type="curve" smooth="yes"/>
      <point x="193" y="710"/>
      <point x="140" y="639"/>
      <point x="140" y="544" type="curve" smooth="yes"/>
      <point x="140" y="477"/>
      <point x="162" y="430"/>
      <point x="199" y="412" type="curve"/>
      <point x="91" y="386"/>
      <point x="13" y="267"/>
      <point x="13" y="122" type="curve" smooth="yes"/>
      <point x="13" y="37"/>
      <point x="45" y="-10"/>
    </contour>
    <contour>
      <point x="170" y="273" type="line"/>
      <point x="175" y="290"/>
      <point x="186" y="298"/>
      <point x="204" y="298" type="curve" smooth="yes"/>
      <point x="232" y="298"/>
      <point x="248" y="286"/>
      <point x="285" y="286" type="curve" smooth="yes"/>
      <point x="309" y="286"/>
      <point x="325" y="296"/>
      <point x="334" y="316" type="curve"/>
      <point x="318" y="325" type="line"/>
      <point x="311" y="310"/>
      <point x="299" y="303"/>
      <point x="282" y="303" type="curve" smooth="yes"/>
      <point x="258" y="303"/>
      <point x="228" y="315"/>
      <point x="202" y="315" type="curve" smooth="yes"/>
      <point x="177" y="315"/>
      <point x="162" y="304"/>
      <point x="153" y="281" type="curve"/>
    </contour>
  </outline>
</glyph>
<glyph name="parenleft" format="2">
  <advance width="162"/>
  <unicode hex="0028"/>
  <outline>
    <contour>
      <point x="23" y="-20" type="curve" smooth="yes"/>
      <point x="23" y="-123"/>
      <point x="40" y="-196"/>
      <point x="68" y="-220" type="curve"/>
      <point x="81" y="-204" type="line"/>
      <point x="60" y="-189"/>
      <point x="41" y="-118"/>
      <point x="41" y="-15" type="curve" smooth="yes"/>
      <point x="41" y="171"/>
      <point x="122" y="661"/>
      <point x="226" y="730" type="curve"/>
      <point x="219" y="749" type="line"/>
      <point x="101" y="668"/>
      <point x="23" y="200"/>
    </contour>
  </outline>
</glyph>
<glyph name="asterisk" format="2">
  <advance width="176"/>
  <unicode hex="002A"/>
  <outline>
    <contour>
      <point x="65" y="397" type="line"/>
      <point x="121" y="482" type="line"/>
      <point x="149" y="398" type="line"/>
      <point x="164" y="408" type="line"/>
      <point x="135" y="499" type="line"/>
      <point x="211" y="541" type="line"/>
      <point x="207" y="557" type="line"/>
      <point x="134" y="519" type="line"/>
      <point x="151" y="629" type="line"/>
      <point x="135" y="629" type="line"/>
      <point x="118" y="520" type="line"/>
      <point x="57" y="558" type="line"/>
      <point x="49" y="543" type="line"/>
      <point x="111" y="501" type="line"/>
      <point x="52" y="408" type="line"/>
    </contour>
  </outline>
</glyph>
<glyph name="hyphen" format="2">
  <advance width="165"/>
  <unicode hex="002D"/>
  <outline>
    <contour>
      <point x="11" y="253" type="line"/>
      <point x="147" y="253" type="line"/>
      <point x="151" y="272" type="line"/>
      <point x="15" y="272" type="line"/>
    </contour>
  </outline>
</glyph>
<glyph name="zero" format="2">
  <advance width="250"/>
  <unicode hex="0030"/>
  <outline>
    <contour>
      <point x="80" y="-10" type="curve" smooth="yes"/>
      <point x="208" y="-10"/>
      <point x="264" y="392"/>
      <point x="264" y="567" type="curve" smooth="yes"/>
      <point x="264" y="676"/>
      <point x="245" y="710"/>
      <point x="192" y="710" type="curve" smooth="yes"/>
      <point x="64" y="710"/>
      <point x="8" y="308"/>
      <point x="8" y="133" type="curve" smooth="yes"/>
      <point x="8" y="24"/>
      <point x="27" y="-10"/>
    </contour>
    <contour>
      <point x="80" y="9" type="curve" smooth="yes"/>
      <point x="40" y="9"/>
      <point x="26" y="39"/>
      <point x="27" y="132" type="curve" smooth="yes"/>
      <point x="29" y="319"/>
      <point x="86" y="691"/>
      <point x="192" y="691" type="curve" smooth="yes"/>
      <point x="232" y="691"/>
      <point x="246" y="661"/>
      <point x="245" y="568" type="curve" smooth="yes"/>
      <point x="243" y="381"/>
      <point x="186" y="9"/>
    </contour>
  </outline>
</glyph>
<glyph name="one" format="2">
  <advance width="250"/>
  <unicode hex="0031"/>
  <outline>
    <contour>
      <point x="-15" y="0" type="line"/>
      <point x="202" y="0" type="line"/>
      <point x="205" y="20" type="line"/>
      <point x="106" y="20" type="line"/>
      <point x="214" y="700" type="line"/>
      <point x="203" y="700" type="line"/>
      <point x="60" y="580" type="line"/>
      <point x="70" y="566" type="line"/>
      <point x="189" y="665" type="line"/>
      <point x="87" y="20" type="line"/>
      <point x="-12" y="20" type="line"/>
    </contour>
  </outline>
</glyph>
<glyph name="three" format="2">
  <advance width="250"/>
  <unicode hex="0033"/>
  <outline>
    <contour>
      <point x="-26" y="33" type="line"/>
      <point x="-10" y="5"/>
      <point x="22" y="-10"/>
      <point x="59" y="-10" type="curve" smooth="yes"/>
      <point x="149" y="-10"/>
      <point x="206" y="104"/>
      <point x="206" y="260" type="curve" smooth="yes"/>
      <point x="206" y="322"/>
      <point x="188" y="362"/>
      <point x="162" y="371" type="curve"/>
      <point x="202" y="391"/>
      <point x="243" y="475"/>
      <point x="243" y="582" type="curve" smooth="yes"/>
      <point x="243" y="657"/>
      <point x="214" y="710"/>
      <point x="163" y="710" type="curve" smooth="yes"/>
      <point x="137" y="710"/>
      <point x="103" y="696"/>
      <point x="84" y="678" type="curve"/>
      <point x="95" y="663" type="line"/>
      <point x="117" y="682"/>
      <point x="139" y="691"/>
      <point x="163" y="691" type="curve" smooth="yes"/>
      <point x="201" y="691"/>
      <point x="224" y="642"/>
      <point x="224" y="579" type="curve" smooth="yes"/>
      <point x="224" y="482"/>
      <point x="184" y="378"/>
      <point x="131" y="378" type="curve" smooth="yes"/>
      <point x="97" y="378" type="line"/>
      <point x="94" y="360" type="line"/>
      <point x="137" y="360" type="line" smooth="yes"/>
      <point x="168" y="360"/>
      <point x="186" y="324"/>
      <point x="186" y="254" type="curve" smooth="yes"/>
      <point x="186" y="117"/>
      <point x="136" y="9"/>
      <point x="60" y="9" type="curve" smooth="yes"/>
      <point x="29" y="9"/>
      <point x="6" y="21"/>
      <point x="-11" y="45" type="curve"/>
    </contour>
  </outline>
</glyph>
<glyph name="four" format="2">
  <advance width="250"/>
  <unicode hex="0034"/>
  <outline>
    <contour>
      <point x="12" y="192" type="line"/>
      <point x="154" y="192" type="line"/>
      <point x="124" y="0" type="line"/>
      <point x="143" y="0" type="line"/>
      <point x="173" y="192" type="line"/>
      <point x="228" y="192" type="line"/>
      <point x="231" y="212" type="line"/>
      <point x="176" y="212" type="line"/>
      <point x="253" y="699" type="line"/>
      <point x="240" y="704" type="line"/>
      <point x="9" y="209" type="line"/>
    </contour>
    <contour>
      <point x="29" y="212" type="line"/>
      <point x="223" y="624" type="line"/>
      <point x="157" y="212" type="line"/>
    </contour>
  </outline>
</glyph>
<glyph name="five" format="2">
  <advance width="250"/>
  <unicode hex="0035"/>
  <outline>
    <contour>
      <point x="-16" y="38" type="line"/>
      <point x="0" y="7"/>
      <point x="26" y="-10"/>
      <point x="58" y="-10" type="curve" smooth="yes"/>
      <point x="179" y="-10"/>
      <point x="211" y="165"/>
      <point x="211" y="258" type="curve" smooth="yes"/>
      <point x="211" y="332"/>
      <point x="185" y="379"/>
      <point x="128" y="379" type="curve" smooth="yes"/>
      <point x="77" y="379" type="line"/>
      <point x="137" y="680" type="line"/>
      <point x="258" y="680" type="line"/>
      <point x="261" y="700" type="line"/>
      <point x="122" y="700" type="line"/>
      <point x="56" y="370" type="line"/>
      <point x="65" y="359" type="line"/>
      <point x="126" y="359" type="line" smooth="yes"/>
      <point x="176" y="359"/>
      <point x="192" y="318"/>
      <point x="192" y="255" type="curve" smooth="yes"/>
      <point x="192" y="176"/>
      <point x="163" y="9"/>
      <point x="62" y="9" type="curve" smooth="yes"/>
      <point x="31" y="9"/>
      <point x="12" y="29"/>
      <point x="1" y="50" type="curve"/>
    </contour>
  </outline>
</glyph>
<glyph name="six" format="2">
  <advance width="250"/>
  <unicode hex="0036"/>
  <note>
14
</note>
  <outline>
    <contour>
      <point x="83" y="-10" type="curve" smooth="yes"/>
      <point x="162" y="-10"/>
      <point x="220" y="110"/>
      <point x="220" y="272" type="curve" smooth="yes"/>
      <point x="220" y="353"/>
      <point x="193" y="396"/>
      <point x="142" y="396" type="curve" smooth="yes"/>
      <point x="101" y="396"/>
      <point x="55" y="352"/>
      <point x="28" y="267" type="curve"/>
      <point x="23" y="208" type="line"/>
      <point x="45" y="303"/>
      <point x="91" y="377"/>
      <point x="143" y="377" type="curve" smooth="yes"/>
      <point x="180" y="377"/>
      <point x="200" y="338"/>
      <point x="200" y="269" type="curve" smooth="yes"/>
      <point x="200" y="127"/>
      <point x="147" y="8"/>
      <point x="84" y="8" type="curve" smooth="yes"/>
      <point x="48" y="8"/>
      <point x="28" y="51"/>
      <point x="28" y="128" type="curve" smooth="yes"/>
      <point x="28" y="281"/>
      <point x="54" y="438"/>
      <point x="93" y="547" type="curve" smooth="yes"/>
      <point x="124" y="633"/>
      <point x="165" y="691"/>
      <point x="213" y="691" type="curve" smooth="yes"/>
      <point x="234" y="691"/>
      <point x="251" y="683"/>
      <point x="272" y="667" type="curve"/>
      <point x="284" y="682" type="line"/>
      <point x="259" y="702"/>
      <point x="241" y="710"/>
      <point x="211" y="710" type="curve" smooth="yes"/>
      <point x="94" y="710"/>
      <point x="9" y="419"/>
      <point x="9" y="124" type="curve" smooth="yes"/>
      <point x="9" y="35"/>
      <point x="34" y="-10"/>
    </contour>
  </outline>
</glyph>
<glyph name="seven" format="2">
  <advance width="250"/>
  <unicode hex="0037"/>
  <note>
9
</note>
  <outline>
    <contour>
      <point x="40" y="0" type="curve"/>
      <point x="59" y="0" type="line"/>
      <point x="77" y="108"/>
      <point x="101" y="223"/>
      <point x="179" y="423" type="curve" smooth="yes"/>
      <point x="280" y="683" type="line"/>
      <point x="283" y="700" type="line"/>
      <point x="76" y="700" type="line"/>
      <point x="73" y="680" type="line"/>
      <point x="259" y="680" type="line"/>
      <point x="169" y="447" type="line" smooth="yes"/>
      <point x="97" y="261"/>
      <point x="62" y="140"/>
    </contour>
  </outline>
</glyph>
<glyph name="nine" format="2">
  <advance width="250"/>
  <unicode hex="0039"/>
  <outline>
    <contour>
      <point x="188" y="710" type="curve" smooth="yes"/>
      <point x="109" y="710"/>
      <point x="51" y="590"/>
      <point x="51" y="428" type="curve" smooth="yes"/>
      <point x="51" y="347"/>
      <point x="78" y="304"/>
      <point x="129" y="304" type="curve" smooth="yes"/>
      <point x="170" y="304"/>
      <point x="216" y="348"/>
      <point x="243" y="433" type="curve"/>
      <point x="248" y="492" type="line"/>
      <point x="226" y="397"/>
      <point x="180" y="323"/>
      <point x="128" y="323" type="curve" smooth="yes"/>
      <point x="91" y="323"/>
      <point x="71" y="362"/>
      <point x="71" y="431" type="curve" smooth="yes"/>
      <point x="71" y="573"/>
      <point x="124" y="692"/>
      <point x="187" y="692" type="curve" smooth="yes"/>
      <point x="223" y="692"/>
      <point x="243" y="649"/>
      <point x="243" y="572" type="curve" smooth="yes"/>
      <point x="243" y="419"/>
      <point x="217" y="262"/>
      <point x="178" y="153" type="curve" smooth="yes"/>
      <point x="147" y="67"/>
      <point x="106" y="9"/>
      <point x="63" y="9" type="curve" smooth="yes"/>
      <point x="42" y="9"/>
      <point x="21" y="16"/>
      <point x="-1" y="43" type="curve"/>
      <point x="-13" y="28" type="line"/>
      <point x="13" y="-3"/>
      <point x="35" y="-10"/>
      <point x="65" y="-10" type="curve" smooth="yes"/>
      <point x="173" y="-10"/>
      <point x="262" y="281"/>
      <point x="262" y="576" type="curve" smooth="yes"/>
      <point x="262" y="665"/>
      <point x="237" y="710"/>
    </contour>
  </outline>
</glyph>
<glyph name="equal" format="2">
  <advance width="341"/>
  <unicode hex="003D"/>
  <outline>
    <contour>
      <point x="289" y="197" type="line"/>
      <point x="27" y="197" type="line"/>
      <point x="24" y="177" type="line"/>
      <point x="286" y="177" type="line"/>
    </contour>
    <contour>
      <point x="321" y="404" type="line"/>
      <point x="59" y="404" type="line"/>
      <point x="56" y="384" type="line"/>
      <point x="318" y="384" type="line"/>
    </contour>
  </outline>
</glyph>
<glyph name="question" format="2">
  <advance width="216"/>
  <unicode hex="003F"/>
  <outline>
    <contour>
      <point x="85" y="264" type="line"/>
      <point x="103" y="264" type="line"/>
      <point x="115" y="342" type="line"/>
      <point x="194" y="428"/>
      <point x="250" y="486"/>
      <point x="250" y="632" type="curve" smooth="yes"/>
      <point x="250" y="713"/>
      <point x="216" y="750"/>
      <point x="172" y="750" type="curve" smooth="yes"/>
      <point x="139" y="750"/>
      <point x="106" y="729"/>
      <point x="76" y="697" type="curve"/>
      <point x="85" y="684" type="line"/>
      <point x="117" y="717"/>
      <point x="145" y="731"/>
      <point x="169" y="731" type="curve" smooth="yes"/>
      <point x="207" y="731"/>
      <point x="231" y="692"/>
      <point x="231" y="629" type="curve" smooth="yes"/>
      <point x="231" y="514"/>
      <point x="191" y="442"/>
      <point x="99" y="351" type="curve"/>
    </contour>
    <contour>
      <point x="41" y="10" type="curve" smooth="yes"/>
      <point x="40" y="2"/>
      <point x="41" y="0"/>
      <point x="52" y="0" type="curve" smooth="yes"/>
      <point x="68" y="0"/>
      <point x="68" y="1"/>
      <point x="71" y="24" type="curve" smooth="yes"/>
      <point x="72" y="33"/>
      <point x="69" y="34"/>
      <point x="59" y="34" type="curve" smooth="yes"/>
      <point x="45" y="34"/>
      <point x="44" y="33"/>
    </contour>
  </outline>
</glyph>
<glyph name="at" format="2">
  <advance width="381"/>
  <unicode hex="0040"/>
  <outline>
    <contour>
      <point x="127" y="-124" type="curve" smooth="yes"/>
      <point x="178" y="-124"/>
      <point x="216" y="-99"/>
      <point x="243" y="-49" type="curve"/>
      <point x="229" y="-43" type="line"/>
      <point x="208" y="-86"/>
      <point x="174" y="-108"/>
      <point x="129" y="-108" type="curve" smooth="yes"/>
      <point x="57" y="-108"/>
      <point x="20" y="-46"/>
      <point x="20" y="75" type="curve" smooth="yes"/>
      <point x="20" y="403"/>
      <point x="140" y="693"/>
      <point x="282" y="693" type="curve" smooth="yes"/>
      <point x="341" y="693"/>
      <point x="380" y="665"/>
      <point x="380" y="549" type="curve" smooth="yes"/>
      <point x="380" y="341"/>
      <point x="305" y="76"/>
      <point x="248" y="76" type="curve" smooth="yes"/>
      <point x="218" y="76"/>
      <point x="230" y="148"/>
      <point x="237" y="182" type="curve" smooth="yes"/>
      <point x="312" y="521" type="line"/>
      <point x="287" y="532"/>
      <point x="270" y="536"/>
      <point x="249" y="536" type="curve" smooth="yes"/>
      <point x="174" y="536"/>
      <point x="92" y="303"/>
      <point x="92" y="128" type="curve" smooth="yes"/>
      <point x="92" y="82"/>
      <point x="109" y="61"/>
      <point x="135" y="61" type="curve" smooth="yes"/>
      <point x="165" y="61"/>
      <point x="195" y="86"/>
      <point x="216" y="146" type="curve"/>
      <point x="214" y="130"/>
      <point x="199" y="61"/>
      <point x="249" y="61" type="curve" smooth="yes"/>
      <point x="325" y="61"/>
      <point x="397" y="350"/>
      <point x="397" y="555" type="curve" smooth="yes"/>
      <point x="397" y="667"/>
      <point x="356" y="710"/>
      <point x="283" y="710" type="curve" smooth="yes"/>
      <point x="130" y="710"/>
      <point x="3" y="418"/>
      <point x="3" y="68" type="curve" smooth="yes"/>
      <point x="3" y="-58"/>
      <point x="46" y="-124"/>
    </contour>
    <contour>
      <point x="138" y="79" type="curve" smooth="yes"/>
      <point x="120" y="79"/>
      <point x="110" y="97"/>
      <point x="110" y="134" type="curve" smooth="yes"/>
      <point x="110" y="303"/>
      <point x="194" y="520"/>
      <point x="249" y="520" type="curve" smooth="yes"/>
      <point x="262" y="520"/>
      <point x="279" y="517"/>
      <point x="293" y="511" type="curve"/>
      <point x="229" y="229" type="line" smooth="yes"/>
      <point x="207" y="133"/>
      <point x="169" y="79"/>
    </contour>
  </outline>
</glyph>
<glyph name="A" format="2">
  <advance width="276"/>
  <unicode hex="0041"/>
  <anchor x="91" y="0" name="bottom"/>
  <anchor x="212" y="0" name="ogonek"/>
  <anchor x="201" y="700" name="top"/>
  <outline>
    <contour>
      <point x="-24" y="0" type="line"/>
      <point x="-5" y="0" type="line"/>
      <point x="64" y="221" type="line"/>
      <point x="193" y="221" type="line"/>
      <point x="193" y="0" type="line"/>
      <point x="212" y="0" type="line"/>
      <point x="212" y="710" type="line"/>
      <point x="195" y="710" type="line"/>
    </contour>
    <contour>
      <point x="70" y="240" type="line"/>
      <point x="193" y="645" type="line"/>
      <point x="193" y="240" type="line"/>
    </contour>
  </outline>
</glyph>
<glyph name="C" format="2">
  <advance width="239"/>
  <unicode hex="0043"/>
  <anchor x="137" y="0" name="bottom"/>
  <anchor x="230" y="700" name="top"/>
  <outline>
    <contour>
      <point x="137" y="-10" type="curve" smooth="yes"/>
      <point x="160" y="-10"/>
      <point x="178" y="-7"/>
      <point x="191" y="-2" type="curve"/>
      <point x="186" y="15" type="line"/>
      <point x="173" y="11"/>
      <point x="157" y="9"/>
      <point x="138" y="9" type="curve" smooth="yes"/>
      <point x="74" y="9"/>
      <point x="46" y="56"/>
      <point x="46" y="167" type="curve" smooth="yes"/>
      <point x="46" y="459"/>
      <point x="126" y="691"/>
      <point x="230" y="691" type="curve" smooth="yes"/>
      <point x="246" y="691"/>
      <point x="262" y="688"/>
      <point x="282" y="682" type="curve"/>
      <point x="289" y="700" type="line"/>
      <point x="275" y="707"/>
      <point x="255" y="710"/>
      <point x="233" y="710" type="curve" smooth="yes"/>
      <point x="113" y="710"/>
      <point x="27" y="482"/>
      <point x="27" y="166" type="curve" smooth="yes"/>
      <point x="27" y="42"/>
      <point x="58" y="-10"/>
    </contour>
  </outline>
</glyph>
<glyph name="D" format="2">
  <advance width="284"/>
  <unicode hex="0044"/>
  <anchor x="84" y="0" name="bottom"/>
  <anchor x="152" y="350" name="center"/>
  <anchor x="182" y="700" name="top"/>
  <outline>
    <contour>
      <point x="54" y="-10" type="curve" smooth="yes"/>
      <point x="188" y="-10"/>
      <point x="276" y="204"/>
      <point x="276" y="477" type="curve" smooth="yes"/>
      <point x="276" y="639"/>
      <point x="246" y="710"/>
      <point x="159" y="710" type="curve" smooth="yes"/>
      <point x="143" y="710"/>
      <point x="130" y="709"/>
      <point x="110" y="707" type="curve"/>
      <point x="-2" y="-6" type="line"/>
      <point x="17" y="-9"/>
      <point x="31" y="-10"/>
    </contour>
    <contour>
      <point x="56" y="7" type="curve" smooth="yes"/>
      <point x="43" y="7"/>
      <point x="33" y="8"/>
      <point x="19" y="10" type="curve"/>
      <point x="127" y="690" type="line"/>
      <point x="140" y="691"/>
      <point x="149" y="691"/>
      <point x="159" y="691" type="curve" smooth="yes"/>
      <point x="228" y="691"/>
      <point x="257" y="632"/>
      <point x="257" y="475" type="curve" smooth="yes"/>
      <point x="257" y="215"/>
      <point x="171" y="7"/>
    </contour>
  </outline>
</glyph>
<glyph name="E" format="2">
  <advance width="229"/>
  <unicode hex="0045"/>
  <anchor x="90" y="0" name="bottom"/>
  <anchor x="174" y="0" name="ogonek"/>
  <anchor x="195" y="700" name="top"/>
  <anchor x="85" y="700" name="topleft"/>
  <outline>
    <contour>
      <point x="-1" y="0" type="line"/>
      <point x="174" y="0" type="line"/>
      <point x="177" y="19" type="line"/>
      <point x="21" y="19" type="line"/>
      <point x="74" y="354" type="line"/>
      <point x="207" y="354" type="line"/>
      <point x="210" y="373" type="line"/>
      <point x="77" y="373" type="line"/>
      <point x="125" y="681" type="line"/>
      <point x="272" y="681" type="line"/>
      <point x="276" y="700" type="line"/>
      <point x="109" y="700" type="line"/>
    </contour>
  </outline>
</glyph>
<glyph name="F" format="2">
  <advance width="213"/>
  <unicode hex="0046"/>
  <outline>
    <contour>
      <point x="-1" y="0" type="line"/>
      <point x="17" y="0" type="line"/>
      <point x="73" y="350" type="line"/>
      <point x="188" y="350" type="line"/>
      <point x="191" y="369" type="line"/>
      <point x="76" y="369" type="line"/>
      <point x="125" y="681" type="line"/>
      <point x="273" y="681" type="line"/>
      <point x="276" y="700" type="line"/>
      <point x="109" y="700" type="line"/>
    </contour>
  </outline>
</glyph>
<glyph name="H" format="2">
  <advance width="295"/>
  <unicode hex="0048"/>
  <anchor x="104" y="0" name="bottom"/>
  <anchor x="160" y="350" name="center"/>
  <anchor x="215" y="700" name="top"/>
  <anchor x="85" y="700" name="topleft"/>
  <outline>
    <contour>
      <point x="-1" y="0" type="line"/>
      <point x="19" y="0" type="line"/>
      <point x="65" y="291" type="line"/>
      <point x="236" y="291" type="line"/>
      <point x="190" y="0" type="line"/>
      <point x="209" y="0" type="line"/>
      <point x="320" y="700" type="line"/>
      <point x="301" y="700" type="line"/>
      <point x="239" y="310" type="line"/>
      <point x="67" y="310" type="line"/>
      <point x="129" y="700" type="line"/>
      <point x="109" y="700" type="line"/>
    </contour>
  </outline>
</glyph>
<glyph name="I" format="2">
  <advance width="104"/>
  <unicode hex="0049"/>
  <anchor x="8" y="0" name="bottom"/>
  <anchor x="18" y="0" name="ogonek"/>
  <anchor x="119" y="700" name="top"/>
  <anchor x="85" y="700" name="topleft"/>
  <outline>
    <contour>
      <point x="-1" y="0" type="line"/>
      <point x="18" y="0" type="line"/>
      <point x="129" y="700" type="line"/>
      <point x="109" y="700" type="line"/>
    </contour>
  </outline>
</glyph>
<glyph name="J" format="2">
  <advance width="195"/>
  <unicode hex="004A"/>
  <anchor x="5" y="0" name="bottom"/>
  <anchor x="157" y="700" name="top"/>
  <outline>
    <contour>
      <point x="-39" y="-3" type="line"/>
      <point x="-21" y="-8"/>
      <point x="-6" y="-10"/>
      <point x="8" y="-10" type="curve" smooth="yes"/>
      <point x="95" y="-10"/>
      <point x="119" y="43"/>
      <point x="129" y="108" type="curve" smooth="yes"/>
      <point x="223" y="700" type="line"/>
      <point x="81" y="700" type="line"/>
      <point x="78" y="681" type="line"/>
      <point x="201" y="681" type="line"/>
      <point x="109" y="105" type="line" smooth="yes"/>
      <point x="98" y="37"/>
      <point x="65" y="9"/>
      <point x="10" y="9" type="curve" smooth="yes"/>
      <point x="-4" y="9"/>
      <point x="-19" y="12"/>
      <point x="-34" y="17" type="curve"/>
    </contour>
  </outline>
</glyph>
<glyph name="K" format="2">
  <advance width="246"/>
  <unicode hex="004B"/>
  <anchor x="95" y="0" name="bottom"/>
  <anchor x="185" y="700" name="top"/>
  <outline>
    <contour>
      <point x="-1" y="0" type="line"/>
      <point x="18" y="0" type="line"/>
      <point x="129" y="700" type="line"/>
      <point x="109" y="700" type="line"/>
    </contour>
    <contour>
      <point x="195" y="-9" type="curve" smooth="yes"/>
      <point x="200" y="-9"/>
      <point x="205" y="-8"/>
      <point x="211" y="-5" type="curve"/>
      <point x="207" y="13" type="line"/>
      <point x="205" y="12"/>
      <point x="202" y="11"/>
      <point x="198" y="11" type="curve" smooth="yes"/>
      <point x="187" y="11"/>
      <point x="182" y="19"/>
      <point x="163" y="88" type="curve" smooth="yes"/>
      <point x="73" y="415" type="line"/>
      <point x="68" y="368" type="line"/>
      <point x="145" y="84" type="line" smooth="yes"/>
      <point x="168" y="-1"/>
      <point x="176" y="-9"/>
    </contour>
    <contour>
      <point x="94" y="295" type="line"/>
      <point x="141" y="362"/>
      <point x="232" y="511"/>
      <point x="291" y="704" type="curve"/>
      <point x="273" y="710" type="line"/>
      <point x="214" y="518"/>
      <point x="134" y="385"/>
      <point x="89" y="319" type="curve"/>
    </contour>
  </outline>
</glyph>
<glyph name="M" format="2">
  <advance width="310"/>
  <unicode hex="004D"/>
  <outline>
    <contour>
      <point x="-1" y="0" type="line"/>
      <point x="18" y="0" type="line"/>
      <point x="120" y="651" type="line"/>
      <point x="144" y="277" type="line"/>
      <point x="166" y="277" type="line"/>
      <point x="309" y="653" type="line"/>
      <point x="205" y="0" type="line"/>
      <point x="224" y="0" type="line"/>
      <point x="335" y="700" type="line"/>
      <point x="309" y="700" type="line"/>
      <point x="159" y="302" type="line"/>
      <point x="135" y="700" type="line"/>
      <point x="109" y="700" type="line"/>
    </contour>
  </outline>
</glyph>
<glyph name="R" format="2">
  <advance width="248"/>
  <unicode hex="0052"/>
  <anchor x="98" y="0" name="bottom"/>
  <anchor x="182" y="700" name="top"/>
  <outline>
    <contour>
      <point x="-1" y="0" type="line"/>
      <point x="18" y="0" type="line"/>
      <point x="66" y="305" type="line"/>
      <point x="73" y="305"/>
      <point x="85" y="304"/>
      <point x="101" y="304" type="curve"/>
      <point x="101" y="304" type="line"/>
      <point x="200" y="304"/>
      <point x="269" y="416"/>
      <point x="269" y="582" type="curve" smooth="yes"/>
      <point x="269" y="673"/>
      <point x="238" y="710"/>
      <point x="173" y="710" type="curve" smooth="yes"/>
      <point x="155" y="710"/>
      <point x="133" y="708"/>
      <point x="110" y="704" type="curve"/>
    </contour>
    <contour>
      <point x="191" y="-10" type="curve" smooth="yes"/>
      <point x="198" y="-10"/>
      <point x="205" y="-7"/>
      <point x="208" y="-5" type="curve"/>
      <point x="204" y="11" type="line"/>
      <point x="199" y="9"/>
      <point x="197" y="9"/>
      <point x="195" y="9" type="curve" smooth="yes"/>
      <point x="180" y="10"/>
      <point x="182" y="25"/>
      <point x="140" y="323" type="curve"/>
      <point x="121" y="318" type="line"/>
      <point x="169" y="5"/>
      <point x="158" y="-10"/>
    </contour>
    <contour>
      <point x="109" y="324" type="curve" smooth="yes"/>
      <point x="94" y="324"/>
      <point x="82" y="324"/>
      <point x="70" y="325" type="curve"/>
      <point x="127" y="688" type="line"/>
      <point x="144" y="691"/>
      <point x="158" y="692"/>
      <point x="171" y="692" type="curve" smooth="yes"/>
      <point x="229" y="692"/>
      <point x="250" y="656"/>
      <point x="250" y="585" type="curve" smooth="yes"/>
      <point x="250" y="436"/>
      <point x="189" y="324"/>
    </contour>
  </outline>
</glyph>
<glyph name="T" format="2">
  <advance width="222"/>
  <unicode hex="0054"/>
  <anchor x="67" y="0" name="bottom"/>
  <anchor x="123" y="350" name="center"/>
  <anchor x="178" y="700" name="top"/>
  <outline>
    <contour>
      <point x="281" y="681" type="line"/>
      <point x="284" y="700" type="line"/>
      <point x="72" y="700" type="line"/>
      <point x="69" y="681" type="line"/>
      <point x="165" y="681" type="line"/>
      <point x="57" y="0" type="line"/>
      <point x="76" y="0" type="line"/>
      <point x="184" y="681" type="line"/>
    </contour>
  </outline>
</glyph>
<glyph name="U" format="2">
  <advance width="288"/>
  <unicode hex="0055"/>
  <anchor x="100" y="0" name="bottom"/>
  <anchor x="129" y="0" name="ogonek"/>
  <anchor x="209" y="700" name="top"/>
  <anchor x="316" y="700" name="topright"/>
  <outline>
    <contour>
      <point x="98" y="-10" type="curve" smooth="yes"/>
      <point x="169" y="-10"/>
      <point x="210" y="36"/>
      <point x="226" y="136" type="curve" smooth="yes"/>
      <point x="316" y="700" type="line"/>
      <point x="296" y="700" type="line"/>
      <point x="206" y="136" type="line" smooth="yes"/>
      <point x="193" y="52"/>
      <point x="160" y="9"/>
      <point x="103" y="9" type="curve" smooth="yes"/>
      <point x="49" y="9"/>
      <point x="23" y="49"/>
      <point x="34" y="116" type="curve" smooth="yes"/>
      <point x="125" y="700" type="line"/>
      <point x="106" y="700" type="line"/>
      <point x="14" y="111" type="line" smooth="yes"/>
      <point x="12" y="100"/>
      <point x="12" y="98"/>
      <point x="12" y="83" type="curve" smooth="yes"/>
      <point x="12" y="24"/>
      <point x="44" y="-10"/>
    </contour>
  </outline>
</glyph>
<glyph name="W" format="2">
  <advance width="429"/>
  <unicode hex="0057"/>
  <anchor x="168" y="0" name="bottom"/>
  <anchor x="289" y="700" name="top"/>
  <outline>
    <contour>
      <point x="263" y="-1" type="line"/>
      <point x="438" y="486"/>
      <point x="468" y="600"/>
      <point x="468" y="662" type="curve" smooth="yes"/>
      <point x="468" y="676"/>
      <point x="467" y="686"/>
      <point x="464" y="700" type="curve"/>
      <point x="445" y="700" type="line"/>
      <point x="447" y="687"/>
      <point x="449" y="677"/>
      <point x="449" y="665" type="curve" smooth="yes"/>
      <point x="449" y="601"/>
      <point x="427" y="510"/>
      <point x="265" y="51" type="curve"/>
      <point x="290" y="629" type="line"/>
      <point x="264" y="629" type="line"/>
      <point x="204" y="439"/>
      <point x="144" y="250"/>
      <point x="84" y="60" type="curve"/>
      <point x="96" y="700" type="line"/>
      <point x="77" y="700" type="line"/>
      <point x="65" y="-1" type="line"/>
      <point x="83" y="-1" type="line"/>
      <point x="146" y="199"/>
      <point x="209" y="395"/>
      <point x="272" y="595" type="curve"/>
      <point x="244" y="-1" type="line"/>
    </contour>
  </outline>
</glyph>
<glyph name="Y" format="2">
  <advance width="243"/>
  <unicode hex="0059"/>
  <anchor x="76" y="0" name="bottom"/>
  <anchor x="186" y="700" name="top"/>
  <anchor x="93" y="700" name="topleft"/>
  <outline>
    <contour>
      <point x="66" y="0" type="line"/>
      <point x="85" y="0" type="line"/>
      <point x="136" y="315" type="line"/>
      <point x="198" y="407"/>
      <point x="261" y="522"/>
      <point x="287" y="656" type="curve" smooth="yes"/>
      <point x="290" y="671"/>
      <point x="292" y="686"/>
      <point x="294" y="701" type="curve"/>
      <point x="276" y="705" type="line"/>
      <point x="274" y="691"/>
      <point x="272" y="677"/>
      <point x="269" y="663" type="curve" smooth="yes"/>
      <point x="244" y="536"/>
      <point x="193" y="433"/>
      <point x="131" y="344" type="curve"/>
      <point x="93" y="704" type="line"/>
      <point x="75" y="701" type="line"/>
      <point x="115" y="315" type="line"/>
    </contour>
  </outline>
</glyph>
<glyph name="Z" format="2">
  <advance width="233"/>
  <unicode hex="005A"/>
  <anchor x="76" y="0" name="bottom"/>
  <anchor x="125" y="350" name="center"/>
  <anchor x="186" y="700" name="top"/>
  <outline>
    <contour>
      <point x="-31" y="0" type="line"/>
      <point x="183" y="0" type="line"/>
      <point x="186" y="19" type="line"/>
      <point x="-6" y="19" type="line"/>
      <point x="279" y="685" type="line"/>
      <point x="281" y="700" type="line"/>
      <point x="98" y="700" type="line"/>
      <point x="95" y="681" type="line"/>
      <point x="257" y="681" type="line"/>
      <point x="-28" y="15" type="line"/>
    </contour>
  </outline>
</glyph>
<glyph name="bracketleft" format="2">
  <advance width="162"/>
  <unicode hex="005B"/>
  <outline>
    <contour>
      <point x="-4" y="-192" type="line"/>
      <point x="141" y="722" type="line"/>
      <point x="226" y="722" type="line"/>
      <point x="229" y="740" type="line"/>
      <point x="124" y="740" type="line"/>
      <point x="-26" y="-210" type="line"/>
      <point x="78" y="-210" type="line"/>
      <point x="81" y="-192" type="line"/>
    </contour>
  </outline>
</glyph>
<glyph name="backslash" format="2">
  <advance width="277"/>
  <unicode hex="005C"/>
  <outline>
    <contour>
      <point x="92" y="740" type="line"/>
      <point x="74" y="740" type="line"/>
      <point x="222" y="-210" type="line"/>
      <point x="240" y="-210" type="line"/>
    </contour>
  </outline>
</glyph>
<glyph name="a" format="2">
  <advance width="252"/>
  <unicode hex="0061"/>
  <note>
15
</note>
  <anchor x="89" y="0" name="bottom"/>
  <anchor x="225" y="0" name="ogonek"/>
  <anchor x="180" y="530" name="top"/>
  <outline>
    <contour>
      <point x="185.0" y="-10.0" type="curve" smooth="yes"/>
      <point x="199.0" y="-10.0"/>
      <point x="213.0" y="-6.0"/>
      <point x="225.0" y="0.0" type="curve"/>
      <point x="220.0" y="14.0" type="line"/>
      <point x="208.0" y="9.0"/>
      <point x="199.0" y="6.0"/>
      <point x="189.0" y="6.0" type="curve" smooth="yes"/>
      <point x="174.0" y="6.0"/>
      <point x="168.0" y="14.0"/>
      <point x="168.0" y="30.0" type="curve" smooth="yes"/>
      <point x="168.0" y="38.0"/>
      <point x="172.0" y="67.0"/>
      <point x="245.0" y="524.0" type="curve"/>
      <point x="230.0" y="534.0"/>
      <point x="211.0" y="540.0"/>
      <point x="192.0" y="540.0" type="curve" smooth="yes"/>
      <point x="85.0" y="540.0"/>
      <point x="17.0" y="369.0"/>
      <point x="17.0" y="135.0" type="curve" smooth="yes"/>
      <point x="17.0" y="38.0"/>
      <point x="42.0" y="-10.0"/>
      <point x="93.0" y="-10.0" type="curve" smooth="yes"/>
      <point x="118.0" y="-10.0"/>
      <point x="136.0" y="0.0"/>
      <point x="151.0" y="12.0" type="curve"/>
      <point x="155.0" y="0.0"/>
      <point x="168.0" y="-10.0"/>
    </contour>
    <contour>
      <point x="148.0" y="28.0" type="line"/>
      <point x="133.0" y="16.0"/>
      <point x="112.0" y="8.0"/>
      <point x="92.0" y="8.0" type="curve" smooth="yes"/>
      <point x="56.0" y="8.0"/>
      <point x="36.0" y="52.0"/>
      <point x="36.0" y="137.0" type="curve" smooth="yes"/>
      <point x="36.0" y="374.0"/>
      <point x="105.0" y="523.0"/>
      <point x="191.0" y="523.0" type="curve" smooth="yes"/>
      <point x="205.0" y="523.0"/>
      <point x="215.0" y="520.0"/>
      <point x="224.0" y="514.0" type="curve"/>
    </contour>
  </outline>
</glyph>
<glyph name="c" format="2">
  <advance width="187"/>
  <unicode hex="0063"/>
  <note>
10
</note>
  <anchor x="95" y="0" name="bottom"/>
  <anchor x="175" y="530" name="top"/>
  <outline>
    <contour>
      <point x="93" y="-10" type="curve" smooth="yes"/>
      <point x="112" y="-10"/>
      <point x="129" y="-7"/>
      <point x="143" y="-2" type="curve"/>
      <point x="140" y="14" type="line"/>
      <point x="129" y="10"/>
      <point x="110" y="7"/>
      <point x="97" y="7" type="curve" smooth="yes"/>
      <point x="53" y="7"/>
      <point x="33" y="41"/>
      <point x="33" y="119" type="curve" smooth="yes"/>
      <point x="33" y="323"/>
      <point x="100" y="521"/>
      <point x="177" y="521" type="curve" smooth="yes"/>
      <point x="192" y="521"/>
      <point x="200" y="520"/>
      <point x="213" y="515" type="curve"/>
      <point x="220" y="533" type="line"/>
      <point x="203" y="538"/>
      <point x="193" y="540"/>
      <point x="180" y="540" type="curve" smooth="yes"/>
      <point x="88" y="540"/>
      <point x="15" y="342"/>
      <point x="15" y="115" type="curve" smooth="yes"/>
      <point x="15" y="33"/>
      <point x="42" y="-10"/>
    </contour>
  </outline>
</glyph>
<glyph name="d" format="2">
  <advance width="251"/>
  <unicode hex="0064"/>
  <note>
17
</note>
  <anchor x="80" y="0" name="bottom"/>
  <anchor x="134" y="370" name="center"/>
  <anchor x="189" y="740" name="top"/>
  <anchor x="343" y="740" name="topright"/>
  <outline>
    <contour>
      <point x="183" y="-10" type="curve" smooth="yes"/>
      <point x="195" y="-10"/>
      <point x="209" y="-7"/>
      <point x="223" y="0" type="curve"/>
      <point x="218" y="14" type="line"/>
      <point x="208" y="10"/>
      <point x="197" y="6"/>
      <point x="186" y="6" type="curve" smooth="yes"/>
      <point x="173" y="6"/>
      <point x="166" y="13"/>
      <point x="166" y="30" type="curve" smooth="yes"/>
      <point x="166" y="38"/>
      <point x="175" y="89"/>
      <point x="278" y="740" type="curve"/>
      <point x="259" y="740" type="line"/>
      <point x="226" y="532" type="line"/>
      <point x="210" y="537"/>
      <point x="197" y="540"/>
      <point x="182" y="540" type="curve" smooth="yes"/>
      <point x="77" y="540"/>
      <point x="15" y="346"/>
      <point x="15" y="116" type="curve" smooth="yes"/>
      <point x="15" y="32"/>
      <point x="40" y="-10"/>
      <point x="90" y="-10" type="curve" smooth="yes"/>
      <point x="113" y="-10"/>
      <point x="135" y="2"/>
      <point x="149" y="16" type="curve"/>
      <point x="154" y="-1"/>
      <point x="165" y="-10"/>
    </contour>
    <contour>
      <point x="90" y="9" type="curve" smooth="yes"/>
      <point x="53" y="9"/>
      <point x="33" y="49"/>
      <point x="33" y="112" type="curve" smooth="yes"/>
      <point x="33" y="327"/>
      <point x="91" y="523"/>
      <point x="185" y="523" type="curve" smooth="yes"/>
      <point x="198" y="523"/>
      <point x="208" y="520"/>
      <point x="223" y="515" type="curve"/>
      <point x="147" y="31" type="line"/>
      <point x="132" y="17"/>
      <point x="114" y="9"/>
    </contour>
  </outline>
</glyph>
<glyph name="f" format="2">
  <advance width="160"/>
  <unicode hex="0066"/>
  <outline>
    <contour>
      <point x="-79" y="-220" type="curve" smooth="yes"/>
      <point x="-17" y="-220"/>
      <point x="14" y="-167"/>
      <point x="29" y="-71" type="curve" smooth="yes"/>
      <point x="114" y="465" type="line"/>
      <point x="196" y="465" type="line"/>
      <point x="199" y="484" type="line"/>
      <point x="117" y="484" type="line"/>
      <point x="145" y="662"/>
      <point x="179" y="731"/>
      <point x="241" y="731" type="curve" smooth="yes"/>
      <point x="254" y="731"/>
      <point x="269" y="728"/>
      <point x="281" y="725" type="curve"/>
      <point x="288" y="743" type="line"/>
      <point x="272" y="748"/>
      <point x="258" y="750"/>
      <point x="246" y="750" type="curve" smooth="yes"/>
      <point x="169" y="750"/>
      <point x="128" y="677"/>
      <point x="98" y="484" type="curve"/>
      <point x="40" y="478" type="line"/>
      <point x="38" y="465" type="line"/>
      <point x="95" y="465" type="line"/>
      <point x="11" y="-66" type="line" smooth="yes"/>
      <point x="-2" y="-148"/>
      <point x="-24" y="-203"/>
      <point x="-82" y="-203" type="curve" smooth="yes"/>
      <point x="-96" y="-203"/>
      <point x="-107" y="-201"/>
      <point x="-123" y="-196" type="curve"/>
      <point x="-127" y="-213" type="line"/>
      <point x="-113" y="-218"/>
      <point x="-98" y="-220"/>
    </contour>
  </outline>
</glyph>
<glyph name="g" format="2">
  <advance width="251"/>
  <unicode hex="0067"/>
  <note>
16
</note>
  <anchor x="43" y="-210" name="bottom"/>
  <anchor x="176" y="530" name="top"/>
  <outline>
    <contour>
      <point x="-7" y="-213" type="line"/>
      <point x="7" y="-218"/>
      <point x="24" y="-220"/>
      <point x="43" y="-220" type="curve" smooth="yes"/>
      <point x="101" y="-220"/>
      <point x="133" y="-175"/>
      <point x="149" y="-71" type="curve" smooth="yes"/>
      <point x="245" y="525" type="line"/>
      <point x="227" y="534"/>
      <point x="210" y="540"/>
      <point x="193" y="540" type="curve" smooth="yes"/>
      <point x="75" y="540"/>
      <point x="16" y="332"/>
      <point x="16" y="136" type="curve" smooth="yes"/>
      <point x="16" y="43"/>
      <point x="41" y="-10"/>
      <point x="88" y="-10" type="curve" smooth="yes"/>
      <point x="107" y="-10"/>
      <point x="126" y="-4"/>
      <point x="144" y="10" type="curve"/>
      <point x="132" y="-68" type="line" smooth="yes"/>
      <point x="116" y="-167"/>
      <point x="91" y="-203"/>
      <point x="41" y="-203" type="curve" smooth="yes"/>
      <point x="26" y="-203"/>
      <point x="13" y="-201"/>
      <point x="-3" y="-196" type="curve"/>
    </contour>
    <contour>
      <point x="224" y="515" type="curve"/>
      <point x="147" y="30" type="line"/>
      <point x="134" y="17"/>
      <point x="109" y="8"/>
      <point x="91" y="8" type="curve" smooth="yes"/>
      <point x="55" y="8"/>
      <point x="35" y="54"/>
      <point x="35" y="143" type="curve" smooth="yes"/>
      <point x="35" y="335"/>
      <point x="99" y="523"/>
      <point x="192" y="523" type="curve" smooth="yes"/>
      <point x="200" y="523"/>
      <point x="212" y="520"/>
    </contour>
  </outline>
</glyph>
<glyph name="h" format="2">
  <advance width="260"/>
  <unicode hex="0068"/>
  <note>
16
</note>
  <anchor x="90" y="0" name="bottom"/>
  <anchor x="146" y="370" name="center"/>
  <anchor x="208" y="740" name="top"/>
  <outline>
    <contour>
      <point x="176" y="31" type="curve" smooth="yes"/>
      <point x="176" y="62"/>
      <point x="242" y="445"/>
      <point x="242" y="471" type="curve" smooth="yes"/>
      <point x="242" y="510"/>
      <point x="226" y="540"/>
      <point x="182" y="540" type="curve" smooth="yes"/>
      <point x="157" y="540"/>
      <point x="126" y="530"/>
      <point x="105" y="517" type="curve"/>
      <point x="140" y="740" type="line"/>
      <point x="121" y="740" type="line"/>
      <point x="4" y="0" type="line"/>
      <point x="23" y="0" type="line"/>
      <point x="101" y="496" type="line"/>
      <point x="121" y="511"/>
      <point x="155" y="522"/>
      <point x="174" y="522" type="curve" smooth="yes"/>
      <point x="213" y="522"/>
      <point x="222" y="498"/>
      <point x="222" y="468" type="curve" smooth="yes"/>
      <point x="222" y="444"/>
      <point x="158" y="65"/>
      <point x="158" y="28" type="curve" smooth="yes"/>
      <point x="158" y="3"/>
      <point x="176" y="-10"/>
      <point x="196" y="-10" type="curve" smooth="yes"/>
      <point x="206" y="-10"/>
      <point x="216" y="-9"/>
      <point x="230" y="-2" type="curve"/>
      <point x="226" y="13" type="line"/>
      <point x="214" y="8"/>
      <point x="207" y="7"/>
      <point x="201" y="7" type="curve" smooth="yes"/>
      <point x="182" y="7"/>
      <point x="176" y="16"/>
    </contour>
  </outline>
</glyph>
<glyph name="l" format="2">
  <advance width="121"/>
  <unicode hex="006C"/>
  <anchor x="53" y="0" name="bottom"/>
  <anchor x="72" y="370" name="center"/>
  <anchor x="130" y="740" name="top"/>
  <anchor x="205" y="740" name="topright"/>
  <outline>
    <contour>
      <point x="121" y="740" type="line"/>
      <point x="12" y="52" type="line" smooth="yes"/>
      <point x="11" y="44"/>
      <point x="10" y="36"/>
      <point x="10" y="29" type="curve" smooth="yes"/>
      <point x="10" y="4"/>
      <point x="21" y="-10"/>
      <point x="51" y="-10" type="curve" smooth="yes"/>
      <point x="63" y="-10"/>
      <point x="79" y="-7"/>
      <point x="92" y="-2" type="curve"/>
      <point x="88" y="13" type="line"/>
      <point x="73" y="8"/>
      <point x="62" y="6"/>
      <point x="54" y="6" type="curve" smooth="yes"/>
      <point x="34" y="6"/>
      <point x="28" y="13"/>
      <point x="28" y="25" type="curve" smooth="yes"/>
      <point x="28" y="36"/>
      <point x="31" y="50"/>
      <point x="35" y="76" type="curve" smooth="yes"/>
      <point x="140" y="740" type="line"/>
    </contour>
  </outline>
</glyph>
<glyph name="m" format="2">
  <advance width="390"/>
  <unicode hex="006D"/>
  <note>
24&gt;23 points
un point de trop dans la jointure avec 2e jambage
</note>
  <outline>
    <contour>
      <point x="326" y="-10" type="curve" smooth="yes"/>
      <point x="336" y="-10"/>
      <point x="346" y="-9"/>
      <point x="360" y="-2" type="curve"/>
      <point x="356" y="13" type="line"/>
      <point x="344" y="8"/>
      <point x="337" y="7"/>
      <point x="331" y="7" type="curve" smooth="yes"/>
      <point x="312" y="7"/>
      <point x="305" y="16"/>
      <point x="305" y="31" type="curve" smooth="yes"/>
      <point x="305" y="62"/>
      <point x="371" y="445"/>
      <point x="371" y="471" type="curve" smooth="yes"/>
      <point x="371" y="510"/>
      <point x="356" y="540"/>
      <point x="312" y="540" type="curve" smooth="yes"/>
      <point x="291" y="540"/>
      <point x="258" y="532"/>
      <point x="227" y="509" type="curve"/>
      <point x="217" y="528"/>
      <point x="197" y="540"/>
      <point x="173" y="540" type="curve" smooth="yes"/>
      <point x="151" y="540"/>
      <point x="125" y="529"/>
      <point x="103" y="516" type="curve"/>
      <point x="106" y="530" type="line"/>
      <point x="87" y="530" type="line"/>
      <point x="3" y="0" type="line"/>
      <point x="22" y="0" type="line"/>
      <point x="100" y="497" type="line"/>
      <point x="120" y="512"/>
      <point x="147" y="522"/>
      <point x="170" y="522" type="curve" smooth="yes"/>
      <point x="201" y="522"/>
      <point x="215" y="501"/>
      <point x="215" y="472" type="curve" smooth="yes"/>
      <point x="215" y="438"/>
      <point x="142" y="0"/>
      <point x="142" y="0" type="curve"/>
      <point x="162" y="0" type="line"/>
      <point x="162" y="0"/>
      <point x="235" y="448"/>
      <point x="235" y="480" type="curve" smooth="yes"/>
      <point x="235" y="485"/>
      <point x="234" y="490"/>
      <point x="233" y="494" type="curve"/>
      <point x="253" y="509"/>
      <point x="281" y="522"/>
      <point x="308" y="522" type="curve" smooth="yes"/>
      <point x="341" y="522"/>
      <point x="351" y="498"/>
      <point x="351" y="468" type="curve" smooth="yes"/>
      <point x="351" y="441"/>
      <point x="287" y="65"/>
      <point x="287" y="28" type="curve" smooth="yes"/>
      <point x="287" y="3"/>
      <point x="306" y="-10"/>
    </contour>
  </outline>
</glyph>
<glyph name="o" format="2">
  <advance width="249"/>
  <unicode hex="006F"/>
  <note>
8
</note>
  <anchor x="83" y="0" name="bottom"/>
  <anchor x="125" y="265" name="center"/>
  <anchor x="117" y="2" name="ogonek"/>
  <anchor x="169" y="530" name="top"/>
  <anchor x="216" y="520" name="topright"/>
  <outline>
    <contour>
      <point x="85" y="-10" type="curve" smooth="yes"/>
      <point x="197" y="-10"/>
      <point x="233" y="317"/>
      <point x="233" y="433" type="curve" smooth="yes"/>
      <point x="233" y="523"/>
      <point x="208" y="539"/>
      <point x="161" y="539" type="curve" smooth="yes"/>
      <point x="49" y="539"/>
      <point x="13" y="212"/>
      <point x="13" y="96" type="curve" smooth="yes"/>
      <point x="13" y="6"/>
      <point x="38" y="-10"/>
    </contour>
    <contour>
      <point x="85" y="7" type="curve" smooth="yes"/>
      <point x="52" y="7"/>
      <point x="31" y="20"/>
      <point x="31" y="94" type="curve" smooth="yes"/>
      <point x="31" y="188"/>
      <point x="68" y="522"/>
      <point x="161" y="522" type="curve" smooth="yes"/>
      <point x="194" y="522"/>
      <point x="215" y="509"/>
      <point x="215" y="435" type="curve" smooth="yes"/>
      <point x="215" y="341"/>
      <point x="178" y="7"/>
    </contour>
  </outline>
</glyph>
<glyph name="q" format="2">
  <advance width="250"/>
  <unicode hex="0071"/>
  <note>
12
</note>
  <outline>
    <contour>
      <point x="244" y="526" type="line"/>
      <point x="224" y="534"/>
      <point x="204" y="540"/>
      <point x="184" y="540" type="curve" smooth="yes"/>
      <point x="45" y="540"/>
      <point x="15" y="248"/>
      <point x="15" y="116" type="curve" smooth="yes"/>
      <point x="15" y="25"/>
      <point x="47" y="-10"/>
      <point x="87" y="-10" type="curve" smooth="yes"/>
      <point x="112" y="-10"/>
      <point x="129" y="0"/>
      <point x="143" y="10" type="curve"/>
      <point x="106" y="-210" type="line"/>
      <point x="127" y="-210" type="line"/>
    </contour>
    <contour>
      <point x="223" y="515" type="curve"/>
      <point x="146" y="30" type="line"/>
      <point x="131" y="16"/>
      <point x="108" y="8"/>
      <point x="90" y="8" type="curve" smooth="yes"/>
      <point x="50" y="8"/>
      <point x="32" y="57"/>
      <point x="32" y="110" type="curve" smooth="yes"/>
      <point x="32" y="281"/>
      <point x="76" y="523"/>
      <point x="185" y="523" type="curve" smooth="yes"/>
      <point x="195" y="523"/>
      <point x="209" y="520"/>
    </contour>
  </outline>
</glyph>
<glyph name="s" format="2">
  <advance width="209"/>
  <unicode hex="0073"/>
  <anchor x="52" y="0" name="bottom"/>
  <anchor x="160" y="530" name="top"/>
  <outline>
    <contour>
      <point x="-16" y="5" type="line"/>
      <point x="2" y="-5"/>
      <point x="26" y="-10"/>
      <point x="50" y="-10" type="curve" smooth="yes"/>
      <point x="137" y="-10"/>
      <point x="172" y="76"/>
      <point x="172" y="140" type="curve" smooth="yes"/>
      <point x="172" y="244"/>
      <point x="76" y="307"/>
      <point x="76" y="401" type="curve" smooth="yes"/>
      <point x="76" y="460"/>
      <point x="109" y="521"/>
      <point x="166" y="521" type="curve" smooth="yes"/>
      <point x="187" y="521"/>
      <point x="203" y="514"/>
      <point x="217" y="507" type="curve"/>
      <point x="226" y="524" type="line"/>
      <point x="213" y="533"/>
      <point x="191" y="540"/>
      <point x="169" y="540" type="curve" smooth="yes"/>
      <point x="91" y="540"/>
      <point x="57" y="463"/>
      <point x="57" y="403" type="curve" smooth="yes"/>
      <point x="57" y="291"/>
      <point x="152" y="241"/>
      <point x="152" y="139" type="curve" smooth="yes"/>
      <point x="152" y="75"/>
      <point x="116" y="9"/>
      <point x="53" y="9" type="curve" smooth="yes"/>
      <point x="32" y="9"/>
      <point x="12" y="13"/>
      <point x="-7" y="23" type="curve"/>
    </contour>
  </outline>
</glyph>
<glyph name="v" format="2">
  <advance width="226"/>
  <unicode hex="0076"/>
  <outline>
    <contour>
      <point x="82" y="-4" type="line"/>
      <point x="194" y="350"/>
      <point x="238" y="422"/>
      <point x="238" y="530" type="curve"/>
      <point x="219" y="530" type="line"/>
      <point x="216" y="428"/>
      <point x="196" y="397"/>
      <point x="76" y="32" type="curve"/>
      <point x="75" y="530" type="line"/>
      <point x="56" y="530" type="line"/>
      <point x="60" y="-4" type="line"/>
    </contour>
  </outline>
</glyph>
<glyph name="y" format="2">
  <advance width="224"/>
  <unicode hex="0079"/>
  <anchor x="53" y="-210" name="bottom"/>
  <anchor x="141" y="530" name="top"/>
  <outline>
    <contour>
      <point x="221" y="540" type="line"/>
      <point x="189" y="322"/>
      <point x="139" y="168"/>
      <point x="88" y="26" type="curve"/>
      <point x="65" y="540" type="line"/>
      <point x="46" y="538" type="line"/>
      <point x="71" y="0" type="line"/>
      <point x="76" y="0" type="line"/>
      <point x="47" y="-78"/>
      <point x="16" y="-148"/>
      <point x="-14" y="-210" type="curve"/>
      <point x="3" y="-220" type="line"/>
      <point x="107" y="-3"/>
      <point x="199" y="270"/>
      <point x="239" y="536" type="curve"/>
    </contour>
  </outline>
</glyph>
<glyph name="z" format="2">
  <advance width="222"/>
  <unicode hex="007A"/>
  <anchor x="84" y="0" name="bottom"/>
  <anchor x="107" y="275" name="center"/>
  <anchor x="160" y="530" name="top"/>
  <outline>
    <contour>
      <point x="-16" y="0" type="line"/>
      <point x="181" y="0" type="line"/>
      <point x="184" y="19" type="line"/>
      <point x="6" y="19" type="line"/>
      <point x="245" y="512" type="line"/>
      <point x="247" y="530" type="line"/>
      <point x="75" y="530" type="line"/>
      <point x="72" y="511" type="line"/>
      <point x="225" y="511" type="line"/>
      <point x="-14" y="18" type="line"/>
    </contour>
  </outline>
</glyph>
<glyph name="bar" format="2">
  <advance width="106"/>
  <unicode hex="007C"/>
  <outline>
    <contour>
      <point x="144" y="790" type="line"/>
      <point x="126" y="790" type="line"/>
      <point x="-33" y="-210" type="line"/>
      <point x="-15" y="-210" type="line"/>
    </contour>
  </outline>
</glyph>
<glyph name="asciitilde" format="2">
  <advance width="345"/>
  <unicode hex="007E"/>
  <outline>
    <contour>
      <point x="287" y="252" type="curve"/>
      <point x="291" y="277" type="line"/>
      <point x="272" y="251"/>
      <point x="258" y="240"/>
      <point x="239" y="240" type="curve" smooth="yes"/>
      <point x="186" y="240"/>
      <point x="174" y="361"/>
      <point x="117" y="361" type="curve" smooth="yes"/>
      <point x="95" y="361"/>
      <point x="82" y="352"/>
      <point x="64" y="329" type="curve"/>
      <point x="60" y="304" type="line"/>
      <point x="80" y="330"/>
      <point x="93" y="341"/>
      <point x="112" y="341" type="curve" smooth="yes"/>
      <point x="160" y="341"/>
      <point x="173" y="220"/>
      <point x="235" y="220" type="curve" smooth="yes"/>
      <point x="257" y="220"/>
      <point x="270" y="229"/>
    </contour>
  </outline>
</glyph>
<glyph name="cent" format="2">
  <advance width="250"/>
  <unicode hex="00A2"/>
  <outline>
    <contour>
      <point x="92" y="-105" type="line"/>
      <point x="110" y="-105" type="line"/>
      <point x="125" y="-10" type="line"/>
      <point x="141" y="-9"/>
      <point x="157" y="-7"/>
      <point x="171" y="-2" type="curve"/>
      <point x="168" y="14" type="line"/>
      <point x="154" y="9"/>
      <point x="135" y="7"/>
      <point x="125" y="7" type="curve" smooth="yes"/>
      <point x="77" y="7"/>
      <point x="62" y="48"/>
      <point x="62" y="119" type="curve" smooth="yes"/>
      <point x="62" y="344"/>
      <point x="132" y="521"/>
      <point x="205" y="521" type="curve" smooth="yes"/>
      <point x="216" y="521"/>
      <point x="228" y="518"/>
      <point x="241" y="514" type="curve"/>
      <point x="248" y="532" type="line"/>
      <point x="237" y="535"/>
      <point x="228" y="538"/>
      <point x="218" y="539" type="curve"/>
      <point x="234" y="635" type="line"/>
      <point x="216" y="635" type="line"/>
      <point x="200" y="539" type="line"/>
      <point x="116" y="533"/>
      <point x="43" y="357"/>
      <point x="43" y="115" type="curve" smooth="yes"/>
      <point x="43" y="25"/>
      <point x="73" y="-3"/>
      <point x="106" y="-9" type="curve"/>
    </contour>
  </outline>
</glyph>
<glyph name="sterling" format="2">
  <advance width="250"/>
  <unicode hex="00A3"/>
  <outline>
    <contour>
      <point x="18" y="0" type="line"/>
      <point x="172" y="0" type="line"/>
      <point x="175" y="20" type="line"/>
      <point x="43" y="20" type="line"/>
      <point x="96" y="99"/>
      <point x="135" y="176"/>
      <point x="135" y="294" type="curve" smooth="yes"/>
      <point x="135" y="358"/>
      <point x="120" y="408"/>
      <point x="120" y="472" type="curve" smooth="yes"/>
      <point x="120" y="633"/>
      <point x="181" y="690"/>
      <point x="219" y="690" type="curve" smooth="yes"/>
      <point x="240" y="690"/>
      <point x="256" y="685"/>
      <point x="272" y="675" type="curve"/>
      <point x="282" y="693" type="line"/>
      <point x="268" y="703"/>
      <point x="249" y="710"/>
      <point x="230" y="710" type="curve" smooth="yes"/>
      <point x="160" y="710"/>
      <point x="102" y="639"/>
      <point x="102" y="478" type="curve" smooth="yes"/>
      <point x="102" y="392"/>
      <point x="116" y="365"/>
      <point x="116" y="288" type="curve" smooth="yes"/>
      <point x="116" y="170"/>
      <point x="73" y="98"/>
      <point x="18" y="20" type="curve"/>
    </contour>
    <contour>
      <point x="62" y="366" type="line"/>
      <point x="222" y="366" type="line"/>
      <point x="225" y="385" type="line"/>
      <point x="65" y="385" type="line"/>
    </contour>
  </outline>
</glyph>
<glyph name="yen" format="2">
  <advance width="250"/>
  <unicode hex="00A5"/>
  <outline>
    <contour>
      <point x="71" y="365" type="line"/>
      <point x="132" y="365" type="line"/>
      <point x="110" y="228" type="line"/>
      <point x="51" y="228" type="line"/>
      <point x="47" y="209" type="line"/>
      <point x="107" y="209" type="line"/>
      <point x="74" y="0" type="line"/>
      <point x="92" y="0" type="line"/>
      <point x="125" y="209" type="line"/>
      <point x="190" y="209" type="line"/>
      <point x="193" y="228" type="line"/>
      <point x="128" y="228" type="line"/>
      <point x="150" y="365" type="line"/>
      <point x="214" y="365" type="line"/>
      <point x="218" y="384" type="line"/>
      <point x="155" y="384" type="line"/>
      <point x="272" y="701" type="line"/>
      <point x="254" y="708" type="line"/>
      <point x="151" y="418" type="line"/>
      <point x="131" y="702" type="line"/>
      <point x="113" y="700" type="line"/>
      <point x="135" y="384" type="line"/>
      <point x="75" y="384" type="line"/>
    </contour>
  </outline>
</glyph>
<glyph name="brokenbar" format="2">
  <advance width="107"/>
  <unicode hex="00A6"/>
  <outline>
    <contour>
      <point x="80" y="391" type="line"/>
      <point x="144" y="790" type="line"/>
      <point x="126" y="790" type="line"/>
      <point x="62" y="391" type="line"/>
    </contour>
    <contour>
      <point x="31" y="190" type="line"/>
      <point x="-32" y="-210" type="line"/>
      <point x="-14" y="-210" type="line"/>
      <point x="49" y="190" type="line"/>
    </contour>
  </outline>
</glyph>
<glyph name="section" format="2">
  <advance width="319"/>
  <unicode hex="00A7"/>
  <outline>
    <contour>
      <point x="-4" y="-169" type="curve"/>
      <point x="-19" y="-185" type="line"/>
      <point x="8" y="-211"/>
      <point x="28" y="-220"/>
      <point x="61" y="-220" type="curve" smooth="yes"/>
      <point x="175" y="-220"/>
      <point x="275" y="-49"/>
      <point x="275" y="147" type="curve" smooth="yes"/>
      <point x="275" y="330"/>
      <point x="185" y="439"/>
      <point x="185" y="596" type="curve" smooth="yes"/>
      <point x="185" y="674"/>
      <point x="216" y="729"/>
      <point x="260" y="729" type="curve" smooth="yes"/>
      <point x="270" y="729"/>
      <point x="281" y="726"/>
      <point x="294" y="719" type="curve"/>
      <point x="305" y="739" type="line"/>
      <point x="289" y="746"/>
      <point x="272" y="749"/>
      <point x="255" y="749" type="curve" smooth="yes"/>
      <point x="136" y="749"/>
      <point x="44" y="598"/>
      <point x="44" y="401" type="curve" smooth="yes"/>
      <point x="44" y="197"/>
      <point x="133" y="70"/>
      <point x="133" y="-78" type="curve" smooth="yes"/>
      <point x="133" y="-150"/>
      <point x="101" y="-201"/>
      <point x="55" y="-201" type="curve" smooth="yes"/>
      <point x="35" y="-201"/>
      <point x="12" y="-189"/>
    </contour>
    <contour>
      <point x="210" y="724" type="curve"/>
      <point x="185" y="699"/>
      <point x="168" y="649"/>
      <point x="168" y="600" type="curve" smooth="yes"/>
      <point x="168" y="416"/>
      <point x="257" y="328"/>
      <point x="257" y="131" type="curve" smooth="yes"/>
      <point x="257" y="-19"/>
      <point x="179" y="-170"/>
      <point x="109" y="-192" type="curve"/>
      <point x="138" y="-158"/>
      <point x="151" y="-119"/>
      <point x="151" y="-71" type="curve" smooth="yes"/>
      <point x="151" y="75"/>
      <point x="62" y="221"/>
      <point x="62" y="392" type="curve" smooth="yes"/>
      <point x="62" y="561"/>
      <point x="118" y="687"/>
    </contour>
  </outline>
</glyph>
<glyph name="copyright" format="2">
  <advance width="285"/>
  <unicode hex="00A9"/>
  <outline>
    <contour>
      <point x="98" y="-10" type="curve" smooth="yes"/>
      <point x="214" y="-10"/>
      <point x="281" y="342"/>
      <point x="281" y="589" type="curve" smooth="yes"/>
      <point x="281" y="677"/>
      <point x="255" y="713"/>
      <point x="212" y="713" type="curve" smooth="yes"/>
      <point x="95" y="713"/>
      <point x="28" y="361"/>
      <point x="28" y="114" type="curve" smooth="yes"/>
      <point x="28" y="26"/>
      <point x="54" y="-10"/>
    </contour>
    <contour>
      <point x="136" y="166" type="curve" smooth="yes"/>
      <point x="143" y="166"/>
      <point x="158" y="168"/>
      <point x="167" y="170" type="curve"/>
      <point x="167" y="188" type="line"/>
      <point x="161" y="186"/>
      <point x="144" y="185"/>
      <point x="139" y="185" type="curve" smooth="yes"/>
      <point x="115" y="185"/>
      <point x="106" y="210"/>
      <point x="106" y="251" type="curve" smooth="yes"/>
      <point x="106" y="367"/>
      <point x="143" y="499"/>
      <point x="188" y="499" type="curve" smooth="yes"/>
      <point x="198" y="499"/>
      <point x="205" y="499"/>
      <point x="213" y="496" type="curve"/>
      <point x="219" y="514" type="line"/>
      <point x="211" y="517"/>
      <point x="201" y="518"/>
      <point x="190" y="518" type="curve" smooth="yes"/>
      <point x="135" y="518"/>
      <point x="88" y="392"/>
      <point x="88" y="251" type="curve" smooth="yes"/>
      <point x="88" y="194"/>
      <point x="103" y="166"/>
    </contour>
    <contour>
      <point x="98" y="8" type="curve" smooth="yes"/>
      <point x="65" y="8"/>
      <point x="47" y="39"/>
      <point x="47" y="119" type="curve" smooth="yes"/>
      <point x="47" y="346"/>
      <point x="110" y="695"/>
      <point x="211" y="695" type="curve" smooth="yes"/>
      <point x="244" y="695"/>
      <point x="262" y="664"/>
      <point x="262" y="584" type="curve" smooth="yes"/>
      <point x="262" y="357"/>
      <point x="199" y="8"/>
    </contour>
  </outline>
</glyph>
<glyph name="ordfeminine" format="2">
  <advance width="193"/>
  <unicode hex="00AA"/>
  <outline>
    <contour>
      <point x="40" y="302" type="line"/>
      <point x="171" y="302" type="line"/>
      <point x="174" y="318" type="line"/>
      <point x="43" y="318" type="line"/>
    </contour>
    <component base="a.superior" xOffset="10"/>
  </outline>
</glyph>
<glyph name="logicalnot" format="2">
  <advance width="339"/>
  <unicode hex="00AC"/>
  <outline>
    <contour>
      <point x="60" y="386" type="line"/>
      <point x="295" y="386" type="line"/>
      <point x="262" y="177" type="line"/>
      <point x="281" y="177" type="line"/>
      <point x="317" y="404" type="line"/>
      <point x="63" y="404" type="line"/>
    </contour>
  </outline>
</glyph>
<glyph name="registered" format="2">
  <advance width="274"/>
  <unicode hex="00AE"/>
  <outline>
    <contour>
      <point x="130" y="208" type="curve" smooth="yes"/>
      <point x="219" y="208"/>
      <point x="300" y="484"/>
      <point x="300" y="765" type="curve" smooth="yes"/>
      <point x="300" y="855"/>
      <point x="277" y="895"/>
      <point x="232" y="895" type="curve" smooth="yes"/>
      <point x="143" y="895"/>
      <point x="62" y="619"/>
      <point x="62" y="338" type="curve" smooth="yes"/>
      <point x="62" y="248"/>
      <point x="85" y="208"/>
    </contour>
    <contour>
      <point x="130" y="224" type="curve" smooth="yes"/>
      <point x="96" y="224"/>
      <point x="79" y="260"/>
      <point x="79" y="340" type="curve" smooth="yes"/>
      <point x="79" y="604"/>
      <point x="154" y="879"/>
      <point x="232" y="879" type="curve" smooth="yes"/>
      <point x="266" y="879"/>
      <point x="283" y="843"/>
      <point x="283" y="763" type="curve" smooth="yes"/>
      <point x="283" y="499"/>
      <point x="208" y="224"/>
    </contour>
    <contour>
      <point x="116" y="409" type="line"/>
      <point x="133" y="409" type="line"/>
      <point x="155" y="543" type="line"/>
      <point x="165" y="541"/>
      <point x="175" y="539"/>
      <point x="188" y="540" type="curve"/>
      <point x="197" y="543" type="line"/>
      <point x="229" y="560"/>
      <point x="243" y="607"/>
      <point x="243" y="653" type="curve" smooth="yes"/>
      <point x="243" y="706"/>
      <point x="229" y="721"/>
      <point x="202" y="721" type="curve" smooth="yes"/>
      <point x="187" y="721"/>
      <point x="176" y="719"/>
      <point x="164" y="715" type="curve"/>
    </contour>
    <contour>
      <point x="176" y="555" type="curve" smooth="yes"/>
      <point x="167" y="555"/>
      <point x="161" y="557"/>
      <point x="157" y="558" type="curve"/>
      <point x="179" y="702" type="line"/>
      <point x="187" y="704"/>
      <point x="193" y="705"/>
      <point x="202" y="705" type="curve" smooth="yes"/>
      <point x="219" y="705"/>
      <point x="227" y="689"/>
      <point x="227" y="655" type="curve" smooth="yes"/>
      <point x="227" y="591"/>
      <point x="206" y="555"/>
    </contour>
    <contour>
      <point x="209" y="406" type="curve" smooth="yes"/>
      <point x="212" y="406"/>
      <point x="215" y="407"/>
      <point x="217" y="408" type="curve"/>
      <point x="218" y="426" type="line"/>
      <point x="216" y="424"/>
      <point x="214" y="424"/>
      <point x="213" y="424" type="curve" smooth="yes"/>
      <point x="202" y="424"/>
      <point x="204" y="453"/>
      <point x="198" y="553" type="curve"/>
      <point x="183" y="550" type="line"/>
      <point x="187" y="419"/>
      <point x="189" y="406"/>
    </contour>
  </outline>
</glyph>
<glyph name="degree" format="2">
  <advance width="203"/>
  <unicode hex="00B0"/>
  <outline>
    <contour>
      <point x="140" y="520" type="curve" smooth="yes"/>
      <point x="192" y="520"/>
      <point x="230" y="582"/>
      <point x="230" y="650" type="curve" smooth="yes"/>
      <point x="230" y="695"/>
      <point x="211" y="728"/>
      <point x="173" y="728" type="curve" smooth="yes"/>
      <point x="119" y="728"/>
      <point x="83" y="663"/>
      <point x="83" y="595" type="curve" smooth="yes"/>
      <point x="83" y="552"/>
      <point x="101" y="520"/>
    </contour>
    <contour>
      <point x="143" y="540" type="curve" smooth="yes"/>
      <point x="113" y="540"/>
      <point x="101" y="564"/>
      <point x="101" y="597" type="curve" smooth="yes"/>
      <point x="101" y="653"/>
      <point x="127" y="708"/>
      <point x="170" y="708" type="curve" smooth="yes"/>
      <point x="200" y="708"/>
      <point x="212" y="682"/>
      <point x="212" y="649" type="curve" smooth="yes"/>
      <point x="212" y="592"/>
      <point x="186" y="540"/>
    </contour>
  </outline>
</glyph>
<glyph name="plusminus" format="2">
  <advance width="341"/>
  <unicode hex="00B1"/>
  <outline>
    <contour>
      <point x="270" y="74" type="line"/>
      <point x="273" y="93" type="line"/>
      <point x="151" y="93" type="line"/>
      <point x="184" y="299" type="line"/>
      <point x="305" y="299" type="line"/>
      <point x="308" y="318" type="line"/>
      <point x="187" y="318" type="line"/>
      <point x="220" y="502" type="line"/>
      <point x="201" y="502" type="line"/>
      <point x="169" y="318" type="line"/>
      <point x="46" y="318" type="line"/>
      <point x="43" y="299" type="line"/>
      <point x="165" y="299" type="line"/>
      <point x="132" y="93" type="line"/>
      <point x="11" y="93" type="line"/>
      <point x="8" y="74" type="line"/>
    </contour>
  </outline>
</glyph>
<glyph name="uni00B2" format="2">
  <advance width="197"/>
  <unicode hex="00B2"/>
  <outline>
    <contour>
      <point x="55" y="367" type="line"/>
      <point x="168" y="367" type="line"/>
      <point x="170" y="384" type="line"/>
      <point x="75" y="384" type="line"/>
      <point x="136" y="495"/>
      <point x="202" y="619"/>
      <point x="202" y="713" type="curve" smooth="yes"/>
      <point x="202" y="750"/>
      <point x="189" y="773"/>
      <point x="161" y="773" type="curve" smooth="yes"/>
      <point x="141" y="773"/>
      <point x="122" y="763"/>
      <point x="104" y="740" type="curve"/>
      <point x="114" y="729" type="line"/>
      <point x="135" y="751"/>
      <point x="144" y="756"/>
      <point x="159" y="756" type="curve" smooth="yes"/>
      <point x="177" y="756"/>
      <point x="186" y="738"/>
      <point x="186" y="709" type="curve" smooth="yes"/>
      <point x="185" y="619"/>
      <point x="114" y="485"/>
      <point x="54" y="381" type="curve"/>
    </contour>
  </outline>
</glyph>
<glyph name="uni00B3" format="2">
  <advance width="206"/>
  <unicode hex="00B3"/>
  <outline>
    <contour>
      <point x="52" y="392" type="line"/>
      <point x="62" y="373"/>
      <point x="79" y="364"/>
      <point x="100" y="364" type="curve" smooth="yes"/>
      <point x="161" y="364"/>
      <point x="187" y="444"/>
      <point x="187" y="525" type="curve" smooth="yes"/>
      <point x="187" y="551"/>
      <point x="181" y="572"/>
      <point x="167" y="579" type="curve"/>
      <point x="190" y="594"/>
      <point x="210" y="651"/>
      <point x="210" y="704" type="curve" smooth="yes"/>
      <point x="210" y="753"/>
      <point x="189" y="774"/>
      <point x="161" y="774" type="curve" smooth="yes"/>
      <point x="149" y="774"/>
      <point x="131" y="770"/>
      <point x="113" y="753" type="curve"/>
      <point x="124" y="741" type="line"/>
      <point x="138" y="753"/>
      <point x="152" y="757"/>
      <point x="161" y="757" type="curve" smooth="yes"/>
      <point x="178" y="757"/>
      <point x="193" y="741"/>
      <point x="193" y="703" type="curve" smooth="yes"/>
      <point x="193" y="645"/>
      <point x="172" y="586"/>
      <point x="145" y="586" type="curve" smooth="yes"/>
      <point x="122" y="586" type="line"/>
      <point x="120" y="571" type="line"/>
      <point x="147" y="571" type="line" smooth="yes"/>
      <point x="162" y="571"/>
      <point x="171" y="554"/>
      <point x="171" y="521" type="curve" smooth="yes"/>
      <point x="171" y="460"/>
      <point x="152" y="381"/>
      <point x="101" y="381" type="curve" smooth="yes"/>
      <point x="85" y="381"/>
      <point x="73" y="388"/>
      <point x="65" y="403" type="curve"/>
    </contour>
  </outline>
</glyph>
<glyph name="paragraph" format="2">
  <advance width="351"/>
  <unicode hex="00B6"/>
  <outline>
    <contour>
      <point x="212" y="-210" type="line"/>
      <point x="230" y="-210" type="line"/>
      <point x="380" y="740" type="line"/>
      <point x="362" y="740" type="line"/>
    </contour>
    <contour>
      <point x="132" y="195" type="line"/>
      <point x="79" y="209"/>
      <point x="56" y="265"/>
      <point x="56" y="348" type="curve" smooth="yes"/>
      <point x="56" y="537"/>
      <point x="131" y="716"/>
      <point x="254" y="722" type="curve"/>
      <point x="107" y="-210" type="line"/>
      <point x="125" y="-210" type="line"/>
      <point x="275" y="740" type="line"/>
      <point x="261" y="740" type="line" smooth="yes"/>
      <point x="120" y="740"/>
      <point x="38" y="543"/>
      <point x="38" y="348" type="curve" smooth="yes"/>
      <point x="38" y="256"/>
      <point x="65" y="192"/>
      <point x="127" y="175" type="curve"/>
    </contour>
  </outline>
</glyph>
<glyph name="ordmasculine" format="2">
  <advance width="190"/>
  <unicode hex="00BA"/>
  <outline>
    <contour>
      <point x="41" y="302" type="line"/>
      <point x="152" y="302" type="line"/>
      <point x="154" y="318" type="line"/>
      <point x="43" y="318" type="line"/>
    </contour>
    <component base="o.superior" xOffset="18"/>
  </outline>
</glyph>
<glyph name="multiply" format="2">
  <advance width="320"/>
  <unicode hex="00D7"/>
  <outline>
    <contour>
      <point x="36" y="77" type="line"/>
      <point x="158" y="266" type="line"/>
      <point x="220" y="77" type="line"/>
      <point x="238" y="86" type="line"/>
      <point x="171" y="288" type="line"/>
      <point x="304" y="492" type="line"/>
      <point x="288" y="501" type="line"/>
      <point x="164" y="310" type="line"/>
      <point x="102" y="501" type="line"/>
      <point x="84" y="492" type="line"/>
      <point x="150" y="289" type="line"/>
      <point x="20" y="86" type="line"/>
    </contour>
  </outline>
</glyph>
<glyph name="germandbls" format="2">
  <advance width="284"/>
  <unicode hex="00DF"/>
  <outline>
    <contour>
      <point x="10.0" y="-66.0" type="line" smooth="yes"/>
      <point x="-3.0" y="-148.0"/>
      <point x="-23.0" y="-205.0"/>
      <point x="-81.0" y="-205.0" type="curve" smooth="yes"/>
      <point x="-96.0" y="-205.0"/>
      <point x="-107.0" y="-203.0"/>
      <point x="-123.0" y="-198.0" type="curve"/>
      <point x="-127.0" y="-213.0" type="line"/>
      <point x="-113.0" y="-218.0"/>
      <point x="-98.0" y="-220.0"/>
      <point x="-79.0" y="-220.0" type="curve" smooth="yes"/>
      <point x="-16.0" y="-220.0"/>
      <point x="13.0" y="-167.0"/>
      <point x="28.0" y="-71.0" type="curve" smooth="yes"/>
      <point x="126.0" y="550.0" type="line" smooth="yes"/>
      <point x="144.0" y="663.0"/>
      <point x="176.0" y="731.0"/>
      <point x="234.0" y="731.0" type="curve" smooth="yes"/>
      <point x="262.0" y="731.0"/>
      <point x="281.0" y="717.0"/>
      <point x="281.0" y="672.0" type="curve" smooth="yes"/>
      <point x="281.0" y="627.0"/>
      <point x="267.0" y="596.0"/>
      <point x="225.0" y="547.0" type="curve" smooth="yes"/>
      <point x="177.0" y="491.0"/>
      <point x="157.0" y="452.0"/>
      <point x="157.0" y="392.0" type="curve" smooth="yes"/>
      <point x="157.0" y="349.0"/>
      <point x="178.0" y="305.0"/>
      <point x="209.0" y="250.0" type="curve" smooth="yes"/>
      <point x="234.0" y="206.0"/>
      <point x="243.0" y="177.0"/>
      <point x="243.0" y="138.0" type="curve" smooth="yes"/>
      <point x="243.0" y="66.0"/>
      <point x="201.0" y="10.0"/>
      <point x="147.0" y="10.0" type="curve" smooth="yes"/>
      <point x="124.0" y="10.0"/>
      <point x="104.0" y="16.0"/>
      <point x="86.0" y="26.0" type="curve"/>
      <point x="77.0" y="9.0" type="line"/>
      <point x="95.0" y="-3.0"/>
      <point x="121.0" y="-10.0"/>
      <point x="146.0" y="-10.0" type="curve" smooth="yes"/>
      <point x="214.0" y="-10.0"/>
      <point x="262.0" y="55.0"/>
      <point x="262.0" y="142.0" type="curve" smooth="yes"/>
      <point x="262.0" y="182.0"/>
      <point x="251.0" y="213.0"/>
      <point x="220.0" y="270.0" type="curve" smooth="yes"/>
      <point x="190.0" y="327.0"/>
      <point x="175.0" y="355.0"/>
      <point x="175.0" y="395.0" type="curve" smooth="yes"/>
      <point x="175.0" y="443.0"/>
      <point x="193.0" y="478.0"/>
      <point x="237.0" y="533.0" type="curve" smooth="yes"/>
      <point x="284.0" y="592.0"/>
      <point x="299.0" y="625.0"/>
      <point x="299.0" y="676.0" type="curve" smooth="yes"/>
      <point x="299.0" y="730.0"/>
      <point x="274.0" y="750.0"/>
      <point x="235.0" y="750.0" type="curve" smooth="yes"/>
      <point x="165.0" y="750.0"/>
      <point x="127.0" y="683.0"/>
      <point x="107.0" y="550.0" type="curve" smooth="yes"/>
      <point x="97.0" y="484.0" type="line"/>
      <point x="43.0" y="478.0" type="line"/>
      <point x="41.0" y="465.0" type="line"/>
      <point x="93.0" y="465.0" type="line"/>
    </contour>
  </outline>
</glyph>
<glyph name="divide" format="2">
  <advance width="340"/>
  <unicode hex="00F7"/>
  <outline>
    <contour>
      <point x="125" y="82" type="curve" smooth="yes"/>
      <point x="124" y="74"/>
      <point x="125" y="72"/>
      <point x="136" y="72" type="curve" smooth="yes"/>
      <point x="152" y="72"/>
      <point x="152" y="73"/>
      <point x="155" y="96" type="curve" smooth="yes"/>
      <point x="156" y="105"/>
      <point x="153" y="106"/>
      <point x="143" y="106" type="curve" smooth="yes"/>
      <point x="129" y="106"/>
      <point x="128" y="105"/>
    </contour>
    <contour>
      <point x="189" y="482" type="curve" smooth="yes"/>
      <point x="188" y="474"/>
      <point x="189" y="472"/>
      <point x="200" y="472" type="curve" smooth="yes"/>
      <point x="216" y="472"/>
      <point x="216" y="473"/>
      <point x="219" y="496" type="curve" smooth="yes"/>
      <point x="220" y="505"/>
      <point x="217" y="506"/>
      <point x="207" y="506" type="curve" smooth="yes"/>
      <point x="193" y="506"/>
      <point x="192" y="505"/>
    </contour>
    <contour>
      <point x="40" y="279" type="line"/>
      <point x="302" y="279" type="line"/>
      <point x="305" y="299" type="line"/>
      <point x="43" y="299" type="line"/>
    </contour>
  </outline>
</glyph>
<glyph name="oslash" format="2">
  <advance width="249"/>
  <unicode hex="00F8"/>
  <anchor x="169" y="530" name="top"/>
  <outline>
    <contour>
      <point x="242" y="539" type="line"/>
      <point x="220" y="490" type="line"/>
      <point x="218" y="490" type="line"/>
      <point x="23" y="61" type="line"/>
      <point x="21" y="61" type="line"/>
      <point x="-11" y="-10" type="line"/>
      <point x="8" y="-10" type="line"/>
      <point x="27" y="32" type="line"/>
      <point x="29" y="32" type="line"/>
      <point x="225" y="464" type="line"/>
      <point x="227" y="464" type="line"/>
      <point x="261" y="539" type="line"/>
    </contour>
    <contour>
      <point x="85" y="-10" type="curve" smooth="yes"/>
      <point x="197" y="-10"/>
      <point x="233" y="317"/>
      <point x="233" y="433" type="curve" smooth="yes"/>
      <point x="233" y="523"/>
      <point x="208" y="539"/>
      <point x="161" y="539" type="curve" smooth="yes"/>
      <point x="49" y="539"/>
      <point x="13" y="212"/>
      <point x="13" y="96" type="curve" smooth="yes"/>
      <point x="13" y="6"/>
      <point x="38" y="-10"/>
    </contour>
    <contour>
      <point x="85" y="7" type="curve" smooth="yes"/>
      <point x="52" y="7"/>
      <point x="31" y="20"/>
      <point x="31" y="94" type="curve" smooth="yes"/>
      <point x="31" y="188"/>
      <point x="68" y="522"/>
      <point x="161" y="522" type="curve" smooth="yes"/>
      <point x="194" y="522"/>
      <point x="215" y="509"/>
      <point x="215" y="435" type="curve" smooth="yes"/>
      <point x="215" y="341"/>
      <point x="178" y="7"/>
    </contour>
  </outline>
</glyph>
<glyph name="thorn" format="2">
  <advance width="258"/>
  <unicode hex="00FE"/>
  <outline>
    <contour>
      <point x="-29" y="-210" type="line"/>
      <point x="-11" y="-210" type="line"/>
      <point x="22" y="-3" type="line"/>
      <point x="36" y="-8"/>
      <point x="49" y="-10"/>
      <point x="64" y="-10" type="curve" smooth="yes"/>
      <point x="172" y="-10"/>
      <point x="240" y="192"/>
      <point x="240" y="395" type="curve" smooth="yes"/>
      <point x="240" y="496"/>
      <point x="217" y="540"/>
      <point x="164" y="540" type="curve" smooth="yes"/>
      <point x="143" y="540"/>
      <point x="125" y="533"/>
      <point x="105" y="523" type="curve"/>
      <point x="140" y="740" type="line"/>
      <point x="121" y="740" type="line"/>
    </contour>
    <contour>
      <point x="62" y="8" type="curve" smooth="yes"/>
      <point x="49" y="8"/>
      <point x="36" y="10"/>
      <point x="25" y="16" type="curve"/>
      <point x="102" y="502" type="line"/>
      <point x="117" y="512"/>
      <point x="145" y="522"/>
      <point x="162" y="522" type="curve" smooth="yes"/>
      <point x="202" y="522"/>
      <point x="221" y="480"/>
      <point x="221" y="392" type="curve" smooth="yes"/>
      <point x="221" y="202"/>
      <point x="159" y="8"/>
    </contour>
  </outline>
</glyph>
<glyph name="dcroat" format="2">
  <advance width="261"/>
  <unicode hex="0111"/>
  <outline>
    <contour>
      <point x="147" y="621" type="line"/>
      <point x="318" y="621" type="line"/>
      <point x="321" y="636" type="line"/>
      <point x="150" y="636" type="line"/>
    </contour>
    <component base="d"/>
  </outline>
</glyph>
<glyph name="ldot" format="2">
  <advance width="163"/>
  <unicode hex="0140"/>
  <outline>
    <contour>
      <point x="141" y="357" type="curve" smooth="yes"/>
      <point x="139" y="343"/>
      <point x="140" y="340"/>
      <point x="152" y="340" type="curve" smooth="yes"/>
      <point x="164" y="340"/>
      <point x="165" y="341"/>
      <point x="167" y="357" type="curve" smooth="yes"/>
      <point x="169" y="370"/>
      <point x="169" y="374"/>
      <point x="157" y="374" type="curve" smooth="yes"/>
      <point x="145" y="374"/>
      <point x="143" y="373"/>
    </contour>
    <component base="l"/>
  </outline>
</glyph>
<glyph name="Lslash" format="2">
  <advance width="207"/>
  <unicode hex="0141"/>
  <outline>
    <contour>
      <point x="4" y="0" type="line"/>
      <point x="157" y="0" type="line"/>
      <point x="160" y="19" type="line"/>
      <point x="26" y="19" type="line"/>
      <point x="67" y="275" type="line"/>
      <point x="184" y="382" type="line"/>
      <point x="188" y="408" type="line"/>
      <point x="71" y="301" type="line"/>
      <point x="134" y="700" type="line"/>
      <point x="115" y="700" type="line"/>
      <point x="49" y="281" type="line"/>
      <point x="5" y="241" type="line"/>
      <point x="0" y="214" type="line"/>
      <point x="44" y="254" type="line"/>
    </contour>
  </outline>
</glyph>
<glyph name="lslash" format="2">
  <advance width="121"/>
  <unicode hex="0142"/>
  <outline>
    <contour>
      <point x="-3" y="194" type="line"/>
      <point x="138" y="347" type="line"/>
      <point x="142" y="375" type="line"/>
      <point x="1" y="222" type="line"/>
    </contour>
    <component base="l"/>
  </outline>
</glyph>
<glyph name="Eng" format="2">
  <advance width="292"/>
  <unicode hex="014A"/>
  <outline>
    <contour>
      <point x="-1" y="0" type="line"/>
      <point x="18" y="0" type="line"/>
      <point x="120" y="653" type="line"/>
      <point x="187" y="3" type="line"/>
      <point x="178" y="-81"/>
      <point x="141" y="-109"/>
      <point x="86" y="-109" type="curve" smooth="yes"/>
      <point x="72" y="-109"/>
      <point x="57" y="-106"/>
      <point x="42" y="-101" type="curve"/>
      <point x="37" y="-121" type="line"/>
      <point x="55" y="-126"/>
      <point x="70" y="-128"/>
      <point x="84" y="-128" type="curve" smooth="yes"/>
      <point x="171" y="-128"/>
      <point x="194" y="-75"/>
      <point x="206" y="0" type="curve" smooth="yes"/>
      <point x="317" y="700" type="line"/>
      <point x="298" y="700" type="line"/>
      <point x="198" y="57" type="line"/>
      <point x="133" y="700" type="line"/>
      <point x="109" y="700" type="line"/>
    </contour>
  </outline>
</glyph>
<glyph name="OE" format="2">
  <advance width="411"/>
  <unicode hex="0152"/>
  <outline>
    <contour>
      <point x="356" y="0" type="line"/>
      <point x="359" y="19" type="line"/>
      <point x="203" y="19" type="line"/>
      <point x="256" y="354" type="line"/>
      <point x="389" y="354" type="line"/>
      <point x="392" y="373" type="line"/>
      <point x="259" y="373" type="line"/>
      <point x="307" y="681" type="line"/>
      <point x="454" y="681" type="line"/>
      <point x="458" y="700" type="line"/>
      <point x="305" y="700" type="line"/>
      <point x="293" y="703"/>
      <point x="279" y="710"/>
      <point x="254" y="710" type="curve" smooth="yes"/>
      <point x="120" y="710"/>
      <point x="28" y="513"/>
      <point x="28" y="164" type="curve" smooth="yes"/>
      <point x="28" y="32"/>
      <point x="65" y="-10"/>
      <point x="148" y="-10" type="curve" smooth="yes"/>
      <point x="157" y="-10"/>
      <point x="177" y="-6"/>
      <point x="197" y="0" type="curve"/>
    </contour>
    <contour>
      <point x="183" y="14" type="line"/>
      <point x="168" y="9"/>
      <point x="156" y="8"/>
      <point x="147" y="8" type="curve" smooth="yes"/>
      <point x="67" y="8"/>
      <point x="47" y="60"/>
      <point x="47" y="171" type="curve" smooth="yes"/>
      <point x="47" y="488"/>
      <point x="131" y="693"/>
      <point x="255" y="693" type="curve" smooth="yes"/>
      <point x="272" y="693"/>
      <point x="282" y="688"/>
      <point x="289" y="686" type="curve"/>
    </contour>
  </outline>
</glyph>
<glyph name="Tbar" format="2">
  <advance width="222"/>
  <unicode hex="0166"/>
  <outline>
    <contour>
      <point x="281" y="681" type="line"/>
      <point x="284" y="700" type="line"/>
      <point x="72" y="700" type="line"/>
      <point x="69" y="681" type="line"/>
      <point x="165" y="681" type="line"/>
      <point x="118" y="390" type="line"/>
      <point x="39" y="390" type="line"/>
      <point x="36" y="373" type="line"/>
      <point x="116" y="373" type="line"/>
      <point x="57" y="0" type="line"/>
      <point x="76" y="0" type="line"/>
      <point x="135" y="373" type="line"/>
      <point x="217" y="373" type="line"/>
      <point x="220" y="390" type="line"/>
      <point x="138" y="390" type="line"/>
      <point x="184" y="681" type="line"/>
    </contour>
  </outline>
</glyph>
<glyph name="longs" format="2">
  <advance width="130"/>
  <unicode hex="017F"/>
  <outline>
    <contour>
      <point x="-79" y="-220" type="curve" smooth="yes"/>
      <point x="-16" y="-220"/>
      <point x="13" y="-167"/>
      <point x="28" y="-71" type="curve" smooth="yes"/>
      <point x="116" y="484" type="line" smooth="yes"/>
      <point x="144" y="662"/>
      <point x="178" y="731"/>
      <point x="240" y="731" type="curve" smooth="yes"/>
      <point x="253" y="731"/>
      <point x="268" y="728"/>
      <point x="280" y="725" type="curve"/>
      <point x="287" y="743" type="line"/>
      <point x="271" y="748"/>
      <point x="257" y="750"/>
      <point x="245" y="750" type="curve" smooth="yes"/>
      <point x="168" y="750"/>
      <point x="127" y="677"/>
      <point x="97" y="484" type="curve"/>
      <point x="39" y="478" type="line"/>
      <point x="37" y="465" type="line"/>
      <point x="94" y="465" type="line"/>
      <point x="10" y="-66" type="line" smooth="yes"/>
      <point x="-3" y="-148"/>
      <point x="-23" y="-205"/>
      <point x="-81" y="-205" type="curve" smooth="yes"/>
      <point x="-96" y="-205"/>
      <point x="-107" y="-203"/>
      <point x="-123" y="-198" type="curve"/>
      <point x="-127" y="-213" type="line"/>
      <point x="-113" y="-218"/>
      <point x="-98" y="-220"/>
    </contour>
  </outline>
</glyph>
<glyph name="florin" format="2">
  <advance width="250"/>
  <unicode hex="0192"/>
  <outline>
    <contour>
      <point x="136" y="366" type="line"/>
      <point x="203" y="366" type="line"/>
      <point x="206" y="384" type="line"/>
      <point x="139" y="384" type="line"/>
      <point x="149" y="444" type="line" smooth="yes"/>
      <point x="177" y="622"/>
      <point x="202" y="692"/>
      <point x="252" y="692" type="curve" smooth="yes"/>
      <point x="262" y="692"/>
      <point x="270" y="690"/>
      <point x="280" y="686" type="curve"/>
      <point x="288" y="703" type="line"/>
      <point x="276" y="708"/>
      <point x="265" y="710"/>
      <point x="255" y="710" type="curve" smooth="yes"/>
      <point x="192" y="710"/>
      <point x="164" y="650"/>
      <point x="131" y="444" type="curve" smooth="yes"/>
      <point x="121" y="384" type="line"/>
      <point x="62" y="384" type="line"/>
      <point x="59" y="366" type="line"/>
      <point x="118" y="366" type="line"/>
      <point x="28" y="-210" type="line"/>
      <point x="46" y="-210" type="line"/>
    </contour>
  </outline>
</glyph>
<glyph name="uni0237" format="2">
  <advance width="123"/>
  <unicode hex="0237"/>
  <anchor x="-86" y="-210" name="bottom"/>
  <anchor x="106" y="530" name="top"/>
  <outline>
    <contour>
      <point x="116" y="530" type="line"/>
      <point x="97" y="530" type="line"/>
      <point x="3" y="-66" type="line" smooth="yes"/>
      <point x="-10" y="-148"/>
      <point x="-32" y="-203"/>
      <point x="-90" y="-203" type="curve" smooth="yes"/>
      <point x="-105" y="-203"/>
      <point x="-116" y="-201"/>
      <point x="-132" y="-196" type="curve"/>
      <point x="-136" y="-213" type="line"/>
      <point x="-122" y="-218"/>
      <point x="-107" y="-220"/>
      <point x="-88" y="-220" type="curve" smooth="yes"/>
      <point x="-25" y="-220"/>
      <point x="6" y="-168"/>
      <point x="21" y="-71" type="curve" smooth="yes"/>
    </contour>
  </outline>
</glyph>
<glyph name="acutecomb" format="2">
  <unicode hex="0301"/>
  <anchor x="-80" y="530" name="_top"/>
  <anchor x="-17" y="710" name="top"/>
  <outline>
    <contour>
      <point x="-83" y="596" type="line"/>
      <point x="-67" y="596" type="line"/>
      <point x="42" y="790" type="line"/>
      <point x="21" y="790" type="line"/>
    </contour>
  </outline>
</glyph>
<glyph name="uni0302" format="2">
  <unicode hex="0302"/>
  <anchor x="-80" y="530" name="_top"/>
  <anchor x="-45" y="743" name="top"/>
  <anchor x="22" y="672" name="top_viet"/>
  <outline>
    <contour>
      <point x="-138" y="596" type="line"/>
      <point x="-122" y="596" type="line"/>
      <point x="-41" y="767" type="line"/>
      <point x="-15" y="596" type="line"/>
      <point x="0" y="596" type="line"/>
      <point x="-29" y="790" type="line"/>
      <point x="-48" y="790" type="line"/>
    </contour>
  </outline>
</glyph>
<glyph name="uni0307" format="2">
  <unicode hex="0307"/>
  <anchor x="-80" y="530" name="_top"/>
  <anchor x="-64" y="632" name="top"/>
  <outline>
    <contour>
      <point x="-57" y="676" type="curve" smooth="yes"/>
      <point x="-44" y="676"/>
      <point x="-40" y="687"/>
      <point x="-40" y="699" type="curve" smooth="yes"/>
      <point x="-40" y="707"/>
      <point x="-42" y="712"/>
      <point x="-52" y="712" type="curve" smooth="yes"/>
      <point x="-64" y="712"/>
      <point x="-68" y="700"/>
      <point x="-68" y="687" type="curve" smooth="yes"/>
      <point x="-68" y="680"/>
      <point x="-65" y="676"/>
    </contour>
  </outline>
</glyph>
<glyph name="uni0308" format="2">
  <unicode hex="0308"/>
  <anchor x="-80" y="530" name="_top"/>
  <anchor x="-64" y="632" name="top"/>
  <outline>
    <contour>
      <point x="-11" y="676" type="curve" smooth="yes"/>
      <point x="0" y="676"/>
      <point x="4" y="687"/>
      <point x="4" y="700" type="curve" smooth="yes"/>
      <point x="4" y="707"/>
      <point x="2" y="712"/>
      <point x="-6" y="712" type="curve" smooth="yes"/>
      <point x="-17" y="712"/>
      <point x="-21" y="699"/>
      <point x="-21" y="686" type="curve" smooth="yes"/>
      <point x="-21" y="680"/>
      <point x="-19" y="676"/>
    </contour>
    <contour>
      <point x="-105" y="676" type="curve" smooth="yes"/>
      <point x="-94" y="676"/>
      <point x="-90" y="687"/>
      <point x="-90" y="700" type="curve" smooth="yes"/>
      <point x="-90" y="707"/>
      <point x="-92" y="712"/>
      <point x="-100" y="712" type="curve" smooth="yes"/>
      <point x="-112" y="712"/>
      <point x="-115" y="696"/>
      <point x="-115" y="686" type="curve" smooth="yes"/>
      <point x="-115" y="680"/>
      <point x="-113" y="676"/>
    </contour>
  </outline>
</glyph>
<glyph name="uni030B" format="2">
  <unicode hex="030B"/>
  <anchor x="-80" y="530" name="_top"/>
  <anchor x="-7" y="790" name="top"/>
  <outline>
    <contour>
      <point x="-49" y="596" type="line"/>
      <point x="-33" y="596" type="line"/>
      <point x="73" y="790" type="line"/>
      <point x="53" y="790" type="line"/>
    </contour>
    <contour>
      <point x="-118" y="596" type="line"/>
      <point x="-102" y="596" type="line"/>
      <point x="4" y="790" type="line"/>
      <point x="-16" y="790" type="line"/>
    </contour>
  </outline>
</glyph>
<glyph name="uni0326" format="2">
  <unicode hex="0326"/>
  <anchor x="-166" y="0" name="_bottom"/>
  <anchor x="-225" y="-220" name="bottom"/>
  <outline>
    <contour>
      <point x="-188" y="-73" type="line"/>
      <point x="-188" y="-83"/>
      <point x="-189" y="-94"/>
      <point x="-191" y="-105" type="curve" smooth="yes"/>
      <point x="-197" y="-140"/>
      <point x="-209" y="-176"/>
      <point x="-234" y="-220" type="curve"/>
      <point x="-215" y="-220" type="line"/>
      <point x="-194" y="-183"/>
      <point x="-180" y="-150"/>
      <point x="-173" y="-105" type="curve" smooth="yes"/>
      <point x="-171" y="-93"/>
      <point x="-170" y="-82"/>
      <point x="-170" y="-73" type="curve"/>
    </contour>
  </outline>
</glyph>
<glyph name="uni0328" format="2">
  <unicode hex="0328"/>
  <anchor x="-159" y="0" name="_ogonek"/>
  <outline>
    <contour>
      <point x="-176" y="0" type="line"/>
      <point x="-232" y="-77"/>
      <point x="-257" y="-132"/>
      <point x="-257" y="-177" type="curve" smooth="yes"/>
      <point x="-257" y="-202"/>
      <point x="-243" y="-220"/>
      <point x="-223" y="-220" type="curve" smooth="yes"/>
      <point x="-209" y="-220"/>
      <point x="-197" y="-215"/>
      <point x="-190" y="-208" type="curve"/>
      <point x="-195" y="-195" type="line"/>
      <point x="-204" y="-200"/>
      <point x="-211" y="-203"/>
      <point x="-219" y="-203" type="curve" smooth="yes"/>
      <point x="-231" y="-203"/>
      <point x="-239" y="-191"/>
      <point x="-239" y="-172" type="curve" smooth="yes"/>
      <point x="-239" y="-129"/>
      <point x="-209" y="-65"/>
      <point x="-159" y="0" type="curve"/>
    </contour>
  </outline>
</glyph>
<glyph name="pi" format="2">
  <advance width="300"/>
  <unicode hex="03C0"/>
  <outline>
    <contour>
      <point x="195" y="-10" type="curve" smooth="yes"/>
      <point x="204" y="-10"/>
      <point x="214" y="-8"/>
      <point x="228" y="-1" type="curve"/>
      <point x="224" y="16" type="line"/>
      <point x="214" y="11"/>
      <point x="206" y="9"/>
      <point x="198" y="9" type="curve" smooth="yes"/>
      <point x="189" y="9"/>
      <point x="184" y="14"/>
      <point x="184" y="25" type="curve" smooth="yes"/>
      <point x="184" y="28"/>
      <point x="183" y="31"/>
      <point x="260" y="512" type="curve"/>
      <point x="303" y="512" type="line"/>
      <point x="305" y="530" type="line"/>
      <point x="195" y="530" type="line" smooth="yes"/>
      <point x="138" y="530"/>
      <point x="100" y="526"/>
      <point x="64" y="495" type="curve"/>
      <point x="68" y="478" type="line"/>
      <point x="99" y="502"/>
      <point x="123" y="509"/>
      <point x="139" y="511" type="curve"/>
      <point x="105" y="377"/>
      <point x="50" y="106"/>
      <point x="10" y="0" type="curve"/>
      <point x="28" y="0" type="line"/>
      <point x="71" y="115"/>
      <point x="126" y="382"/>
      <point x="157" y="512" type="curve"/>
      <point x="242" y="512" type="line"/>
      <point x="165" y="29"/>
      <point x="166" y="25"/>
      <point x="166" y="21" type="curve" smooth="yes"/>
      <point x="166" y="4"/>
      <point x="173" y="-10"/>
    </contour>
  </outline>
</glyph>
<glyph name="emdash" format="2">
  <advance width="548"/>
  <unicode hex="2014"/>
  <outline>
    <contour>
      <point x="-3" y="255" type="line"/>
      <point x="545" y="255" type="line"/>
      <point x="548" y="275" type="line"/>
      <point x="0" y="275" type="line"/>
    </contour>
  </outline>
</glyph>
<glyph name="dagger" format="2">
  <advance width="259"/>
  <unicode hex="2020"/>
  <outline>
    <contour>
      <point x="43" y="-210" type="line"/>
      <point x="61" y="-210" type="line"/>
      <point x="175" y="510" type="line"/>
      <point x="270" y="510" type="line"/>
      <point x="273" y="530" type="line"/>
      <point x="178" y="530" type="line"/>
      <point x="211" y="740" type="line"/>
      <point x="193" y="740" type="line"/>
      <point x="160" y="530" type="line"/>
      <point x="66" y="530" type="line"/>
      <point x="63" y="510" type="line"/>
      <point x="157" y="510" type="line"/>
    </contour>
  </outline>
</glyph>
<glyph name="daggerdbl" format="2">
  <advance width="259"/>
  <unicode hex="2021"/>
  <outline>
    <contour>
      <point x="190" y="0" type="line"/>
      <point x="193" y="20" type="line"/>
      <point x="98" y="20" type="line"/>
      <point x="176" y="510" type="line"/>
      <point x="271" y="510" type="line"/>
      <point x="274" y="530" type="line"/>
      <point x="179" y="530" type="line"/>
      <point x="212" y="740" type="line"/>
      <point x="194" y="740" type="line"/>
      <point x="161" y="530" type="line"/>
      <point x="67" y="530" type="line"/>
      <point x="64" y="510" type="line"/>
      <point x="158" y="510" type="line"/>
      <point x="80" y="20" type="line"/>
      <point x="-14" y="20" type="line"/>
      <point x="-17" y="0" type="line"/>
      <point x="77" y="0" type="line"/>
      <point x="44" y="-210" type="line"/>
      <point x="62" y="-210" type="line"/>
      <point x="95" y="0" type="line"/>
    </contour>
  </outline>
</glyph>
<glyph name="minute" format="2">
  <advance width="146"/>
  <unicode hex="2032"/>
  <outline>
    <contour>
      <point x="68" y="427" type="line"/>
      <point x="80" y="427" type="line"/>
      <point x="166" y="700" type="line"/>
      <point x="148" y="700" type="line"/>
    </contour>
  </outline>
</glyph>
<glyph name="guilsinglright" format="2">
  <advance width="114"/>
  <unicode hex="203A"/>
  <outline>
    <contour>
      <point x="-15" y="69" type="line"/>
      <point x="0" y="62" type="line"/>
      <point x="93" y="267" type="line"/>
      <point x="94" y="273" type="line"/>
      <point x="65" y="478" type="line"/>
      <point x="48" y="471" type="line"/>
      <point x="75" y="270" type="line"/>
    </contour>
  </outline>
</glyph>
<glyph name="fraction" format="2">
  <advance width="56"/>
  <unicode hex="2044"/>
  <outline>
    <contour>
      <point x="-147" y="-11" type="line"/>
      <point x="248" y="743" type="line"/>
      <point x="233" y="750" type="line"/>
      <point x="-162" y="-4" type="line"/>
    </contour>
  </outline>
</glyph>
<glyph name="uni2070" format="2">
  <advance width="232"/>
  <unicode hex="2070"/>
  <outline>
    <contour>
      <point x="86" y="454" type="curve" smooth="yes"/>
      <point x="86" y="387"/>
      <point x="103" y="364"/>
      <point x="129" y="364" type="curve" smooth="yes"/>
      <point x="192" y="364"/>
      <point x="238" y="518"/>
      <point x="238" y="684" type="curve" smooth="yes"/>
      <point x="238" y="751"/>
      <point x="221" y="774"/>
      <point x="195" y="774" type="curve" smooth="yes"/>
      <point x="132" y="774"/>
      <point x="86" y="620"/>
    </contour>
    <contour>
      <point x="193" y="757" type="curve" smooth="yes"/>
      <point x="212" y="757"/>
      <point x="221" y="738"/>
      <point x="221" y="679" type="curve" smooth="yes"/>
      <point x="221" y="531"/>
      <point x="180" y="381"/>
      <point x="131" y="381" type="curve" smooth="yes"/>
      <point x="112" y="381"/>
      <point x="103" y="400"/>
      <point x="103" y="459" type="curve" smooth="yes"/>
      <point x="103" y="607"/>
      <point x="144" y="757"/>
    </contour>
  </outline>
</glyph>
<glyph name="uni2074" format="2">
  <advance width="196"/>
  <unicode hex="2074"/>
  <outline>
    <contour>
      <point x="71" y="478" type="line"/>
      <point x="148" y="478" type="line"/>
      <point x="132" y="370" type="line"/>
      <point x="148" y="370" type="line"/>
      <point x="165" y="478" type="line"/>
      <point x="196" y="478" type="line"/>
      <point x="198" y="495" type="line"/>
      <point x="167" y="495" type="line"/>
      <point x="210" y="768" type="line"/>
      <point x="198" y="773" type="line"/>
      <point x="69" y="491" type="line"/>
    </contour>
    <contour>
      <point x="89" y="495" type="line"/>
      <point x="183" y="702" type="line"/>
      <point x="150" y="495" type="line"/>
    </contour>
  </outline>
</glyph>
<glyph name="uni2076" format="2">
  <advance width="210"/>
  <unicode hex="2076"/>
  <outline>
    <contour>
      <point x="129" y="364" type="curve" smooth="yes"/>
      <point x="174" y="364"/>
      <point x="209" y="432"/>
      <point x="209" y="524" type="curve" smooth="yes"/>
      <point x="209" y="570"/>
      <point x="193" y="599"/>
      <point x="164" y="599" type="curve" smooth="yes"/>
      <point x="141" y="599"/>
      <point x="111" y="570"/>
      <point x="96" y="522" type="curve"/>
      <point x="95" y="484" type="line"/>
      <point x="108" y="538"/>
      <point x="134" y="582"/>
      <point x="163" y="582" type="curve" smooth="yes"/>
      <point x="184" y="582"/>
      <point x="192" y="561"/>
      <point x="192" y="522" type="curve" smooth="yes"/>
      <point x="192" y="450"/>
      <point x="165" y="381"/>
      <point x="130" y="381" type="curve" smooth="yes"/>
      <point x="109" y="381"/>
      <point x="101" y="409"/>
      <point x="101" y="452" type="curve" smooth="yes"/>
      <point x="101" y="540"/>
      <point x="115" y="628"/>
      <point x="137" y="686" type="curve" smooth="yes"/>
      <point x="154" y="731"/>
      <point x="177" y="756"/>
      <point x="200" y="756" type="curve" smooth="yes"/>
      <point x="210" y="756"/>
      <point x="220" y="751"/>
      <point x="230" y="742" type="curve"/>
      <point x="241" y="756" type="line"/>
      <point x="229" y="767"/>
      <point x="213" y="773"/>
      <point x="199" y="773" type="curve" smooth="yes"/>
      <point x="132" y="773"/>
      <point x="85" y="618"/>
      <point x="85" y="442" type="curve" smooth="yes"/>
      <point x="85" y="391"/>
      <point x="101" y="364"/>
    </contour>
  </outline>
</glyph>
<glyph name="uni2077" format="2">
  <advance width="176"/>
  <unicode hex="2077"/>
  <outline>
    <contour>
      <point x="80" y="370" type="curve"/>
      <point x="96" y="370" type="line"/>
      <point x="107" y="433"/>
      <point x="121" y="499"/>
      <point x="164" y="610" type="curve" smooth="yes"/>
      <point x="220" y="756" type="line"/>
      <point x="222" y="770" type="line"/>
      <point x="99" y="770" type="line"/>
      <point x="97" y="754" type="line"/>
      <point x="203" y="754" type="line"/>
      <point x="154" y="626" type="line" smooth="yes"/>
      <point x="114" y="522"/>
      <point x="91" y="450"/>
    </contour>
  </outline>
</glyph>
<glyph name="uni2079" format="2">
  <advance width="211"/>
  <unicode hex="2079"/>
  <outline>
    <contour>
      <point x="174" y="773" type="curve" smooth="yes"/>
      <point x="129" y="773"/>
      <point x="94" y="705"/>
      <point x="94" y="613" type="curve" smooth="yes"/>
      <point x="94" y="567"/>
      <point x="110" y="538"/>
      <point x="139" y="538" type="curve" smooth="yes"/>
      <point x="162" y="538"/>
      <point x="192" y="567"/>
      <point x="207" y="615" type="curve"/>
      <point x="208" y="653" type="line"/>
      <point x="195" y="599"/>
      <point x="169" y="555"/>
      <point x="140" y="555" type="curve" smooth="yes"/>
      <point x="119" y="555"/>
      <point x="111" y="576"/>
      <point x="111" y="615" type="curve" smooth="yes"/>
      <point x="111" y="687"/>
      <point x="138" y="756"/>
      <point x="173" y="756" type="curve" smooth="yes"/>
      <point x="194" y="756"/>
      <point x="202" y="728"/>
      <point x="202" y="685" type="curve" smooth="yes"/>
      <point x="202" y="597"/>
      <point x="188" y="509"/>
      <point x="166" y="451" type="curve" smooth="yes"/>
      <point x="149" y="406"/>
      <point x="126" y="381"/>
      <point x="103" y="381" type="curve" smooth="yes"/>
      <point x="93" y="381"/>
      <point x="83" y="386"/>
      <point x="73" y="395" type="curve"/>
      <point x="62" y="381" type="line"/>
      <point x="74" y="370"/>
      <point x="90" y="364"/>
      <point x="104" y="364" type="curve" smooth="yes"/>
      <point x="171" y="364"/>
      <point x="218" y="519"/>
      <point x="218" y="695" type="curve" smooth="yes"/>
      <point x="218" y="746"/>
      <point x="202" y="773"/>
    </contour>
  </outline>
</glyph>
<glyph name="uni207A" format="2">
  <advance width="155"/>
  <unicode hex="207A"/>
  <outline>
    <contour>
      <point x="91" y="406" type="line"/>
      <point x="107" y="406" type="line"/>
      <point x="125" y="523" type="line"/>
      <point x="194" y="523" type="line"/>
      <point x="196" y="540" type="line"/>
      <point x="127" y="540" type="line"/>
      <point x="146" y="657" type="line"/>
      <point x="129" y="657" type="line"/>
      <point x="111" y="540" type="line"/>
      <point x="42" y="540" type="line"/>
      <point x="40" y="523" type="line"/>
      <point x="108" y="523" type="line"/>
    </contour>
  </outline>
</glyph>
<glyph name="uni207B" format="2">
  <advance width="153"/>
  <unicode hex="207B"/>
  <outline>
    <contour>
      <point x="39" y="523" type="line"/>
      <point x="193" y="523" type="line"/>
      <point x="195" y="540" type="line"/>
      <point x="41" y="540" type="line"/>
    </contour>
  </outline>
</glyph>
<glyph name="uni207C" format="2">
  <advance width="153"/>
  <unicode hex="207C"/>
  <outline>
    <contour>
      <point x="187" y="483" type="line"/>
      <point x="32" y="483" type="line"/>
      <point x="30" y="466" type="line"/>
      <point x="184" y="466" type="line"/>
    </contour>
    <contour>
      <point x="204" y="599" type="line"/>
      <point x="50" y="599" type="line"/>
      <point x="48" y="582" type="line"/>
      <point x="201" y="582" type="line"/>
    </contour>
  </outline>
</glyph>
<glyph name="uni207D" format="2">
  <advance width="110"/>
  <unicode hex="207D"/>
  <outline>
    <contour>
      <point x="67" y="398" type="curve" smooth="yes"/>
      <point x="67" y="333"/>
      <point x="79" y="290"/>
      <point x="103" y="279" type="curve"/>
      <point x="105" y="299" type="line"/>
      <point x="91" y="310"/>
      <point x="83" y="343"/>
      <point x="83" y="393" type="curve" smooth="yes"/>
      <point x="83" y="505"/>
      <point x="131" y="784"/>
      <point x="188" y="816" type="curve"/>
      <point x="190" y="837" type="line"/>
      <point x="114" y="806"/>
      <point x="67" y="526"/>
    </contour>
  </outline>
</glyph>
<glyph name="franc" format="2">
  <advance width="250"/>
  <unicode hex="20A3"/>
  <outline>
    <contour>
      <point x="29" y="0" type="line"/>
      <point x="48" y="0" type="line"/>
      <point x="156" y="680" type="line"/>
      <point x="312" y="680" type="line"/>
      <point x="315" y="700" type="line"/>
      <point x="140" y="700" type="line"/>
    </contour>
    <contour>
      <point x="7" y="220" type="line"/>
      <point x="189" y="220" type="line"/>
      <point x="192" y="239" type="line"/>
      <point x="10" y="239" type="line"/>
    </contour>
    <contour>
      <point x="33" y="380" type="line"/>
      <point x="215" y="380" type="line"/>
      <point x="218" y="399" type="line"/>
      <point x="36" y="399" type="line"/>
    </contour>
  </outline>
</glyph>
<glyph name="peseta" format="2">
  <advance width="250"/>
  <unicode hex="20A7"/>
  <outline>
    <contour>
      <point x="-2" y="0" type="line"/>
      <point x="17" y="0" type="line"/>
      <point x="64" y="295" type="line"/>
      <point x="72" y="294"/>
      <point x="81" y="294"/>
      <point x="106" y="294" type="curve" smooth="yes"/>
      <point x="193" y="294"/>
      <point x="250" y="416"/>
      <point x="250" y="587" type="curve" smooth="yes"/>
      <point x="250" y="676"/>
      <point x="219" y="710"/>
      <point x="172" y="710" type="curve" smooth="yes"/>
      <point x="153" y="710"/>
      <point x="132" y="708"/>
      <point x="109" y="704" type="curve"/>
    </contour>
    <contour>
      <point x="126" y="687" type="line"/>
      <point x="139" y="690"/>
      <point x="154" y="691"/>
      <point x="171" y="691" type="curve" smooth="yes"/>
      <point x="208" y="691"/>
      <point x="231" y="666"/>
      <point x="231" y="584" type="curve" smooth="yes"/>
      <point x="231" y="433"/>
      <point x="179" y="313"/>
      <point x="106" y="313" type="curve" smooth="yes"/>
      <point x="95" y="313"/>
      <point x="80" y="314"/>
      <point x="67" y="315" type="curve"/>
    </contour>
    <contour>
      <point x="39" y="491" type="line"/>
      <point x="89" y="491" type="line"/>
      <point x="92" y="510" type="line"/>
      <point x="42" y="510" type="line"/>
    </contour>
    <contour>
      <point x="232" y="491" type="line"/>
      <point x="279" y="491" type="line"/>
      <point x="282" y="510" type="line"/>
      <point x="235" y="510" type="line"/>
    </contour>
  </outline>
</glyph>
<glyph name="dong" format="2">
  <advance width="250"/>
  <unicode hex="20AB"/>
  <outline>
    <contour>
      <point x="-13" y="0" type="line"/>
      <point x="185" y="0" type="line"/>
      <point x="189" y="19" type="line"/>
      <point x="-9" y="19" type="line"/>
    </contour>
    <contour>
      <point x="137" y="622" type="line"/>
      <point x="295" y="622" type="line"/>
      <point x="298" y="641" type="line"/>
      <point x="140" y="641" type="line"/>
    </contour>
    <contour>
      <point x="190" y="68" type="curve" smooth="yes"/>
      <point x="201" y="68"/>
      <point x="209" y="70"/>
      <point x="222" y="75" type="curve"/>
      <point x="218" y="90" type="line"/>
      <point x="210" y="87"/>
      <point x="201" y="84"/>
      <point x="192" y="84" type="curve" smooth="yes"/>
      <point x="182" y="84"/>
      <point x="177" y="92"/>
      <point x="177" y="104" type="curve" smooth="yes"/>
      <point x="177" y="117"/>
      <point x="179" y="132"/>
      <point x="276" y="740" type="curve"/>
      <point x="257" y="740" type="line"/>
      <point x="224" y="530" type="line"/>
      <point x="208" y="535"/>
      <point x="195" y="538"/>
      <point x="180" y="538" type="curve" smooth="yes"/>
      <point x="88" y="538"/>
      <point x="20" y="386"/>
      <point x="20" y="196" type="curve" smooth="yes"/>
      <point x="20" y="92"/>
      <point x="53" y="68"/>
      <point x="101" y="68" type="curve" smooth="yes"/>
      <point x="124" y="68"/>
      <point x="146" y="80"/>
      <point x="160" y="94" type="curve"/>
      <point x="163" y="78"/>
      <point x="174" y="68"/>
    </contour>
    <contour>
      <point x="101" y="87" type="curve" smooth="yes"/>
      <point x="66" y="87"/>
      <point x="38" y="105"/>
      <point x="38" y="192" type="curve" smooth="yes"/>
      <point x="38" y="377"/>
      <point x="102" y="521"/>
      <point x="183" y="521" type="curve" smooth="yes"/>
      <point x="196" y="521"/>
      <point x="206" y="518"/>
      <point x="221" y="513" type="curve"/>
      <point x="158" y="109" type="line"/>
      <point x="143" y="95"/>
      <point x="125" y="87"/>
    </contour>
  </outline>
</glyph>
<glyph name="Euro" format="2">
  <advance width="250"/>
  <unicode hex="20AC"/>
  <outline>
    <contour>
      <point x="52" y="157" type="curve" smooth="yes"/>
      <point x="52" y="24"/>
      <point x="91" y="-10"/>
      <point x="142" y="-10" type="curve" smooth="yes"/>
      <point x="158" y="-10"/>
      <point x="175" y="-8"/>
      <point x="195" y="-1" type="curve"/>
      <point x="194" y="17" type="line"/>
      <point x="176" y="11"/>
      <point x="162" y="9"/>
      <point x="143" y="9" type="curve" smooth="yes"/>
      <point x="108" y="9"/>
      <point x="71" y="35"/>
      <point x="71" y="157" type="curve" smooth="yes"/>
      <point x="71" y="431"/>
      <point x="151" y="690"/>
      <point x="256" y="690" type="curve" smooth="yes"/>
      <point x="272" y="690"/>
      <point x="282" y="687"/>
      <point x="298" y="681" type="curve"/>
      <point x="305" y="701" type="line"/>
      <point x="287" y="708"/>
      <point x="271" y="710"/>
      <point x="256" y="710" type="curve" smooth="yes"/>
      <point x="136" y="710"/>
      <point x="52" y="433"/>
    </contour>
    <contour>
      <point x="198" y="420" type="line"/>
      <point x="202" y="439" type="line"/>
      <point x="48" y="439" type="line"/>
      <point x="44" y="420" type="line"/>
    </contour>
    <contour>
      <point x="173" y="262" type="line"/>
      <point x="177" y="281" type="line"/>
      <point x="23" y="281" type="line"/>
      <point x="19" y="262" type="line"/>
    </contour>
  </outline>
</glyph>
<glyph name="uni20B2" format="2">
  <advance width="250"/>
  <unicode hex="20B2"/>
  <outline>
    <contour>
      <point x="138" y="-10" type="curve" smooth="yes"/>
      <point x="154" y="-10"/>
      <point x="172" y="-7"/>
      <point x="184" y="-3" type="curve"/>
      <point x="238" y="339" type="line"/>
      <point x="146" y="339" type="line"/>
      <point x="143" y="320" type="line"/>
      <point x="216" y="320" type="line"/>
      <point x="167" y="12" type="line"/>
      <point x="160" y="10"/>
      <point x="150" y="9"/>
      <point x="141" y="9" type="curve" smooth="yes"/>
      <point x="77" y="9"/>
      <point x="49" y="56"/>
      <point x="49" y="167" type="curve" smooth="yes"/>
      <point x="49" y="459"/>
      <point x="129" y="691"/>
      <point x="233" y="691" type="curve" smooth="yes"/>
      <point x="249" y="691"/>
      <point x="265" y="688"/>
      <point x="285" y="682" type="curve"/>
      <point x="292" y="700" type="line"/>
      <point x="279" y="705"/>
      <point x="258" y="710"/>
      <point x="236" y="710" type="curve" smooth="yes"/>
      <point x="115" y="710"/>
      <point x="30" y="482"/>
      <point x="30" y="166" type="curve" smooth="yes"/>
      <point x="30" y="42"/>
      <point x="61" y="-10"/>
    </contour>
    <contour>
      <point x="227" y="703" type="line"/>
      <point x="245" y="697" type="line"/>
      <point x="262" y="805" type="line"/>
      <point x="244" y="805" type="line"/>
    </contour>
    <contour>
      <point x="126" y="3" type="line"/>
      <point x="108" y="2" type="line"/>
      <point x="91" y="-105" type="line"/>
      <point x="109" y="-105" type="line"/>
    </contour>
  </outline>
</glyph>
<glyph name="uni20B5" format="2">
  <advance width="250"/>
  <unicode hex="20B5"/>
  <outline>
    <contour>
      <point x="154" y="-10" type="curve" smooth="yes"/>
      <point x="177" y="-10"/>
      <point x="195" y="-7"/>
      <point x="208" y="-2" type="curve"/>
      <point x="203" y="15" type="line"/>
      <point x="190" y="11"/>
      <point x="174" y="9"/>
      <point x="155" y="9" type="curve" smooth="yes"/>
      <point x="91" y="9"/>
      <point x="63" y="56"/>
      <point x="63" y="167" type="curve" smooth="yes"/>
      <point x="63" y="459"/>
      <point x="143" y="691"/>
      <point x="247" y="691" type="curve" smooth="yes"/>
      <point x="263" y="691"/>
      <point x="279" y="688"/>
      <point x="299" y="682" type="curve"/>
      <point x="306" y="700" type="line"/>
      <point x="292" y="707"/>
      <point x="272" y="710"/>
      <point x="250" y="710" type="curve" smooth="yes"/>
      <point x="130" y="710"/>
      <point x="44" y="482"/>
      <point x="44" y="166" type="curve" smooth="yes"/>
      <point x="44" y="42"/>
      <point x="75" y="-10"/>
    </contour>
    <contour>
      <point x="246" y="703" type="line"/>
      <point x="264" y="697" type="line"/>
      <point x="281" y="805" type="line"/>
      <point x="263" y="805" type="line"/>
    </contour>
    <contour>
      <point x="145" y="3" type="line"/>
      <point x="127" y="2" type="line"/>
      <point x="110" y="-105" type="line"/>
      <point x="128" y="-105" type="line"/>
    </contour>
  </outline>
</glyph>
<glyph name="uni20B9" format="2">
  <advance width="250"/>
  <unicode hex="20B9"/>
  <outline>
    <contour>
      <point x="168" y="0" type="line"/>
      <point x="188" y="0" type="line"/>
      <point x="51" y="346" type="line"/>
      <point x="51" y="346" type="line"/>
      <point x="68" y="346" type="line" smooth="yes"/>
      <point x="167" y="346"/>
      <point x="235" y="423"/>
      <point x="235" y="546" type="curve" smooth="yes"/>
      <point x="235" y="622"/>
      <point x="205" y="670"/>
      <point x="175" y="681" type="curve"/>
      <point x="298" y="681" type="line"/>
      <point x="301" y="700" type="line"/>
      <point x="86" y="700" type="line"/>
      <point x="83" y="681" type="line"/>
      <point x="106" y="681" type="line" smooth="yes"/>
      <point x="179" y="681"/>
      <point x="216" y="633"/>
      <point x="216" y="546" type="curve" smooth="yes"/>
      <point x="216" y="428"/>
      <point x="157" y="365"/>
      <point x="67" y="365" type="curve" smooth="yes"/>
      <point x="33" y="365" type="line"/>
      <point x="30" y="346" type="line"/>
    </contour>
    <contour>
      <point x="58" y="520" type="line"/>
      <point x="273" y="520" type="line"/>
      <point x="276" y="539" type="line"/>
      <point x="61" y="539" type="line"/>
    </contour>
  </outline>
</glyph>
<glyph name="uni20BA" format="2">
  <advance width="250"/>
  <unicode hex="20BA"/>
  <outline>
    <contour>
      <point x="18" y="0" type="line"/>
      <point x="59" y="0" type="line" smooth="yes"/>
      <point x="141" y="0"/>
      <point x="209" y="82"/>
      <point x="230" y="267" type="curve"/>
      <point x="210" y="267" type="line"/>
      <point x="192" y="100"/>
      <point x="134" y="20"/>
      <point x="66" y="20" type="curve" smooth="yes"/>
      <point x="40" y="20" type="line"/>
      <point x="148" y="700" type="line"/>
      <point x="129" y="700" type="line"/>
    </contour>
    <contour>
      <point x="32" y="343" type="line"/>
      <point x="207" y="487" type="line"/>
      <point x="211" y="513" type="line"/>
      <point x="36" y="369" type="line"/>
    </contour>
    <contour>
      <point x="15" y="235" type="line"/>
      <point x="190" y="379" type="line"/>
      <point x="194" y="405" type="line"/>
      <point x="19" y="261" type="line"/>
    </contour>
  </outline>
</glyph>
<glyph name="uni20BD" format="2">
  <advance width="250"/>
  <unicode hex="20BD"/>
  <outline>
    <contour>
      <point x="15" y="0" type="line"/>
      <point x="34" y="0" type="line"/>
      <point x="65" y="196" type="line"/>
      <point x="174" y="196" type="line"/>
      <point x="177" y="215" type="line"/>
      <point x="68" y="215" type="line"/>
      <point x="81" y="295" type="line"/>
      <point x="100" y="295" type="line" smooth="yes"/>
      <point x="201" y="295"/>
      <point x="267" y="388"/>
      <point x="267" y="577" type="curve" smooth="yes"/>
      <point x="267" y="676"/>
      <point x="235" y="710"/>
      <point x="186" y="710" type="curve" smooth="yes"/>
      <point x="168" y="710"/>
      <point x="148" y="708"/>
      <point x="126" y="704" type="curve"/>
      <point x="65" y="314" type="line"/>
      <point x="17" y="314" type="line"/>
      <point x="14" y="295" type="line"/>
      <point x="62" y="295" type="line"/>
      <point x="49" y="215" type="line"/>
      <point x="1" y="215" type="line"/>
      <point x="-2" y="196" type="line"/>
      <point x="46" y="196" type="line"/>
    </contour>
    <contour>
      <point x="84" y="314" type="line"/>
      <point x="143" y="687" type="line"/>
      <point x="155" y="690"/>
      <point x="169" y="691"/>
      <point x="185" y="691" type="curve" smooth="yes"/>
      <point x="224" y="691"/>
      <point x="248" y="666"/>
      <point x="248" y="574" type="curve" smooth="yes"/>
      <point x="248" y="403"/>
      <point x="189" y="314"/>
      <point x="102" y="314" type="curve" smooth="yes"/>
    </contour>
  </outline>
</glyph>
<glyph name="uni2113" format="2">
  <advance width="207"/>
  <unicode hex="2113"/>
  <outline>
    <contour>
      <point x="94" y="-10" type="curve" smooth="yes"/>
      <point x="117" y="-10"/>
      <point x="142" y="-1"/>
      <point x="169" y="24" type="curve"/>
      <point x="159" y="37" type="line"/>
      <point x="133" y="12"/>
      <point x="111" y="7"/>
      <point x="94" y="7" type="curve" smooth="yes"/>
      <point x="54" y="7"/>
      <point x="44" y="46"/>
      <point x="50" y="176" type="curve"/>
      <point x="152" y="236"/>
      <point x="218" y="468"/>
      <point x="218" y="623" type="curve" smooth="yes"/>
      <point x="218" y="671"/>
      <point x="210" y="710"/>
      <point x="179" y="710" type="curve" smooth="yes"/>
      <point x="113" y="710"/>
      <point x="51" y="486"/>
      <point x="34" y="188" type="curve"/>
      <point x="20" y="181"/>
      <point x="6" y="177"/>
      <point x="-8" y="175" type="curve"/>
      <point x="-8" y="158" type="line"/>
      <point x="6" y="160"/>
      <point x="20" y="164"/>
      <point x="33" y="170" type="curve"/>
      <point x="21" y="43"/>
      <point x="39" y="-10"/>
    </contour>
    <contour>
      <point x="51" y="196" type="curve"/>
      <point x="71" y="469"/>
      <point x="128" y="692"/>
      <point x="178" y="692" type="curve" smooth="yes"/>
      <point x="193" y="692"/>
      <point x="200" y="663"/>
      <point x="200" y="625" type="curve" smooth="yes"/>
      <point x="200" y="483"/>
      <point x="144" y="265"/>
    </contour>
  </outline>
</glyph>
<glyph name="uni2117" format="2">
  <advance width="285"/>
  <unicode hex="2117"/>
  <outline>
    <contour>
      <point x="98" y="8" type="curve" smooth="yes"/>
      <point x="65" y="8"/>
      <point x="47" y="39"/>
      <point x="47" y="119" type="curve" smooth="yes"/>
      <point x="47" y="346"/>
      <point x="108" y="695"/>
      <point x="211" y="695" type="curve" smooth="yes"/>
      <point x="244" y="695"/>
      <point x="262" y="664"/>
      <point x="262" y="584" type="curve" smooth="yes"/>
      <point x="262" y="357"/>
      <point x="201" y="8"/>
    </contour>
    <contour>
      <point x="98" y="-10" type="curve" smooth="yes"/>
      <point x="214" y="-10"/>
      <point x="281" y="342"/>
      <point x="281" y="589" type="curve" smooth="yes"/>
      <point x="281" y="677"/>
      <point x="255" y="713"/>
      <point x="212" y="713" type="curve" smooth="yes"/>
      <point x="95" y="713"/>
      <point x="28" y="361"/>
      <point x="28" y="114" type="curve" smooth="yes"/>
      <point x="28" y="26"/>
      <point x="54" y="-10"/>
    </contour>
    <contour>
      <point x="87" y="181" type="line"/>
      <point x="105" y="181" type="line"/>
      <point x="125" y="310" type="line"/>
      <point x="132" y="309"/>
      <point x="138" y="308"/>
      <point x="144" y="308" type="curve" smooth="yes"/>
      <point x="189" y="308"/>
      <point x="221" y="363"/>
      <point x="221" y="438" type="curve" smooth="yes"/>
      <point x="221" y="492"/>
      <point x="208" y="510"/>
      <point x="178" y="510" type="curve" smooth="yes"/>
      <point x="168" y="510"/>
      <point x="154" y="508"/>
      <point x="138" y="504" type="curve"/>
    </contour>
    <contour>
      <point x="143" y="327" type="curve" smooth="yes"/>
      <point x="139" y="327"/>
      <point x="133" y="327"/>
      <point x="128" y="328" type="curve"/>
      <point x="153" y="488" type="line"/>
      <point x="163" y="490"/>
      <point x="170" y="491"/>
      <point x="176" y="491" type="curve" smooth="yes"/>
      <point x="193" y="491"/>
      <point x="204" y="488"/>
      <point x="204" y="440" type="curve" smooth="yes"/>
      <point x="204" y="371"/>
      <point x="180" y="327"/>
    </contour>
  </outline>
</glyph>
<glyph name="uni2120" format="2">
  <advance width="312"/>
  <unicode hex="2120"/>
  <outline>
    <contour>
      <point x="174" y="381" type="line"/>
      <point x="191" y="381" type="line"/>
      <point x="230" y="649" type="line"/>
      <point x="243" y="502" type="line"/>
      <point x="256" y="502" type="line"/>
      <point x="316" y="646" type="line"/>
      <point x="273" y="381" type="line"/>
      <point x="290" y="381" type="line"/>
      <point x="340" y="700" type="line"/>
      <point x="323" y="700" type="line"/>
      <point x="254" y="535" type="line"/>
      <point x="239" y="700" type="line"/>
      <point x="224" y="700" type="line"/>
    </contour>
    <contour>
      <point x="177" y="693" type="line"/>
      <point x="170" y="698"/>
      <point x="159" y="703"/>
      <point x="145" y="703" type="curve" smooth="yes"/>
      <point x="98" y="703"/>
      <point x="86" y="652"/>
      <point x="86" y="626" type="curve" smooth="yes"/>
      <point x="86" y="566"/>
      <point x="128" y="516"/>
      <point x="128" y="458" type="curve" smooth="yes"/>
      <point x="128" y="425"/>
      <point x="114" y="393"/>
      <point x="82" y="393" type="curve" smooth="yes"/>
      <point x="73" y="393"/>
      <point x="63" y="394"/>
      <point x="51" y="401" type="curve"/>
      <point x="43" y="386" type="line"/>
      <point x="53" y="380"/>
      <point x="68" y="376"/>
      <point x="81" y="376" type="curve" smooth="yes"/>
      <point x="129" y="376"/>
      <point x="144" y="424"/>
      <point x="144" y="460" type="curve" smooth="yes"/>
      <point x="144" y="519"/>
      <point x="103" y="570"/>
      <point x="103" y="628" type="curve" smooth="yes"/>
      <point x="103" y="649"/>
      <point x="113" y="687"/>
      <point x="143" y="687" type="curve" smooth="yes"/>
      <point x="153" y="687"/>
      <point x="159" y="685"/>
      <point x="168" y="679" type="curve"/>
    </contour>
  </outline>
</glyph>
<glyph name="trademark" format="2">
  <advance width="279"/>
  <unicode hex="2122"/>
  <outline>
    <contour>
      <point x="174" y="680" type="line"/>
      <point x="177" y="700" type="line"/>
      <point x="83" y="700" type="line"/>
      <point x="80" y="680" type="line"/>
      <point x="118" y="680" type="line"/>
      <point x="71" y="381" type="line"/>
      <point x="89" y="381" type="line"/>
      <point x="136" y="680" type="line"/>
    </contour>
    <contour>
      <point x="141" y="381" type="line"/>
      <point x="158" y="381" type="line"/>
      <point x="197" y="649" type="line"/>
      <point x="210" y="502" type="line"/>
      <point x="223" y="502" type="line"/>
      <point x="283" y="646" type="line"/>
      <point x="240" y="381" type="line"/>
      <point x="257" y="381" type="line"/>
      <point x="307" y="700" type="line"/>
      <point x="290" y="700" type="line"/>
      <point x="221" y="535" type="line"/>
      <point x="206" y="700" type="line"/>
      <point x="191" y="700" type="line"/>
    </contour>
  </outline>
</glyph>
<glyph name="uni2126" format="2">
  <advance width="325"/>
  <unicode hex="2126"/>
  <outline>
    <contour>
      <point x="139" y="3" type="curve"/>
      <point x="137" y="-10" type="line"/>
      <point x="228" y="-10" type="line"/>
      <point x="231" y="8" type="line"/>
      <point x="168" y="8" type="line"/>
      <point x="231" y="41"/>
      <point x="317" y="344"/>
      <point x="317" y="534" type="curve" smooth="yes"/>
      <point x="317" y="646"/>
      <point x="286" y="710"/>
      <point x="232" y="710" type="curve" smooth="yes"/>
      <point x="127" y="710"/>
      <point x="37" y="452"/>
      <point x="37" y="149" type="curve" smooth="yes"/>
      <point x="37" y="79"/>
      <point x="56" y="10"/>
      <point x="76" y="8" type="curve"/>
      <point x="11" y="8" type="line"/>
      <point x="8" y="-10" type="line"/>
      <point x="96" y="-10" type="line"/>
      <point x="98" y="3" type="line"/>
      <point x="72" y="16"/>
      <point x="55" y="78"/>
      <point x="55" y="160" type="curve" smooth="yes"/>
      <point x="55" y="427"/>
      <point x="141" y="692"/>
      <point x="228" y="692" type="curve" smooth="yes"/>
      <point x="274" y="692"/>
      <point x="298" y="637"/>
      <point x="298" y="532" type="curve" smooth="yes"/>
      <point x="298" y="326"/>
      <point x="210" y="34"/>
    </contour>
  </outline>
</glyph>
<glyph name="arrowup" format="2">
  <advance width="400"/>
  <unicode hex="2191"/>
  <outline>
    <contour>
      <point x="210" y="109" type="line"/>
      <point x="210" y="432" type="line"/>
      <point x="393" y="239" type="line"/>
      <point x="406" y="251" type="line"/>
      <point x="200" y="468" type="line"/>
      <point x="-6" y="251" type="line"/>
      <point x="7" y="239" type="line"/>
      <point x="190" y="432" type="line"/>
      <point x="190" y="109" type="line"/>
    </contour>
  </outline>
</glyph>
<glyph name="partialdiff" format="2">
  <advance width="239"/>
  <unicode hex="2202"/>
  <outline>
    <contour>
      <point x="77" y="-10" type="curve" smooth="yes"/>
      <point x="191" y="-10"/>
      <point x="237" y="501"/>
      <point x="237" y="584" type="curve" smooth="yes"/>
      <point x="237" y="662"/>
      <point x="222" y="710"/>
      <point x="178" y="710" type="curve" smooth="yes"/>
      <point x="163" y="710"/>
      <point x="148" y="704"/>
      <point x="133" y="692" type="curve"/>
      <point x="141" y="674" type="line"/>
      <point x="153" y="683"/>
      <point x="164" y="689"/>
      <point x="175" y="689" type="curve" smooth="yes"/>
      <point x="207" y="689"/>
      <point x="217" y="639"/>
      <point x="217" y="575" type="curve" smooth="yes"/>
      <point x="217" y="422"/>
      <point x="154" y="8"/>
      <point x="77" y="8" type="curve" smooth="yes"/>
      <point x="51" y="8"/>
      <point x="32" y="40"/>
      <point x="32" y="105" type="curve" smooth="yes"/>
      <point x="32" y="225"/>
      <point x="85" y="422"/>
      <point x="140" y="422" type="curve" smooth="yes"/>
      <point x="173" y="422"/>
      <point x="184" y="367"/>
      <point x="190" y="288" type="curve"/>
      <point x="197" y="330" type="line"/>
      <point x="196" y="396"/>
      <point x="178" y="440"/>
      <point x="140" y="440" type="curve" smooth="yes"/>
      <point x="70" y="440"/>
      <point x="14" y="242"/>
      <point x="14" y="102" type="curve" smooth="yes"/>
      <point x="14" y="25"/>
      <point x="38" y="-10"/>
    </contour>
  </outline>
</glyph>
<glyph name="uni2206" format="2">
  <advance width="265"/>
  <unicode hex="2206"/>
  <outline>
    <contour>
      <point x="-20" y="0" type="line"/>
      <point x="199" y="0" type="line"/>
      <point x="200" y="9" type="line"/>
      <point x="208" y="710" type="line"/>
      <point x="192" y="710" type="line"/>
      <point x="-20" y="11" type="line"/>
    </contour>
    <contour>
      <point x="2" y="18" type="line"/>
      <point x="192" y="655" type="line"/>
      <point x="180" y="18" type="line"/>
    </contour>
  </outline>
</glyph>
<glyph name="product" format="2">
  <advance width="335"/>
  <unicode hex="220F"/>
  <outline>
    <contour>
      <point x="-26" y="-210" type="line"/>
      <point x="-8" y="-210" type="line"/>
      <point x="134" y="682" type="line"/>
      <point x="332" y="682" type="line"/>
      <point x="190" y="-210" type="line"/>
      <point x="208" y="-210" type="line"/>
      <point x="352" y="700" type="line"/>
      <point x="117" y="700" type="line"/>
    </contour>
  </outline>
</glyph>
<glyph name="uni25B3" format="2">
  <advance width="347"/>
  <unicode hex="25B3"/>
  <outline>
    <contour>
      <point x="62" y="171" type="line"/>
      <point x="297" y="171" type="line"/>
      <point x="180" y="428" type="line"/>
    </contour>
    <contour>
      <point x="93" y="191" type="line"/>
      <point x="179" y="381" type="line"/>
      <point x="266" y="191" type="line"/>
    </contour>
  </outline>
</glyph>
<glyph name="uni25B6" format="2">
  <advance width="347"/>
  <unicode hex="25B6"/>
  <outline>
    <contour>
      <point x="66" y="182" type="line"/>
      <point x="323" y="299" type="line"/>
      <point x="66" y="417" type="line"/>
    </contour>
  </outline>
</glyph>
<glyph name="uni25C1" format="2">
  <advance width="347"/>
  <unicode hex="25C1"/>
  <outline>
    <contour>
      <point x="36" y="299" type="line"/>
      <point x="293" y="182" type="line"/>
      <point x="293" y="417" type="line"/>
    </contour>
    <contour>
      <point x="83" y="299" type="line"/>
      <point x="273" y="386" type="line"/>
      <point x="273" y="213" type="line"/>
    </contour>
  </outline>
</glyph>
<glyph name="uni25C6" format="2">
  <advance width="347"/>
  <unicode hex="25C6"/>
  <outline>
    <contour>
      <point x="32" y="313" type="line"/>
      <point x="179" y="165" type="line"/>
      <point x="327" y="313" type="line"/>
      <point x="179" y="460" type="line"/>
    </contour>
  </outline>
</glyph>
<glyph name="circle" format="2">
  <advance width="347"/>
  <unicode hex="25CB"/>
  <outline>
    <contour>
      <point x="59" y="310" type="curve" smooth="yes"/>
      <point x="59" y="244"/>
      <point x="113" y="190"/>
      <point x="179" y="190" type="curve" smooth="yes"/>
      <point x="245" y="190"/>
      <point x="299" y="244"/>
      <point x="299" y="310" type="curve" smooth="yes"/>
      <point x="299" y="376"/>
      <point x="245" y="430"/>
      <point x="179" y="430" type="curve" smooth="yes"/>
      <point x="113" y="430"/>
      <point x="59" y="376"/>
    </contour>
    <contour>
      <point x="79" y="310" type="curve" smooth="yes"/>
      <point x="79" y="365"/>
      <point x="123" y="410"/>
      <point x="179" y="410" type="curve" smooth="yes"/>
      <point x="234" y="410"/>
      <point x="279" y="365"/>
      <point x="279" y="310" type="curve" smooth="yes"/>
      <point x="279" y="254"/>
      <point x="234" y="210"/>
      <point x="179" y="210" type="curve" smooth="yes"/>
      <point x="123" y="210"/>
      <point x="79" y="254"/>
    </contour>
  </outline>
</glyph>
<glyph name="uni2781" format="2">
  <advance width="310"/>
  <unicode hex="2781"/>
  <outline>
    <contour>
      <point x="110" y="160" type="line"/>
      <point x="232" y="160" type="line"/>
      <point x="232" y="176" type="line"/>
      <point x="125" y="176" type="line"/>
      <point x="192" y="335"/>
      <point x="214" y="408"/>
      <point x="214" y="473" type="curve" smooth="yes"/>
      <point x="214" y="529"/>
      <point x="193" y="562"/>
      <point x="156" y="562" type="curve" smooth="yes"/>
      <point x="136" y="562"/>
      <point x="117" y="553"/>
      <point x="102" y="532" type="curve"/>
      <point x="110" y="520" type="line"/>
      <point x="129" y="541"/>
      <point x="138" y="546"/>
      <point x="155" y="546" type="curve" smooth="yes"/>
      <point x="180" y="546"/>
      <point x="196" y="518"/>
      <point x="196" y="473" type="curve" smooth="yes"/>
      <point x="196" y="411"/>
      <point x="175" y="334"/>
      <point x="107" y="174" type="curve"/>
    </contour>
    <contour>
      <point x="167" y="-10" type="curve" smooth="yes"/>
      <point x="244" y="-10"/>
      <point x="277" y="70"/>
      <point x="277" y="350" type="curve" smooth="yes"/>
      <point x="277" y="631"/>
      <point x="244" y="710"/>
      <point x="167" y="710" type="curve" smooth="yes"/>
      <point x="90" y="710"/>
      <point x="57" y="631"/>
      <point x="57" y="350" type="curve" smooth="yes"/>
      <point x="57" y="70"/>
      <point x="90" y="-10"/>
    </contour>
    <contour>
      <point x="167" y="693" type="curve" smooth="yes"/>
      <point x="230" y="693"/>
      <point x="260" y="615"/>
      <point x="260" y="350" type="curve" smooth="yes"/>
      <point x="260" y="86"/>
      <point x="230" y="7"/>
      <point x="167" y="7" type="curve" smooth="yes"/>
      <point x="104" y="7"/>
      <point x="74" y="86"/>
      <point x="74" y="350" type="curve" smooth="yes"/>
      <point x="74" y="615"/>
      <point x="104" y="693"/>
    </contour>
  </outline>
</glyph>
<glyph name="uni2785" format="2">
  <advance width="310"/>
  <unicode hex="2785"/>
  <outline>
    <contour>
      <point x="118" y="338" type="curve"/>
      <point x="119" y="481"/>
      <point x="136" y="543"/>
      <point x="176" y="543" type="curve" smooth="yes"/>
      <point x="188" y="543"/>
      <point x="202" y="536"/>
      <point x="213" y="526" type="curve"/>
      <point x="221" y="539" type="line"/>
      <point x="208" y="551"/>
      <point x="191" y="558"/>
      <point x="177" y="558" type="curve" smooth="yes"/>
      <point x="124" y="558"/>
      <point x="101" y="491"/>
      <point x="101" y="338" type="curve" smooth="yes"/>
      <point x="101" y="205"/>
      <point x="121" y="148"/>
      <point x="167" y="148" type="curve" smooth="yes"/>
      <point x="207" y="148"/>
      <point x="231" y="194"/>
      <point x="231" y="268" type="curve" smooth="yes"/>
      <point x="231" y="337"/>
      <point x="208" y="381"/>
      <point x="172" y="381" type="curve" smooth="yes"/>
      <point x="147" y="381"/>
      <point x="125" y="359"/>
    </contour>
    <contour>
      <point x="170" y="366" type="curve" smooth="yes"/>
      <point x="196" y="366"/>
      <point x="213" y="328"/>
      <point x="213" y="266" type="curve" smooth="yes"/>
      <point x="213" y="202"/>
      <point x="195" y="163"/>
      <point x="166" y="163" type="curve" smooth="yes"/>
      <point x="136" y="163"/>
      <point x="122" y="206"/>
      <point x="119" y="305" type="curve"/>
      <point x="127" y="343"/>
      <point x="148" y="366"/>
    </contour>
    <contour>
      <point x="167" y="-10" type="curve" smooth="yes"/>
      <point x="244" y="-10"/>
      <point x="277" y="70"/>
      <point x="277" y="350" type="curve" smooth="yes"/>
      <point x="277" y="631"/>
      <point x="244" y="710"/>
      <point x="167" y="710" type="curve" smooth="yes"/>
      <point x="90" y="710"/>
      <point x="57" y="631"/>
      <point x="57" y="350" type="curve" smooth="yes"/>
      <point x="57" y="70"/>
      <point x="90" y="-10"/>
    </contour>
    <contour>
      <point x="167" y="693" type="curve" smooth="yes"/>
      <point x="230" y="693"/>
      <point x="260" y="615"/>
      <point x="260" y="350" type="curve" smooth="yes"/>
      <point x="260" y="86"/>
      <point x="230" y="7"/>
      <point x="167" y="7" type="curve" smooth="yes"/>
      <point x="104" y="7"/>
      <point x="74" y="86"/>
      <point x="74" y="350" type="curve" smooth="yes"/>
      <point x="74" y="615"/>
      <point x="104" y="693"/>
    </contour>
  </outline>
</glyph>
<glyph name="uni278A" format="2">
  <advance width="310"/>
  <unicode hex="278A"/>
  <outline>
    <contour>
      <point x="167" y="-10" type="curve" smooth="yes"/>
      <point x="244" y="-10"/>
      <point x="277" y="70"/>
      <point x="277" y="350" type="curve" smooth="yes"/>
      <point x="277" y="631"/>
      <point x="244" y="710"/>
      <point x="167" y="710" type="curve" smooth="yes"/>
      <point x="90" y="710"/>
      <point x="57" y="631"/>
      <point x="57" y="350" type="curve" smooth="yes"/>
      <point x="57" y="70"/>
      <point x="90" y="-10"/>
    </contour>
    <contour>
      <point x="95" y="160" type="line"/>
      <point x="95" y="177" type="line"/>
      <point x="164" y="177" type="line"/>
      <point x="164" y="528" type="line"/>
      <point x="103" y="473" type="line"/>
      <point x="95" y="488" type="line"/>
      <point x="173" y="556" type="line"/>
      <point x="183" y="556" type="line"/>
      <point x="183" y="177" type="line"/>
      <point x="246" y="177" type="line"/>
      <point x="246" y="160" type="line"/>
    </contour>
  </outline>
</glyph>
<glyph name="uni278D" format="2">
  <advance width="310"/>
  <unicode hex="278D"/>
  <outline>
    <contour>
      <point x="167" y="-10" type="curve" smooth="yes"/>
      <point x="244" y="-10"/>
      <point x="277" y="70"/>
      <point x="277" y="350" type="curve" smooth="yes"/>
      <point x="277" y="631"/>
      <point x="244" y="710"/>
      <point x="167" y="710" type="curve" smooth="yes"/>
      <point x="90" y="710"/>
      <point x="57" y="631"/>
      <point x="57" y="350" type="curve" smooth="yes"/>
      <point x="57" y="70"/>
      <point x="90" y="-10"/>
    </contour>
    <contour>
      <point x="111" y="281" type="line"/>
      <point x="183" y="281" type="line"/>
      <point x="183" y="510" type="line"/>
    </contour>
    <contour>
      <point x="183" y="160" type="line"/>
      <point x="183" y="265" type="line"/>
      <point x="101" y="265" type="line"/>
      <point x="94" y="280" type="line"/>
      <point x="182" y="559" type="line"/>
      <point x="201" y="557" type="line"/>
      <point x="201" y="281" type="line"/>
      <point x="234" y="281" type="line"/>
      <point x="234" y="265" type="line"/>
      <point x="201" y="265" type="line"/>
      <point x="201" y="160" type="line"/>
    </contour>
  </outline>
</glyph>
<glyph name="uni278E" format="2">
  <advance width="310"/>
  <unicode hex="278E"/>
  <outline>
    <contour>
      <point x="167" y="-10" type="curve" smooth="yes"/>
      <point x="244" y="-10"/>
      <point x="277" y="70"/>
      <point x="277" y="350" type="curve" smooth="yes"/>
      <point x="277" y="631"/>
      <point x="244" y="710"/>
      <point x="167" y="710" type="curve" smooth="yes"/>
      <point x="90" y="710"/>
      <point x="57" y="631"/>
      <point x="57" y="350" type="curve" smooth="yes"/>
      <point x="57" y="70"/>
      <point x="90" y="-10"/>
    </contour>
    <contour>
      <point x="157" y="147" type="curve" smooth="yes"/>
      <point x="137" y="147"/>
      <point x="118" y="156"/>
      <point x="105" y="174" type="curve"/>
      <point x="115" y="185" type="line"/>
      <point x="124" y="174"/>
      <point x="137" y="164"/>
      <point x="156" y="164" type="curve" smooth="yes"/>
      <point x="191" y="164"/>
      <point x="213" y="198"/>
      <point x="213" y="262" type="curve" smooth="yes"/>
      <point x="213" y="314"/>
      <point x="196" y="352"/>
      <point x="162" y="352" type="curve" smooth="yes"/>
      <point x="123" y="352" type="line"/>
      <point x="117" y="358" type="line"/>
      <point x="127" y="548" type="line"/>
      <point x="216" y="548" type="line"/>
      <point x="216" y="531" type="line"/>
      <point x="143" y="531" type="line"/>
      <point x="136" y="368" type="line"/>
      <point x="165" y="368" type="line" smooth="yes"/>
      <point x="210" y="368"/>
      <point x="232" y="324"/>
      <point x="232" y="262" type="curve" smooth="yes"/>
      <point x="232" y="188"/>
      <point x="203" y="147"/>
    </contour>
  </outline>
</glyph>
<glyph name="uni2790" format="2">
  <advance width="310"/>
  <unicode hex="2790"/>
  <outline>
    <contour>
      <point x="167" y="-10" type="curve" smooth="yes"/>
      <point x="244" y="-10"/>
      <point x="277" y="70"/>
      <point x="277" y="350" type="curve" smooth="yes"/>
      <point x="277" y="631"/>
      <point x="244" y="710"/>
      <point x="167" y="710" type="curve" smooth="yes"/>
      <point x="90" y="710"/>
      <point x="57" y="631"/>
      <point x="57" y="350" type="curve" smooth="yes"/>
      <point x="57" y="70"/>
      <point x="90" y="-10"/>
    </contour>
    <contour>
      <point x="148" y="160" type="line"/>
      <point x="148" y="256"/>
      <point x="156" y="319"/>
      <point x="180" y="406" type="curve" smooth="yes"/>
      <point x="214" y="533" type="line"/>
      <point x="103" y="533" type="line"/>
      <point x="103" y="550" type="line"/>
      <point x="231" y="550" type="line"/>
      <point x="231" y="536" type="line"/>
      <point x="194" y="398" type="line" smooth="yes"/>
      <point x="172" y="314"/>
      <point x="164" y="252"/>
      <point x="164" y="160" type="curve"/>
    </contour>
  </outline>
</glyph>
<glyph name="uni2791" format="2">
  <advance width="310"/>
  <unicode hex="2791"/>
  <outline>
    <contour>
      <point x="167" y="-10" type="curve" smooth="yes"/>
      <point x="244" y="-10"/>
      <point x="277" y="70"/>
      <point x="277" y="350" type="curve" smooth="yes"/>
      <point x="277" y="631"/>
      <point x="244" y="710"/>
      <point x="167" y="710" type="curve" smooth="yes"/>
      <point x="90" y="710"/>
      <point x="57" y="631"/>
      <point x="57" y="350" type="curve" smooth="yes"/>
      <point x="57" y="70"/>
      <point x="90" y="-10"/>
    </contour>
    <contour>
      <point x="169" y="164" type="curve" smooth="yes"/>
      <point x="200" y="164"/>
      <point x="218" y="193"/>
      <point x="218" y="245" type="curve" smooth="yes"/>
      <point x="218" y="311"/>
      <point x="188" y="335"/>
      <point x="160" y="359" type="curve"/>
      <point x="132" y="335"/>
      <point x="119" y="300"/>
      <point x="119" y="253" type="curve" smooth="yes"/>
      <point x="119" y="196"/>
      <point x="137" y="164"/>
    </contour>
    <contour>
      <point x="168" y="149" type="curve" smooth="yes"/>
      <point x="125" y="149"/>
      <point x="101" y="185"/>
      <point x="101" y="251" type="curve" smooth="yes"/>
      <point x="101" y="301"/>
      <point x="116" y="339"/>
      <point x="150" y="368" type="curve"/>
      <point x="128" y="388"/>
      <point x="109" y="412"/>
      <point x="109" y="460" type="curve" smooth="yes"/>
      <point x="109" y="523"/>
      <point x="131" y="559"/>
      <point x="169" y="559" type="curve" smooth="yes"/>
      <point x="205" y="559"/>
      <point x="228" y="522"/>
      <point x="228" y="465" type="curve" smooth="yes"/>
      <point x="228" y="421"/>
      <point x="216" y="389"/>
      <point x="184" y="359" type="curve"/>
      <point x="210" y="337"/>
      <point x="235" y="310"/>
      <point x="235" y="245" type="curve" smooth="yes"/>
      <point x="235" y="185"/>
      <point x="210" y="149"/>
    </contour>
    <contour>
      <point x="174" y="368" type="curve"/>
      <point x="201" y="394"/>
      <point x="212" y="423"/>
      <point x="212" y="463" type="curve" smooth="yes"/>
      <point x="212" y="515"/>
      <point x="197" y="543"/>
      <point x="169" y="543" type="curve" smooth="yes"/>
      <point x="142" y="543"/>
      <point x="126" y="514"/>
      <point x="126" y="465" type="curve" smooth="yes"/>
      <point x="126" y="412"/>
      <point x="149" y="390"/>
    </contour>
  </outline>
</glyph>
<glyph name="uni2792" format="2">
  <advance width="310"/>
  <unicode hex="2792"/>
  <outline>
    <contour>
      <point x="167" y="-10" type="curve" smooth="yes"/>
      <point x="244" y="-10"/>
      <point x="277" y="70"/>
      <point x="277" y="350" type="curve" smooth="yes"/>
      <point x="277" y="631"/>
      <point x="244" y="710"/>
      <point x="167" y="710" type="curve" smooth="yes"/>
      <point x="90" y="710"/>
      <point x="57" y="631"/>
      <point x="57" y="350" type="curve" smooth="yes"/>
      <point x="57" y="70"/>
      <point x="90" y="-10"/>
    </contour>
    <contour>
      <point x="156" y="148" type="curve" smooth="yes"/>
      <point x="141" y="148"/>
      <point x="125" y="155"/>
      <point x="111" y="167" type="curve"/>
      <point x="119" y="180" type="line"/>
      <point x="131" y="170"/>
      <point x="144" y="163"/>
      <point x="157" y="163" type="curve" smooth="yes"/>
      <point x="189" y="163"/>
      <point x="214" y="200"/>
      <point x="214" y="368" type="curve"/>
      <point x="207" y="346"/>
      <point x="185" y="325"/>
      <point x="165" y="325" type="curve" smooth="yes"/>
      <point x="124" y="325"/>
      <point x="102" y="368"/>
      <point x="102" y="439" type="curve" smooth="yes"/>
      <point x="102" y="511"/>
      <point x="125" y="559"/>
      <point x="166" y="559" type="curve" smooth="yes"/>
      <point x="208" y="559"/>
      <point x="232" y="514"/>
      <point x="232" y="369" type="curve" smooth="yes"/>
      <point x="232" y="186"/>
      <point x="199" y="148"/>
    </contour>
    <contour>
      <point x="165" y="341" type="curve" smooth="yes"/>
      <point x="185" y="341"/>
      <point x="205" y="363"/>
      <point x="214" y="402" type="curve"/>
      <point x="211" y="506"/>
      <point x="194" y="544"/>
      <point x="167" y="544" type="curve" smooth="yes"/>
      <point x="142" y="544"/>
      <point x="119" y="514"/>
      <point x="119" y="441" type="curve" smooth="yes"/>
      <point x="119" y="377"/>
      <point x="137" y="341"/>
    </contour>
  </outline>
</glyph>
<glyph name="uni2793" format="2">
  <advance width="310"/>
  <unicode hex="2793"/>
  <outline>
    <contour>
      <point x="167" y="-10" type="curve" smooth="yes"/>
      <point x="244" y="-10"/>
      <point x="277" y="70"/>
      <point x="277" y="350" type="curve" smooth="yes"/>
      <point x="277" y="631"/>
      <point x="244" y="710"/>
      <point x="167" y="710" type="curve" smooth="yes"/>
      <point x="90" y="710"/>
      <point x="57" y="631"/>
      <point x="57" y="350" type="curve" smooth="yes"/>
      <point x="57" y="70"/>
      <point x="90" y="-10"/>
    </contour>
    <contour>
      <point x="90" y="160" type="line"/>
      <point x="90" y="173" type="line"/>
      <point x="123" y="173" type="line"/>
      <point x="123" y="519" type="line"/>
      <point x="92" y="468" type="line"/>
      <point x="79" y="477" type="line"/>
      <point x="130" y="556" type="line"/>
      <point x="138" y="556" type="line"/>
      <point x="138" y="173" type="line"/>
      <point x="170" y="173" type="line"/>
      <point x="170" y="160" type="line"/>
    </contour>
    <contour>
      <point x="204" y="157" type="curve" smooth="yes"/>
      <point x="172" y="157"/>
      <point x="157" y="195"/>
      <point x="157" y="355" type="curve" smooth="yes"/>
      <point x="157" y="514"/>
      <point x="172" y="558"/>
      <point x="204" y="558" type="curve" smooth="yes"/>
      <point x="237" y="558"/>
      <point x="252" y="514"/>
      <point x="252" y="355" type="curve" smooth="yes"/>
      <point x="252" y="195"/>
      <point x="237" y="157"/>
    </contour>
    <contour>
      <point x="204" y="175" type="curve" smooth="yes"/>
      <point x="229" y="175"/>
      <point x="239" y="208"/>
      <point x="239" y="355" type="curve" smooth="yes"/>
      <point x="239" y="501"/>
      <point x="229" y="540"/>
      <point x="204" y="540" type="curve" smooth="yes"/>
      <point x="181" y="540"/>
      <point x="172" y="501"/>
      <point x="172" y="355" type="curve" smooth="yes"/>
      <point x="172" y="208"/>
      <point x="181" y="175"/>
    </contour>
  </outline>
</glyph>
<glyph name="a.sc" format="2">
  <advance width="237"/>
  <anchor x="72" y="0" name="bottom"/>
  <anchor x="180" y="0" name="ogonek"/>
  <anchor x="166" y="600" name="top"/>
  <outline>
    <contour>
      <point x="-31" y="0" type="line"/>
      <point x="-13" y="0" type="line"/>
      <point x="48" y="194" type="line"/>
      <point x="161" y="194" type="line"/>
      <point x="161" y="0" type="line"/>
      <point x="180" y="0" type="line"/>
      <point x="180" y="623" type="line"/>
      <point x="160" y="623" type="line"/>
    </contour>
    <contour>
      <point x="53" y="211" type="line"/>
      <point x="161" y="567" type="line"/>
      <point x="161" y="211" type="line"/>
    </contour>
  </outline>
</glyph>
<glyph name="a.superior" format="2">
  <advance width="172"/>
  <outline>
    <contour>
      <point x="190" y="664" type="curve"/>
      <point x="181" y="670"/>
      <point x="167" y="674"/>
      <point x="156" y="674" type="curve" smooth="yes"/>
      <point x="98" y="674"/>
      <point x="52" y="580"/>
      <point x="52" y="445" type="curve" smooth="yes"/>
      <point x="52" y="379"/>
      <point x="76" y="364"/>
      <point x="102" y="364" type="curve" smooth="yes"/>
      <point x="116" y="364"/>
      <point x="124" y="369"/>
      <point x="132" y="375" type="curve"/>
      <point x="135" y="369"/>
      <point x="142" y="364"/>
      <point x="154" y="364" type="curve" smooth="yes"/>
      <point x="161" y="364"/>
      <point x="172" y="367"/>
      <point x="180" y="371" type="curve"/>
      <point x="174" y="385" type="line"/>
      <point x="166" y="381"/>
      <point x="159" y="379"/>
      <point x="156" y="379" type="curve" smooth="yes"/>
      <point x="149" y="379"/>
      <point x="146" y="383"/>
      <point x="146" y="386" type="curve" smooth="yes"/>
      <point x="146" y="393"/>
      <point x="152" y="424"/>
    </contour>
    <contour>
      <point x="69" y="446" type="curve" smooth="yes"/>
      <point x="69" y="555"/>
      <point x="104" y="659"/>
      <point x="156" y="659" type="curve" smooth="yes"/>
      <point x="159" y="659"/>
      <point x="167" y="658"/>
      <point x="172" y="656" type="curve"/>
      <point x="130" y="390" type="line"/>
      <point x="123" y="385"/>
      <point x="112" y="381"/>
      <point x="101" y="381" type="curve" smooth="yes"/>
      <point x="74" y="381"/>
      <point x="69" y="417"/>
    </contour>
  </outline>
</glyph>
<glyph name="acutecomb.case" format="2">
  <anchor x="-84" y="700" name="_top"/>
  <anchor x="-30" y="885" name="top"/>
  <outline>
    <contour>
      <point x="-92" y="736" type="line"/>
      <point x="-75" y="736" type="line"/>
      <point x="8" y="885" type="line"/>
      <point x="-14" y="885" type="line"/>
    </contour>
  </outline>
</glyph>
<glyph name="at.sc" format="2">
  <advance width="276"/>
  <outline>
    <contour>
      <point x="102" y="-10" type="curve" smooth="yes"/>
      <point x="137" y="-10"/>
      <point x="161" y="9"/>
      <point x="180" y="52" type="curve"/>
      <point x="167" y="59" type="line"/>
      <point x="151" y="24"/>
      <point x="132" y="8"/>
      <point x="103" y="8" type="curve" smooth="yes"/>
      <point x="58" y="8"/>
      <point x="35" y="55"/>
      <point x="35" y="147" type="curve" smooth="yes"/>
      <point x="35" y="394"/>
      <point x="119" y="627"/>
      <point x="211" y="627" type="curve" smooth="yes"/>
      <point x="247" y="627"/>
      <point x="264" y="595"/>
      <point x="264" y="520" type="curve" smooth="yes"/>
      <point x="264" y="353"/>
      <point x="217" y="164"/>
      <point x="181" y="164" type="curve" smooth="yes"/>
      <point x="168" y="164"/>
      <point x="166" y="201"/>
      <point x="174" y="243" type="curve" smooth="yes"/>
      <point x="217" y="477" type="line"/>
      <point x="199" y="486"/>
      <point x="188" y="489"/>
      <point x="173" y="489" type="curve" smooth="yes"/>
      <point x="127" y="489"/>
      <point x="75" y="369"/>
      <point x="75" y="203" type="curve" smooth="yes"/>
      <point x="75" y="168"/>
      <point x="88" y="148"/>
      <point x="109" y="148" type="curve" smooth="yes"/>
      <point x="130" y="148"/>
      <point x="145" y="167"/>
      <point x="155" y="208" type="curve"/>
      <point x="153" y="166"/>
      <point x="161" y="146"/>
      <point x="180" y="146" type="curve" smooth="yes"/>
      <point x="231" y="146"/>
      <point x="281" y="343"/>
      <point x="281" y="521" type="curve" smooth="yes"/>
      <point x="281" y="610"/>
      <point x="261" y="644"/>
      <point x="209" y="644" type="curve" smooth="yes"/>
      <point x="108" y="644"/>
      <point x="17" y="406"/>
      <point x="17" y="141" type="curve" smooth="yes"/>
      <point x="17" y="43"/>
      <point x="47" y="-10"/>
    </contour>
    <contour>
      <point x="112" y="165" type="curve" smooth="yes"/>
      <point x="100" y="165"/>
      <point x="92" y="182"/>
      <point x="92" y="208" type="curve" smooth="yes"/>
      <point x="92" y="349"/>
      <point x="139" y="474"/>
      <point x="173" y="474" type="curve" smooth="yes"/>
      <point x="180" y="474"/>
      <point x="189" y="473"/>
      <point x="199" y="467" type="curve"/>
      <point x="163" y="283" type="line" smooth="yes"/>
      <point x="149" y="210"/>
      <point x="130" y="165"/>
    </contour>
  </outline>
</glyph>
<glyph name="b.sc" format="2">
  <advance width="246"/>
  <outline>
    <contour>
      <point x="2" y="-5" type="line"/>
      <point x="21" y="-8"/>
      <point x="42" y="-10"/>
      <point x="59" y="-10" type="curve" smooth="yes"/>
      <point x="149" y="-10"/>
      <point x="210" y="76"/>
      <point x="210" y="202" type="curve" smooth="yes"/>
      <point x="210" y="269"/>
      <point x="185" y="301"/>
      <point x="148" y="312" type="curve"/>
      <point x="217" y="340"/>
      <point x="246" y="434"/>
      <point x="246" y="515" type="curve" smooth="yes"/>
      <point x="246" y="581"/>
      <point x="216" y="623"/>
      <point x="163" y="623" type="curve" smooth="yes"/>
      <point x="140" y="623"/>
      <point x="121" y="621"/>
      <point x="100" y="618" type="curve"/>
    </contour>
    <contour>
      <point x="73" y="320" type="line"/>
      <point x="118" y="603" type="line"/>
      <point x="132" y="606"/>
      <point x="146" y="607"/>
      <point x="157" y="607" type="curve" smooth="yes"/>
      <point x="204" y="607"/>
      <point x="227" y="572"/>
      <point x="227" y="509" type="curve" smooth="yes"/>
      <point x="227" y="425"/>
      <point x="186" y="320"/>
      <point x="115" y="320" type="curve" smooth="yes"/>
    </contour>
    <contour>
      <point x="71" y="304" type="line"/>
      <point x="116" y="304" type="line" smooth="yes"/>
      <point x="163" y="304"/>
      <point x="190" y="268"/>
      <point x="190" y="205" type="curve" smooth="yes"/>
      <point x="190" y="85"/>
      <point x="139" y="8"/>
      <point x="60" y="8" type="curve" smooth="yes"/>
      <point x="49" y="8"/>
      <point x="38" y="9"/>
      <point x="24" y="11" type="curve"/>
    </contour>
  </outline>
</glyph>
<glyph name="b.superior" format="2">
  <advance width="167"/>
  <outline>
    <contour>
      <point x="57" y="373" type="line"/>
      <point x="71" y="367"/>
      <point x="81" y="364"/>
      <point x="94" y="364" type="curve" smooth="yes"/>
      <point x="160" y="364"/>
      <point x="196" y="488"/>
      <point x="196" y="592" type="curve" smooth="yes"/>
      <point x="196" y="652"/>
      <point x="181" y="675"/>
      <point x="150" y="675" type="curve" smooth="yes"/>
      <point x="139" y="675"/>
      <point x="130" y="672"/>
      <point x="121" y="667" type="curve"/>
      <point x="140" y="788" type="line"/>
      <point x="123" y="788" type="line"/>
    </contour>
    <contour>
      <point x="118" y="650" type="line"/>
      <point x="126" y="655"/>
      <point x="140" y="660"/>
      <point x="148" y="660" type="curve" smooth="yes"/>
      <point x="173" y="660"/>
      <point x="179" y="631"/>
      <point x="179" y="590" type="curve" smooth="yes"/>
      <point x="179" y="491"/>
      <point x="147" y="381"/>
      <point x="92" y="381" type="curve" smooth="yes"/>
      <point x="88" y="381"/>
      <point x="81" y="382"/>
      <point x="76" y="384" type="curve"/>
    </contour>
  </outline>
</glyph>
<glyph name="blacktriangle" format="2">
  <advance width="347"/>
  <outline>
    <contour>
      <point x="91" y="182" type="line"/>
      <point x="294" y="299" type="line"/>
      <point x="91" y="417" type="line"/>
    </contour>
  </outline>
</glyph>
<glyph name="braceleft.sc" format="2">
  <advance width="172"/>
  <outline>
    <contour>
      <point x="19" y="-46" type="curve" smooth="yes"/>
      <point x="19" y="-91"/>
      <point x="32" y="-125"/>
      <point x="64" y="-125" type="curve" smooth="yes"/>
      <point x="80" y="-125" type="line"/>
      <point x="83" y="-105" type="line"/>
      <point x="67" y="-105" type="line" smooth="yes"/>
      <point x="45" y="-105"/>
      <point x="36" y="-82"/>
      <point x="36" y="-48" type="curve" smooth="yes"/>
      <point x="36" y="63"/>
      <point x="105" y="153"/>
      <point x="105" y="256" type="curve" smooth="yes"/>
      <point x="105" y="277"/>
      <point x="101" y="298"/>
      <point x="90" y="307" type="curve"/>
      <point x="130" y="341"/>
      <point x="133" y="414"/>
      <point x="133" y="458" type="curve" smooth="yes"/>
      <point x="133" y="484"/>
      <point x="132" y="509"/>
      <point x="132" y="535" type="curve" smooth="yes"/>
      <point x="132" y="611"/>
      <point x="151" y="720"/>
      <point x="198" y="720" type="curve" smooth="yes"/>
      <point x="214" y="720" type="line"/>
      <point x="217" y="740" type="line"/>
      <point x="201" y="740" type="line" smooth="yes"/>
      <point x="138" y="740"/>
      <point x="114" y="621"/>
      <point x="114" y="537" type="curve" smooth="yes"/>
      <point x="114" y="507"/>
      <point x="116" y="481"/>
      <point x="116" y="453" type="curve" smooth="yes"/>
      <point x="116" y="419"/>
      <point x="107" y="317"/>
      <point x="75" y="317" type="curve" smooth="yes"/>
      <point x="58" y="317" type="line"/>
      <point x="55" y="297" type="line"/>
      <point x="72" y="297" type="line" smooth="yes"/>
      <point x="83" y="297"/>
      <point x="88" y="278"/>
      <point x="88" y="256" type="curve" smooth="yes"/>
      <point x="88" y="146"/>
      <point x="19" y="64"/>
    </contour>
  </outline>
</glyph>
<glyph name="c.sc" format="2">
  <advance width="213"/>
  <anchor x="110" y="0" name="bottom"/>
  <anchor x="193" y="600" name="top"/>
  <outline>
    <contour>
      <point x="21" y="133" type="curve" smooth="yes"/>
      <point x="21" y="37"/>
      <point x="50" y="-10"/>
      <point x="110" y="-10" type="curve" smooth="yes"/>
      <point x="127" y="-10"/>
      <point x="145" y="-7"/>
      <point x="170" y="2" type="curve"/>
      <point x="166" y="19" type="line"/>
      <point x="145" y="11"/>
      <point x="129" y="8"/>
      <point x="113" y="8" type="curve" smooth="yes"/>
      <point x="64" y="8"/>
      <point x="40" y="49"/>
      <point x="40" y="133" type="curve" smooth="yes"/>
      <point x="40" y="390"/>
      <point x="114" y="604"/>
      <point x="203" y="604" type="curve" smooth="yes"/>
      <point x="218" y="604"/>
      <point x="231" y="602"/>
      <point x="244" y="597" type="curve"/>
      <point x="250" y="615" type="line"/>
      <point x="234" y="620"/>
      <point x="219" y="623"/>
      <point x="205" y="623" type="curve" smooth="yes"/>
      <point x="100" y="623"/>
      <point x="21" y="412"/>
    </contour>
  </outline>
</glyph>
<glyph name="centsuperior" format="2">
  <advance width="147"/>
  <outline>
    <contour>
      <point x="85" y="307" type="line"/>
      <point x="100" y="307" type="line"/>
      <point x="110" y="360" type="line"/>
      <point x="118" y="360"/>
      <point x="124" y="362"/>
      <point x="135" y="366" type="curve"/>
      <point x="133" y="381" type="line"/>
      <point x="128" y="378"/>
      <point x="116" y="376"/>
      <point x="107" y="376" type="curve" smooth="yes"/>
      <point x="83" y="376"/>
      <point x="74" y="393"/>
      <point x="74" y="436" type="curve" smooth="yes"/>
      <point x="74" y="550"/>
      <point x="109" y="660"/>
      <point x="151" y="660" type="curve" smooth="yes"/>
      <point x="160" y="660"/>
      <point x="165" y="658"/>
      <point x="174" y="656" type="curve"/>
      <point x="180" y="670" type="line"/>
      <point x="174" y="673"/>
      <point x="171" y="674"/>
      <point x="163" y="675" type="curve"/>
      <point x="172" y="730" type="line"/>
      <point x="155" y="730" type="line"/>
      <point x="145" y="674" type="line"/>
      <point x="98" y="669"/>
      <point x="57" y="558"/>
      <point x="57" y="434" type="curve" smooth="yes"/>
      <point x="57" y="392"/>
      <point x="69" y="367"/>
      <point x="93" y="361" type="curve"/>
    </contour>
  </outline>
</glyph>
<glyph name="dollarsuperior" format="2">
  <advance width="124"/>
  <outline>
    <contour>
      <point x="49" y="307" type="line"/>
      <point x="65" y="307" type="line"/>
      <point x="75" y="361" type="line"/>
      <point x="117" y="365"/>
      <point x="146" y="408"/>
      <point x="146" y="466" type="curve" smooth="yes"/>
      <point x="146" y="539"/>
      <point x="93" y="598"/>
      <point x="93" y="668" type="curve" smooth="yes"/>
      <point x="93" y="719"/>
      <point x="115" y="755"/>
      <point x="146" y="755" type="curve" smooth="yes"/>
      <point x="161" y="755"/>
      <point x="168" y="753"/>
      <point x="178" y="749" type="curve"/>
      <point x="185" y="762" type="line"/>
      <point x="178" y="766"/>
      <point x="166" y="770"/>
      <point x="155" y="772" type="curve"/>
      <point x="165" y="826" type="line"/>
      <point x="148" y="826" type="line"/>
      <point x="140" y="771" type="line"/>
      <point x="102" y="766"/>
      <point x="75" y="723"/>
      <point x="75" y="667" type="curve" smooth="yes"/>
      <point x="75" y="593"/>
      <point x="128" y="534"/>
      <point x="128" y="463" type="curve" smooth="yes"/>
      <point x="128" y="413"/>
      <point x="103" y="378"/>
      <point x="68" y="378" type="curve" smooth="yes"/>
      <point x="55" y="378"/>
      <point x="43" y="379"/>
      <point x="31" y="387" type="curve"/>
      <point x="21" y="371" type="line"/>
      <point x="30" y="366"/>
      <point x="43" y="361"/>
      <point x="58" y="360" type="curve"/>
    </contour>
  </outline>
</glyph>
<glyph name="e.superior" format="2">
  <advance width="148"/>
  <outline>
    <contour>
      <point x="68" y="519" type="curve"/>
      <point x="66" y="503" type="line"/>
      <point x="83" y="506"/>
      <point x="100" y="512"/>
      <point x="116" y="520" type="curve" smooth="yes"/>
      <point x="161" y="542"/>
      <point x="191" y="589"/>
      <point x="191" y="632" type="curve" smooth="yes"/>
      <point x="191" y="659"/>
      <point x="177" y="675"/>
      <point x="152" y="675" type="curve" smooth="yes"/>
      <point x="95" y="675"/>
      <point x="54" y="588"/>
      <point x="54" y="462" type="curve" smooth="yes"/>
      <point x="54" y="399"/>
      <point x="76" y="364"/>
      <point x="114" y="364" type="curve" smooth="yes"/>
      <point x="131" y="364"/>
      <point x="150" y="368"/>
      <point x="161" y="377" type="curve"/>
      <point x="155" y="392" type="line"/>
      <point x="144" y="384"/>
      <point x="130" y="380"/>
      <point x="116" y="380" type="curve" smooth="yes"/>
      <point x="88" y="380"/>
      <point x="70" y="407"/>
      <point x="70" y="463" type="curve" smooth="yes"/>
      <point x="70" y="576"/>
      <point x="106" y="660"/>
      <point x="151" y="660" type="curve" smooth="yes"/>
      <point x="169" y="660"/>
      <point x="175" y="648"/>
      <point x="175" y="630" type="curve" smooth="yes"/>
      <point x="175" y="595"/>
      <point x="151" y="558"/>
      <point x="116" y="537" type="curve" smooth="yes"/>
      <point x="101" y="528"/>
      <point x="85" y="522"/>
    </contour>
  </outline>
</glyph>
<glyph name="eurosuperior" format="2">
  <advance width="128"/>
  <outline>
    <contour>
      <point x="109" y="378" type="curve" smooth="yes"/>
      <point x="89" y="378"/>
      <point x="77" y="394"/>
      <point x="77" y="439" type="curve" smooth="yes"/>
      <point x="77" y="536"/>
      <point x="120" y="757"/>
      <point x="172" y="757" type="curve" smooth="yes"/>
      <point x="180" y="757"/>
      <point x="187" y="756"/>
      <point x="198" y="751" type="curve"/>
      <point x="204" y="768" type="line"/>
      <point x="192" y="773"/>
      <point x="182" y="774"/>
      <point x="172" y="774" type="curve" smooth="yes"/>
      <point x="100" y="774"/>
      <point x="60" y="538"/>
      <point x="60" y="439" type="curve" smooth="yes"/>
      <point x="60" y="383"/>
      <point x="75" y="361"/>
      <point x="108" y="361" type="curve" smooth="yes"/>
      <point x="118" y="361"/>
      <point x="128" y="362"/>
      <point x="141" y="367" type="curve"/>
      <point x="140" y="385" type="line"/>
      <point x="127" y="380"/>
      <point x="119" y="378"/>
    </contour>
    <contour>
      <point x="150" y="604" type="line"/>
      <point x="155" y="621" type="line"/>
      <point x="68" y="621" type="line"/>
      <point x="63" y="604" type="line"/>
    </contour>
    <contour>
      <point x="138" y="515" type="line"/>
      <point x="140" y="531" type="line"/>
      <point x="52" y="531" type="line"/>
      <point x="50" y="515" type="line"/>
    </contour>
  </outline>
</glyph>
<glyph name="f.superior" format="2">
  <advance width="91"/>
  <outline>
    <contour>
      <point x="109" y="628" type="line"/>
      <point x="154" y="628" type="line"/>
      <point x="156" y="645" type="line"/>
      <point x="111" y="645" type="line"/>
      <point x="129" y="762"/>
      <point x="151" y="778"/>
      <point x="178" y="778" type="curve" smooth="yes"/>
      <point x="185" y="778"/>
      <point x="191" y="777"/>
      <point x="201" y="773" type="curve"/>
      <point x="207" y="789" type="line"/>
      <point x="195" y="793"/>
      <point x="187" y="794"/>
      <point x="180" y="794" type="curve" smooth="yes"/>
      <point x="125" y="794"/>
      <point x="107" y="733"/>
      <point x="94" y="645" type="curve"/>
      <point x="61" y="641" type="line"/>
      <point x="59" y="628" type="line"/>
      <point x="91" y="628" type="line"/>
      <point x="45" y="335" type="line" smooth="yes"/>
      <point x="38" y="292"/>
      <point x="27" y="260"/>
      <point x="-3" y="260" type="curve" smooth="yes"/>
      <point x="-11" y="260"/>
      <point x="-19" y="261"/>
      <point x="-30" y="265" type="curve"/>
      <point x="-32" y="251" type="line"/>
      <point x="-23" y="247"/>
      <point x="-14" y="246"/>
      <point x="-2" y="246" type="curve" smooth="yes"/>
      <point x="34" y="246"/>
      <point x="53" y="277"/>
      <point x="62" y="333" type="curve" smooth="yes"/>
    </contour>
  </outline>
</glyph>
<glyph name="f_f_h.liga" format="2">
  <advance width="537"/>
  <outline>
    <contour>
      <point x="-79" y="-220" type="curve" smooth="yes"/>
      <point x="-17" y="-220"/>
      <point x="14" y="-167"/>
      <point x="29" y="-71" type="curve" smooth="yes"/>
      <point x="114" y="465" type="line"/>
      <point x="225" y="465" type="line"/>
      <point x="141" y="-66" type="line" smooth="yes"/>
      <point x="128" y="-148"/>
      <point x="108" y="-203"/>
      <point x="53" y="-203" type="curve" smooth="yes"/>
      <point x="44" y="-203"/>
      <point x="36" y="-202"/>
      <point x="25" y="-200" type="curve"/>
      <point x="21" y="-216" type="line"/>
      <point x="31" y="-219"/>
      <point x="43" y="-220"/>
      <point x="56" y="-220" type="curve" smooth="yes"/>
      <point x="115" y="-220"/>
      <point x="144" y="-167"/>
      <point x="159" y="-71" type="curve" smooth="yes"/>
      <point x="244" y="465" type="line"/>
      <point x="316" y="465" type="line"/>
      <point x="319" y="484" type="line"/>
      <point x="247" y="484" type="line"/>
      <point x="280" y="696"/>
      <point x="322" y="731"/>
      <point x="373" y="731" type="curve" smooth="yes"/>
      <point x="380" y="731"/>
      <point x="388" y="730"/>
      <point x="396" y="729" type="curve"/>
      <point x="282" y="0" type="line"/>
      <point x="300" y="0" type="line"/>
      <point x="378" y="496" type="line"/>
      <point x="398" y="511"/>
      <point x="432" y="522"/>
      <point x="451" y="522" type="curve" smooth="yes"/>
      <point x="490" y="522"/>
      <point x="499" y="498"/>
      <point x="499" y="468" type="curve" smooth="yes"/>
      <point x="499" y="444"/>
      <point x="435" y="65"/>
      <point x="435" y="28" type="curve" smooth="yes"/>
      <point x="435" y="3"/>
      <point x="453" y="-10"/>
      <point x="473" y="-10" type="curve" smooth="yes"/>
      <point x="483" y="-10"/>
      <point x="493" y="-9"/>
      <point x="507" y="-2" type="curve"/>
      <point x="503" y="13" type="line"/>
      <point x="491" y="8"/>
      <point x="484" y="7"/>
      <point x="478" y="7" type="curve" smooth="yes"/>
      <point x="459" y="7"/>
      <point x="453" y="16"/>
      <point x="453" y="31" type="curve" smooth="yes"/>
      <point x="453" y="62"/>
      <point x="519" y="445"/>
      <point x="519" y="471" type="curve" smooth="yes"/>
      <point x="519" y="510"/>
      <point x="503" y="540"/>
      <point x="459" y="540" type="curve" smooth="yes"/>
      <point x="434" y="540"/>
      <point x="403" y="530"/>
      <point x="382" y="517" type="curve"/>
      <point x="416" y="740" type="line"/>
      <point x="402" y="749"/>
      <point x="388" y="750"/>
      <point x="376" y="750" type="curve" smooth="yes"/>
      <point x="347" y="750"/>
      <point x="324" y="739"/>
      <point x="306" y="720" type="curve"/>
      <point x="282" y="735"/>
      <point x="264" y="740"/>
      <point x="242" y="740" type="curve" smooth="yes"/>
      <point x="166" y="740"/>
      <point x="127" y="670"/>
      <point x="98" y="484" type="curve"/>
      <point x="40" y="478" type="line"/>
      <point x="38" y="465" type="line"/>
      <point x="95" y="465" type="line"/>
      <point x="11" y="-66" type="line" smooth="yes"/>
      <point x="-2" y="-148"/>
      <point x="-24" y="-203"/>
      <point x="-82" y="-203" type="curve" smooth="yes"/>
      <point x="-96" y="-203"/>
      <point x="-107" y="-201"/>
      <point x="-123" y="-196" type="curve"/>
      <point x="-127" y="-213" type="line"/>
      <point x="-113" y="-218"/>
      <point x="-98" y="-220"/>
    </contour>
    <contour>
      <point x="117" y="484" type="line"/>
      <point x="144" y="660"/>
      <point x="178" y="722"/>
      <point x="247" y="722" type="curve" smooth="yes"/>
      <point x="257" y="722"/>
      <point x="273" y="718"/>
      <point x="294" y="705" type="curve"/>
      <point x="260" y="659"/>
      <point x="243" y="579"/>
      <point x="228" y="484" type="curve"/>
    </contour>
  </outline>
</glyph>
<glyph name="f_f_k.liga" format="2">
  <advance width="524"/>
  <outline>
    <contour>
      <point x="-79" y="-220" type="curve" smooth="yes"/>
      <point x="-17" y="-220"/>
      <point x="14" y="-167"/>
      <point x="29" y="-71" type="curve" smooth="yes"/>
      <point x="114" y="465" type="line"/>
      <point x="225" y="465" type="line"/>
      <point x="141" y="-66" type="line" smooth="yes"/>
      <point x="128" y="-148"/>
      <point x="108" y="-203"/>
      <point x="53" y="-203" type="curve" smooth="yes"/>
      <point x="44" y="-203"/>
      <point x="36" y="-202"/>
      <point x="25" y="-200" type="curve"/>
      <point x="21" y="-216" type="line"/>
      <point x="31" y="-219"/>
      <point x="43" y="-220"/>
      <point x="56" y="-220" type="curve" smooth="yes"/>
      <point x="115" y="-220"/>
      <point x="144" y="-167"/>
      <point x="159" y="-71" type="curve" smooth="yes"/>
      <point x="244" y="465" type="line"/>
      <point x="316" y="465" type="line"/>
      <point x="319" y="484" type="line"/>
      <point x="247" y="484" type="line"/>
      <point x="280" y="696"/>
      <point x="322" y="731"/>
      <point x="373" y="731" type="curve" smooth="yes"/>
      <point x="380" y="731"/>
      <point x="389" y="730"/>
      <point x="397" y="729" type="curve"/>
      <point x="283" y="0" type="line"/>
      <point x="301" y="0" type="line"/>
      <point x="418" y="743" type="line"/>
      <point x="402" y="748"/>
      <point x="388" y="750"/>
      <point x="376" y="750" type="curve" smooth="yes"/>
      <point x="347" y="750"/>
      <point x="324" y="739"/>
      <point x="306" y="720" type="curve"/>
      <point x="282" y="735"/>
      <point x="264" y="740"/>
      <point x="242" y="740" type="curve" smooth="yes"/>
      <point x="166" y="740"/>
      <point x="127" y="670"/>
      <point x="98" y="484" type="curve"/>
      <point x="40" y="478" type="line"/>
      <point x="38" y="465" type="line"/>
      <point x="95" y="465" type="line"/>
      <point x="11" y="-66" type="line" smooth="yes"/>
      <point x="-2" y="-148"/>
      <point x="-24" y="-203"/>
      <point x="-82" y="-203" type="curve" smooth="yes"/>
      <point x="-96" y="-203"/>
      <point x="-107" y="-201"/>
      <point x="-123" y="-196" type="curve"/>
      <point x="-127" y="-213" type="line"/>
      <point x="-113" y="-218"/>
      <point x="-98" y="-220"/>
    </contour>
    <contour>
      <point x="117" y="484" type="line"/>
      <point x="144" y="660"/>
      <point x="178" y="722"/>
      <point x="247" y="722" type="curve" smooth="yes"/>
      <point x="257" y="722"/>
      <point x="273" y="718"/>
      <point x="294" y="705" type="curve"/>
      <point x="260" y="659"/>
      <point x="243" y="579"/>
      <point x="228" y="484" type="curve"/>
    </contour>
    <contour>
      <point x="486" y="-10" type="curve" smooth="yes"/>
      <point x="492" y="-10"/>
      <point x="498" y="-9"/>
      <point x="505" y="-6" type="curve"/>
      <point x="502" y="10" type="line"/>
      <point x="496" y="8"/>
      <point x="491" y="7"/>
      <point x="487" y="7" type="curve" smooth="yes"/>
      <point x="461" y="7"/>
      <point x="440" y="41"/>
      <point x="402" y="161" type="curve" smooth="yes"/>
      <point x="348" y="333" type="line"/>
      <point x="336" y="312" type="line"/>
      <point x="394" y="128" type="line" smooth="yes"/>
      <point x="428" y="19"/>
      <point x="451" y="-10"/>
    </contour>
    <contour>
      <point x="368" y="245" type="line"/>
      <point x="438" y="304"/>
      <point x="504" y="411"/>
      <point x="545" y="532" type="curve"/>
      <point x="528" y="539" type="line"/>
      <point x="484" y="414"/>
      <point x="432" y="326"/>
      <point x="363" y="264" type="curve"/>
    </contour>
  </outline>
</glyph>
<glyph name="f_f_l.liga" format="2">
  <advance width="403"/>
  <outline>
    <contour>
      <point x="-79" y="-220" type="curve" smooth="yes"/>
      <point x="-17" y="-220"/>
      <point x="14" y="-167"/>
      <point x="29" y="-71" type="curve" smooth="yes"/>
      <point x="114" y="465" type="line"/>
      <point x="225" y="465" type="line"/>
      <point x="141" y="-66" type="line" smooth="yes"/>
      <point x="128" y="-148"/>
      <point x="108" y="-203"/>
      <point x="53" y="-203" type="curve" smooth="yes"/>
      <point x="44" y="-203"/>
      <point x="36" y="-202"/>
      <point x="25" y="-200" type="curve"/>
      <point x="21" y="-216" type="line"/>
      <point x="31" y="-219"/>
      <point x="43" y="-220"/>
      <point x="56" y="-220" type="curve" smooth="yes"/>
      <point x="115" y="-220"/>
      <point x="144" y="-167"/>
      <point x="159" y="-71" type="curve" smooth="yes"/>
      <point x="244" y="465" type="line"/>
      <point x="326" y="465" type="line"/>
      <point x="329" y="484" type="line"/>
      <point x="247" y="484" type="line"/>
      <point x="280" y="696"/>
      <point x="322" y="731"/>
      <point x="373" y="731" type="curve" smooth="yes"/>
      <point x="380" y="731"/>
      <point x="388" y="730"/>
      <point x="396" y="729" type="curve"/>
      <point x="290" y="52" type="line" smooth="yes"/>
      <point x="288" y="39"/>
      <point x="287" y="30"/>
      <point x="287" y="20" type="curve" smooth="yes"/>
      <point x="287" y="4"/>
      <point x="299" y="-10"/>
      <point x="328" y="-10" type="curve" smooth="yes"/>
      <point x="342" y="-10"/>
      <point x="359" y="-7"/>
      <point x="374" y="-2" type="curve"/>
      <point x="370" y="13" type="line"/>
      <point x="353" y="8"/>
      <point x="340" y="6"/>
      <point x="331" y="6" type="curve" smooth="yes"/>
      <point x="310" y="6"/>
      <point x="305" y="13"/>
      <point x="305" y="22" type="curve" smooth="yes"/>
      <point x="305" y="30"/>
      <point x="313" y="76"/>
      <point x="313" y="76" type="curve"/>
      <point x="418" y="743" type="line"/>
      <point x="402" y="749"/>
      <point x="388" y="750"/>
      <point x="376" y="750" type="curve" smooth="yes"/>
      <point x="347" y="750"/>
      <point x="324" y="739"/>
      <point x="306" y="720" type="curve"/>
      <point x="282" y="735"/>
      <point x="264" y="740"/>
      <point x="242" y="740" type="curve" smooth="yes"/>
      <point x="166" y="740"/>
      <point x="127" y="670"/>
      <point x="98" y="484" type="curve"/>
      <point x="40" y="478" type="line"/>
      <point x="38" y="465" type="line"/>
      <point x="95" y="465" type="line"/>
      <point x="11" y="-66" type="line" smooth="yes"/>
      <point x="-2" y="-148"/>
      <point x="-24" y="-203"/>
      <point x="-82" y="-203" type="curve" smooth="yes"/>
      <point x="-96" y="-203"/>
      <point x="-107" y="-201"/>
      <point x="-123" y="-196" type="curve"/>
      <point x="-127" y="-213" type="line"/>
      <point x="-113" y="-218"/>
      <point x="-98" y="-220"/>
    </contour>
    <contour>
      <point x="117" y="484" type="line"/>
      <point x="144" y="660"/>
      <point x="178" y="722"/>
      <point x="247" y="722" type="curve" smooth="yes"/>
      <point x="257" y="722"/>
      <point x="273" y="718"/>
      <point x="294" y="705" type="curve"/>
      <point x="260" y="659"/>
      <point x="243" y="579"/>
      <point x="228" y="484" type="curve"/>
    </contour>
  </outline>
</glyph>
<glyph name="f_t.liga" format="2">
  <advance width="306"/>
  <outline>
    <contour>
      <point x="-79" y="-220" type="curve" smooth="yes"/>
      <point x="-17" y="-220"/>
      <point x="14" y="-167"/>
      <point x="29" y="-71" type="curve" smooth="yes"/>
      <point x="114" y="465" type="line"/>
      <point x="226" y="465" type="line"/>
      <point x="169" y="108" type="line" smooth="yes"/>
      <point x="166" y="91"/>
      <point x="165" y="75"/>
      <point x="165" y="61" type="curve" smooth="yes"/>
      <point x="165" y="19"/>
      <point x="180" y="-10"/>
      <point x="233" y="-10" type="curve" smooth="yes"/>
      <point x="245" y="-10"/>
      <point x="259" y="-8"/>
      <point x="275" y="-3" type="curve"/>
      <point x="270" y="14" type="line"/>
      <point x="258" y="11"/>
      <point x="246" y="9"/>
      <point x="236" y="9" type="curve" smooth="yes"/>
      <point x="200" y="9"/>
      <point x="184" y="27"/>
      <point x="184" y="67" type="curve" smooth="yes"/>
      <point x="184" y="79"/>
      <point x="186" y="92"/>
      <point x="188" y="108" type="curve" smooth="yes"/>
      <point x="245" y="465" type="line"/>
      <point x="347" y="465" type="line"/>
      <point x="350" y="484" type="line"/>
      <point x="248" y="484" type="line"/>
      <point x="289" y="743" type="line"/>
      <point x="273" y="749"/>
      <point x="258" y="750"/>
      <point x="246" y="750" type="curve" smooth="yes"/>
      <point x="169" y="750"/>
      <point x="128" y="677"/>
      <point x="98" y="484" type="curve"/>
      <point x="40" y="478" type="line"/>
      <point x="38" y="465" type="line"/>
      <point x="95" y="465" type="line"/>
      <point x="11" y="-66" type="line" smooth="yes"/>
      <point x="-2" y="-148"/>
      <point x="-24" y="-203"/>
      <point x="-82" y="-203" type="curve" smooth="yes"/>
      <point x="-96" y="-203"/>
      <point x="-107" y="-201"/>
      <point x="-123" y="-196" type="curve"/>
      <point x="-127" y="-213" type="line"/>
      <point x="-113" y="-218"/>
      <point x="-98" y="-220"/>
    </contour>
    <contour>
      <point x="117" y="484" type="line"/>
      <point x="145" y="662"/>
      <point x="180" y="731"/>
      <point x="243" y="731" type="curve" smooth="yes"/>
      <point x="252" y="731"/>
      <point x="262" y="730"/>
      <point x="271" y="728" type="curve"/>
      <point x="229" y="484" type="line"/>
    </contour>
  </outline>
</glyph>
<glyph name="g.sc" format="2">
  <advance width="229"/>
  <anchor x="112" y="0" name="bottom"/>
  <anchor x="189" y="600" name="top"/>
  <outline>
    <contour>
      <point x="22" y="154" type="curve" smooth="yes"/>
      <point x="22" y="31"/>
      <point x="49" y="-10"/>
      <point x="111" y="-10" type="curve" smooth="yes"/>
      <point x="125" y="-10"/>
      <point x="147" y="-7"/>
      <point x="158" y="-3" type="curve"/>
      <point x="205" y="298" type="line"/>
      <point x="123" y="298" type="line"/>
      <point x="120" y="282" type="line"/>
      <point x="184" y="282" type="line"/>
      <point x="141" y="12" type="line"/>
      <point x="130" y="10"/>
      <point x="123" y="8"/>
      <point x="112" y="8" type="curve" smooth="yes"/>
      <point x="63" y="8"/>
      <point x="41" y="44"/>
      <point x="41" y="155" type="curve" smooth="yes"/>
      <point x="41" y="378"/>
      <point x="109" y="604"/>
      <point x="204" y="604" type="curve" smooth="yes"/>
      <point x="215" y="604"/>
      <point x="222" y="603"/>
      <point x="243" y="596" type="curve"/>
      <point x="248" y="615" type="line"/>
      <point x="233" y="620"/>
      <point x="216" y="623"/>
      <point x="203" y="623" type="curve" smooth="yes"/>
      <point x="96" y="623"/>
      <point x="22" y="394"/>
    </contour>
  </outline>
</glyph>
<glyph name="g.superior" format="2">
  <advance width="162"/>
  <outline>
    <contour>
      <point x="77" y="262" type="curve" smooth="yes"/>
      <point x="67" y="262"/>
      <point x="56" y="265"/>
      <point x="42" y="273" type="curve"/>
      <point x="36" y="257" type="line"/>
      <point x="46" y="250"/>
      <point x="63" y="246"/>
      <point x="76" y="246" type="curve" smooth="yes"/>
      <point x="103" y="246"/>
      <point x="121" y="258"/>
      <point x="133" y="333" type="curve" smooth="yes"/>
      <point x="186" y="668" type="line"/>
      <point x="174" y="674"/>
      <point x="161" y="677"/>
      <point x="149" y="677" type="curve" smooth="yes"/>
      <point x="69" y="677"/>
      <point x="51" y="513"/>
      <point x="51" y="438" type="curve" smooth="yes"/>
      <point x="51" y="385"/>
      <point x="70" y="364"/>
      <point x="95" y="364" type="curve" smooth="yes"/>
      <point x="106" y="364"/>
      <point x="115" y="368"/>
      <point x="122" y="373" type="curve"/>
      <point x="116" y="334" type="line" smooth="yes"/>
      <point x="105" y="264"/>
      <point x="91" y="262"/>
    </contour>
    <contour>
      <point x="167" y="658" type="curve"/>
      <point x="125" y="391" type="line"/>
      <point x="118" y="385"/>
      <point x="106" y="381"/>
      <point x="97" y="381" type="curve" smooth="yes"/>
      <point x="76" y="381"/>
      <point x="67" y="406"/>
      <point x="67" y="435" type="curve" smooth="yes"/>
      <point x="67" y="530"/>
      <point x="91" y="662"/>
      <point x="150" y="662" type="curve" smooth="yes"/>
      <point x="156" y="662"/>
      <point x="160" y="661"/>
    </contour>
  </outline>
</glyph>
<glyph name="h.sc" format="2">
  <advance width="281"/>
  <anchor x="97" y="0" name="bottom"/>
  <anchor x="146" y="307" name="center"/>
  <anchor x="192" y="600" name="top"/>
  <anchor x="68" y="600" name="topleft"/>
  <outline>
    <contour>
      <point x="3" y="0" type="line"/>
      <point x="21" y="0" type="line"/>
      <point x="62" y="256" type="line"/>
      <point x="212" y="256" type="line"/>
      <point x="173" y="0" type="line"/>
      <point x="191" y="0" type="line"/>
      <point x="288" y="615" type="line"/>
      <point x="270" y="615" type="line"/>
      <point x="215" y="273" type="line"/>
      <point x="64" y="273" type="line"/>
      <point x="118" y="615" type="line"/>
      <point x="100" y="615" type="line"/>
    </contour>
  </outline>
</glyph>
<glyph name="h.superior" format="2">
  <advance width="177"/>
  <outline>
    <contour>
      <point x="179" y="634" type="curve" smooth="yes"/>
      <point x="179" y="619"/>
      <point x="142" y="408"/>
      <point x="142" y="389" type="curve" smooth="yes"/>
      <point x="142" y="373"/>
      <point x="154" y="364"/>
      <point x="166" y="364" type="curve" smooth="yes"/>
      <point x="174" y="364"/>
      <point x="178" y="365"/>
      <point x="189" y="370" type="curve"/>
      <point x="187" y="384" type="line"/>
      <point x="177" y="381"/>
      <point x="172" y="380"/>
      <point x="170" y="380" type="curve" smooth="yes"/>
      <point x="161" y="380"/>
      <point x="159" y="384"/>
      <point x="159" y="391" type="curve" smooth="yes"/>
      <point x="159" y="397"/>
      <point x="196" y="623"/>
      <point x="196" y="635" type="curve" smooth="yes"/>
      <point x="196" y="660"/>
      <point x="186" y="677"/>
      <point x="159" y="677" type="curve" smooth="yes"/>
      <point x="145" y="677"/>
      <point x="132" y="673"/>
      <point x="120" y="667" type="curve"/>
      <point x="139" y="788" type="line"/>
      <point x="122" y="788" type="line"/>
      <point x="56" y="370" type="line"/>
      <point x="73" y="370" type="line"/>
      <point x="117" y="649" type="line"/>
      <point x="127" y="656"/>
      <point x="145" y="662"/>
      <point x="154" y="662" type="curve" smooth="yes"/>
      <point x="175" y="662"/>
      <point x="179" y="649"/>
    </contour>
  </outline>
</glyph>
<glyph name="hbar.sc" format="2">
  <advance width="281"/>
  <outline>
    <contour>
      <point x="34" y="457" type="line"/>
      <point x="32" y="442" type="line"/>
      <point x="73" y="442" type="line"/>
      <point x="3" y="0" type="line"/>
      <point x="23" y="0" type="line"/>
      <point x="64" y="256" type="line"/>
      <point x="212" y="256" type="line"/>
      <point x="172" y="0" type="line"/>
      <point x="191" y="0" type="line"/>
      <point x="261" y="442" type="line"/>
      <point x="303" y="442" type="line"/>
      <point x="305" y="457" type="line"/>
      <point x="263" y="457" type="line"/>
      <point x="288" y="615" type="line"/>
      <point x="270" y="615" type="line"/>
      <point x="244" y="457" type="line"/>
      <point x="95" y="457" type="line"/>
      <point x="120" y="615" type="line"/>
      <point x="100" y="615" type="line"/>
      <point x="75" y="457" type="line"/>
    </contour>
    <contour>
      <point x="66" y="273" type="line"/>
      <point x="93" y="442" type="line"/>
      <point x="242" y="442" type="line"/>
      <point x="215" y="273" type="line"/>
    </contour>
  </outline>
</glyph>
<glyph name="j.sc" format="2">
  <advance width="192"/>
  <anchor x="6" y="0" name="bottom"/>
  <anchor x="142" y="600" name="top"/>
  <outline>
    <contour>
      <point x="-37" y="-5" type="line"/>
      <point x="-21" y="-9"/>
      <point x="-7" y="-10"/>
      <point x="5" y="-10" type="curve" smooth="yes"/>
      <point x="82" y="-10"/>
      <point x="110" y="41"/>
      <point x="119" y="98" type="curve" smooth="yes"/>
      <point x="202" y="615" type="line"/>
      <point x="77" y="615" type="line"/>
      <point x="74" y="598" type="line"/>
      <point x="180" y="598" type="line"/>
      <point x="100" y="101" type="line" smooth="yes"/>
      <point x="90" y="37"/>
      <point x="56" y="8"/>
      <point x="7" y="8" type="curve" smooth="yes"/>
      <point x="-5" y="8"/>
      <point x="-19" y="9"/>
      <point x="-33" y="13" type="curve"/>
    </contour>
  </outline>
</glyph>
<glyph name="j.short" format="2">
  <advance width="124"/>
  <note>
idem /i
12
</note>
  <outline>
    <contour>
      <point x="136" y="710" type="curve" smooth="yes"/>
      <point x="122" y="710"/>
      <point x="122" y="708"/>
      <point x="119" y="684" type="curve" smooth="yes"/>
      <point x="118" y="676"/>
      <point x="123" y="676"/>
      <point x="129" y="676" type="curve" smooth="yes"/>
      <point x="143" y="676"/>
      <point x="143" y="678"/>
      <point x="146" y="702" type="curve" smooth="yes"/>
      <point x="147" y="710"/>
      <point x="142" y="710"/>
    </contour>
    <contour>
      <point x="116" y="530" type="line"/>
      <point x="97" y="530" type="line"/>
      <point x="3" y="-66" type="line" smooth="yes"/>
      <point x="-10" y="-148"/>
      <point x="-24" y="-203"/>
      <point x="-70" y="-203" type="curve" smooth="yes"/>
      <point x="-82" y="-203"/>
      <point x="-91" y="-202"/>
      <point x="-104" y="-199" type="curve"/>
      <point x="-108" y="-216" type="line"/>
      <point x="-96" y="-219"/>
      <point x="-84" y="-220"/>
      <point x="-71" y="-220" type="curve" smooth="yes"/>
      <point x="-17" y="-220"/>
      <point x="6" y="-168"/>
      <point x="21" y="-71" type="curve" smooth="yes"/>
    </contour>
  </outline>
</glyph>
<glyph name="j.superior" format="2">
  <advance width="92"/>
  <outline>
    <contour>
      <point x="118" y="670" type="line"/>
      <point x="101" y="670" type="line"/>
      <point x="49" y="337" type="line" smooth="yes"/>
      <point x="43" y="295"/>
      <point x="30" y="263"/>
      <point x="0" y="263" type="curve" smooth="yes"/>
      <point x="-9" y="263"/>
      <point x="-14" y="264"/>
      <point x="-25" y="268" type="curve"/>
      <point x="-29" y="253" type="line"/>
      <point x="-20" y="249"/>
      <point x="-11" y="248"/>
      <point x="1" y="248" type="curve" smooth="yes"/>
      <point x="38" y="248"/>
      <point x="56" y="278"/>
      <point x="65" y="335" type="curve" smooth="yes"/>
    </contour>
    <contour>
      <point x="135" y="768" type="curve" smooth="yes"/>
      <point x="136" y="774"/>
      <point x="133" y="775"/>
      <point x="127" y="775" type="curve" smooth="yes"/>
      <point x="117" y="775"/>
      <point x="116" y="774"/>
      <point x="114" y="760" type="curve" smooth="yes"/>
      <point x="113" y="754"/>
      <point x="116" y="753"/>
      <point x="121" y="753" type="curve" smooth="yes"/>
      <point x="131" y="753"/>
      <point x="133" y="754"/>
    </contour>
  </outline>
</glyph>
<glyph name="l.sc" format="2">
  <advance width="190"/>
  <anchor x="75" y="0" name="bottom"/>
  <anchor x="135" y="308" name="center"/>
  <anchor x="107" y="600" name="top"/>
  <anchor x="192" y="615" name="topright"/>
  <outline>
    <contour>
      <point x="3" y="0" type="line"/>
      <point x="137" y="0" type="line"/>
      <point x="141" y="18" type="line"/>
      <point x="25" y="18" type="line"/>
      <point x="119" y="615" type="line"/>
      <point x="100" y="615" type="line"/>
    </contour>
  </outline>
</glyph>
